<?xml version="1.0" encoding="UTF-8"?>
<?xml-stylesheet type="text/css" href="../SVGElements.css" ?>
<svg class="--svg-object" id="hero_accent_elements" data-name="Layer 2" xmlns="http://www.w3.org/2000/svg" viewBox="0 0 1307.2 1207.49">
  <defs>
    <style>
      .--SVG.--ringed-circle, .--SVG.--ringed-circle {
        stroke: #e27e72;
      }

      .--SVG.--ringed-circle, .--SVG.--ringed-circle, .--SVG.--lines, .--SVG.--circle-small, .--SVG.--circle-grid {
        fill: none;
        stroke-miterlimit: 10;
        stroke-width: 5px;
      }

      .--SVG.--ringed-circle, .--SVG.--lines, .--SVG.--circle-small {
        stroke-linecap: round;
      }

      .--SVG.--square {
        fill: #e27e72;
      }

      .--SVG.--circle-large {
        fill: #6873ba;
      }

      .--SVG.--lines, .--SVG.--circle-grid {
        stroke: #93b4ab;
      }

      .--SVG.--circle-small {
        stroke: #6873ba;
      }
    </style>
  </defs>
  <g id="Hero">
    <g id="Accent_Elements" data-name="Accent Elements">
      <rect class="--SVG --square" x="591.17" y="748.26" width="283.35" height="255.44"/>
      <g>
        <line class="--SVG --lines" x1="693.98" y1="1111.8" x2="732.85" y2="891.4"/>
        <line class="--SVG --lines" x1="781.75" y1="891.4" x2="742.88" y2="1111.8"/>
        <line class="--SVG --lines" x1="791.78" y1="1111.8" x2="830.64" y2="891.4"/>
        <line class="--SVG --lines" x1="879.54" y1="891.4" x2="840.68" y2="1111.8"/>
        <line class="--SVG --lines" x1="928.44" y1="891.4" x2="889.58" y2="1111.8"/>
        <line class="--SVG --lines" x1="977.34" y1="891.4" x2="938.48" y2="1111.8"/>
      </g>
      <circle class="--SVG --circle-small" cx="591.17" cy="875.98" r="52.49"/>
      <circle class="--SVG --circle-large" cx="205.89" cy="1001.6" r="205.89"/>
      <g>
        <g>
          <g>
            <circle class="--SVG --circle-grid" cx="751.99" cy="403.28" r="16.65"/>
            <circle class="--SVG --circle-grid" cx="828.57" cy="403.28" r="16.65"/>
            <circle class="--SVG --circle-grid" cx="905.15" cy="403.28" r="16.65"/>
            <circle class="--SVG --circle-grid" cx="981.73" cy="403.28" r="16.65"/>
            <circle class="--SVG --circle-grid" cx="751.99" cy="327" r="16.65"/>
            <circle class="--SVG --circle-grid" cx="828.57" cy="327" r="16.65"/>
            <circle class="--SVG --circle-grid" cx="905.15" cy="327" r="16.65"/>
            <circle class="--SVG --circle-grid" cx="981.73" cy="327" r="16.65"/>
            <circle class="--SVG --circle-grid" cx="751.99" cy="479.86" r="16.65"/>
            <circle class="--SVG --circle-grid" cx="828.57" cy="479.86" r="16.65"/>
            <circle class="--SVG --circle-grid" cx="905.15" cy="479.86" r="16.65"/>
            <circle class="--SVG --circle-grid" cx="981.73" cy="479.86" r="16.65"/>
          </g>
          <g>
            <circle class="--SVG --circle-grid" cx="1058.32" cy="403.28" r="16.65"/>
            <circle class="--SVG --circle-grid" cx="1134.9" cy="403.28" r="16.65"/>
            <circle class="--SVG --circle-grid" cx="1211.48" cy="403.28" r="16.65"/>
            <circle class="--SVG --circle-grid" cx="1288.06" cy="403.28" r="16.65"/>
            <circle class="--SVG --circle-grid" cx="1058.32" cy="327" r="16.65"/>
            <circle class="--SVG --circle-grid" cx="1134.9" cy="327" r="16.65"/>
            <circle class="--SVG --circle-grid" cx="1211.48" cy="327" r="16.65"/>
            <circle class="--SVG --circle-grid" cx="1288.06" cy="327" r="16.65"/>
            <circle class="--SVG --circle-grid" cx="1058.32" cy="479.86" r="16.65"/>
            <circle class="--SVG --circle-grid" cx="1134.9" cy="479.86" r="16.65"/>
            <circle class="--SVG --circle-grid" cx="1211.48" cy="479.86" r="16.65"/>
            <circle class="--SVG --circle-grid" cx="1288.06" cy="479.86" r="16.65"/>
          </g>
        </g>
        <g>
          <g>
            <circle class="--SVG --circle-grid" cx="751.99" cy="632.71" r="16.65"/>
            <circle class="--SVG --circle-grid" cx="828.57" cy="632.71" r="16.65"/>
            <circle class="--SVG --circle-grid" cx="905.15" cy="632.71" r="16.65"/>
            <circle class="--SVG --circle-grid" cx="981.73" cy="632.71" r="16.65"/>
            <circle class="--SVG --circle-grid" cx="751.99" cy="556.44" r="16.65"/>
            <circle class="--SVG --circle-grid" cx="828.57" cy="556.44" r="16.65"/>
            <circle class="--SVG --circle-grid" cx="905.15" cy="556.44" r="16.65"/>
            <circle class="--SVG --circle-grid" cx="981.73" cy="556.44" r="16.65"/>
            <circle class="--SVG --circle-grid" cx="751.99" cy="709.29" r="16.65"/>
            <circle class="--SVG --circle-grid" cx="828.57" cy="709.29" r="16.65"/>
            <circle class="--SVG --circle-grid" cx="905.15" cy="709.29" r="16.65"/>
            <circle class="--SVG --circle-grid" cx="981.73" cy="709.29" r="16.65"/>
          </g>
          <g>
            <circle class="--SVG --circle-grid" cx="1058.32" cy="632.71" r="16.65"/>
            <circle class="--SVG --circle-grid" cx="1134.9" cy="632.71" r="16.65"/>
            <circle class="--SVG --circle-grid" cx="1211.48" cy="632.71" r="16.65"/>
            <circle class="--SVG --circle-grid" cx="1288.06" cy="632.71" r="16.65"/>
            <circle class="--SVG --circle-grid" cx="1058.32" cy="556.44" r="16.65"/>
            <circle class="--SVG --circle-grid" cx="1134.9" cy="556.44" r="16.65"/>
            <circle class="--SVG --circle-grid" cx="1211.48" cy="556.44" r="16.65"/>
            <circle class="--SVG --circle-grid" cx="1288.06" cy="556.44" r="16.65"/>
            <circle class="--SVG --circle-grid" cx="1058.32" cy="709.29" r="16.65"/>
            <circle class="--SVG --circle-grid" cx="1134.9" cy="709.29" r="16.65"/>
            <circle class="--SVG --circle-grid" cx="1211.48" cy="709.29" r="16.65"/>
            <circle class="--SVG --circle-grid" cx="1288.06" cy="709.29" r="16.65"/>
          </g>
        </g>
      </g>
      <g>
        <circle class="--SVG --ringed-circle --ring2" cx="411.77" cy="167.38" r="52.39"/>
        <circle class="--SVG --ringed-circle --ring1" cx="411.77" cy="167.38" r="16.65"/>
        <circle class="--SVG --ringed-circle --ring3" cx="411.77" cy="167.38" r="116.59"/>
        <circle class="--SVG --ringed-circle --ring4" cx="411.77" cy="167.38" r="164.88"/>
      </g>
    </g>
  </g>
</svg>