<?xml version="1.0" encoding="UTF-8"?>
<?xml-stylesheet type="text/css" href="../SVGElements.css" ?>
<svg class="--svg-object --arrow" id="arrow_svg" data-name="Layer 2" xmlns="http://www.w3.org/2000/svg" viewBox="0 0 42.65 42.31">
  <defs>
    <style>
      .cls-1 {
        fill: #fff;
      }
    </style>
  </defs>
  <g id="Hero">
    <path class="cls-1" d="m40.95,26.59l1.58-23.33s.01-.06.02-.09c.02-.08.05-.16.06-.24.01-.07.02-.15.02-.23,0-.09.01-.18.01-.27,0-.02,0-.05,0-.07,0-.05-.02-.1-.02-.15-.01-.09-.02-.18-.04-.26-.02-.08-.04-.15-.07-.23-.03-.08-.05-.15-.08-.23-.03-.08-.08-.15-.12-.23-.04-.07-.08-.13-.12-.19-.05-.08-.11-.15-.17-.21-.03-.04-.06-.08-.09-.11h0s-.03-.03-.05-.05c-.07-.06-.14-.12-.21-.17-.06-.04-.12-.09-.18-.13-.07-.04-.14-.08-.22-.12-.07-.04-.14-.07-.22-.1-.07-.03-.15-.05-.23-.07-.08-.02-.16-.05-.24-.06-.07-.01-.15-.02-.22-.02-.03,0-.05,0-.08,0-.01,0-.02,0-.03,0,0,0-.01,0-.02,0-.05,0-.09,0-.14,0-.02,0-.05,0-.07,0L15.75,1.35c-1.38.08-2.43,1.26-2.36,2.64.04.64.31,1.21.73,1.63.49.49,1.17.77,1.91.73l17.69-.98L.74,38.03c-.98.97-.99,2.55-.02,3.54h0c.97.98,2.55.99,3.53.02L37.13,9.01l-1.17,17.24c-.05.75.23,1.44.73,1.94.41.41.97.68,1.6.73,1.38.09,2.57-.95,2.66-2.33Z"/>
  </g>
</svg>