<?xml version="1.0" encoding="UTF-8"?>
<svg id="Layer_2" data-name="Layer 2" xmlns="http://www.w3.org/2000/svg" width="524.28" height="1095.88" viewBox="0 0 524.28 1095.88">
  <defs>
    <style>
      .cls-1 {
        fill: #76afb5;
      }

      .cls-2 {
        fill: #444144;
      }
    </style>
  </defs>
  <g id="Landing_-_Hero" data-name="Landing - Hero">
    <g>
      <polygon class="cls-1" points="123.71 1090.88 517.1 1090.88 123.71 27.92 123.71 281.72 64.35 281.72 64.35 314.39 123.71 314.39 123.71 328.94 34.42 328.94 34.42 361.62 123.71 361.62 123.71 376.17 5 376.17 5 408.85 123.71 408.85 123.71 1090.88"/>
      <path class="cls-2" d="m524.28,1095.88L118.71,0v276.72h-59.35v42.68h59.35v4.55H29.42v42.68h89.29v4.55H0v42.68h118.71v682.03h405.57ZM5,408.85v-32.68h118.71v-14.55H34.42v-32.68h89.29v-14.55h-59.35v-32.68h59.35V27.92l393.39,1062.96H123.71V408.85H5Z"/>
    </g>
  </g>
</svg>