<?xml version="1.0" encoding="UTF-8"?>
<svg id="uuid-e9a1d7d0-0b33-46c1-afa5-02cf62dff7fe" data-name="Layer 2" xmlns="http://www.w3.org/2000/svg" width="329.66" height="676.92" viewBox="0 0 329.66 676.92">
  <defs>
    <style>
      .uuid-b80ed200-d110-4bf7-a372-66cc57bb410d {
        opacity: .5;
      }

      .uuid-5f719bd7-c2d8-469d-9c0a-318efeab5a39 {
        fill: #6b9080;
      }

      .uuid-ba7ef466-a97f-42d8-b03b-d607606ea42c {
        fill: #e27e72;
      }

      .uuid-d645261b-8a85-405e-a694-f87b960b47b9 {
        fill: #444144;
      }

      .uuid-aa7fb9d0-a01c-44df-af0b-29e958a9cf14 {
        fill: #02728a;
      }

      .uuid-955221b3-4993-41ca-922d-25c94ea6c738 {
        fill: #e5625e;
      }

      .uuid-6b7622a7-1655-49ca-afb8-4dbd65505243 {
        fill: #3a5683;
      }
    </style>
  </defs>
  <g id="uuid-15b8bf00-365a-4ab0-82fd-a36758570dde" data-name="About">
    <g id="uuid-e4bdac95-a04f-47b3-b73e-3a95e2044438" data-name="SVG Elements">
      <g>
        <g>
          <circle class="uuid-5f719bd7-c2d8-469d-9c0a-318efeab5a39" cx="186.42" cy="589.42" r="38.77"/>
          <path class="uuid-d645261b-8a85-405e-a694-f87b960b47b9" d="m186.42,554.79c19.1,0,34.63,15.54,34.63,34.63s-15.54,34.63-34.63,34.63-34.63-15.54-34.63-34.63,15.54-34.63,34.63-34.63m0-4.14c-21.41,0-38.77,17.36-38.77,38.77s17.36,38.77,38.77,38.77,38.77-17.36,38.77-38.77-17.36-38.77-38.77-38.77h0Z"/>
        </g>
        <g>
          <circle class="uuid-ba7ef466-a97f-42d8-b03b-d607606ea42c" cx="186.42" cy="589.42" r="8.71"/>
          <path class="uuid-d645261b-8a85-405e-a694-f87b960b47b9" d="m186.42,584.86c2.52,0,4.57,2.05,4.57,4.57s-2.05,4.57-4.57,4.57-4.57-2.05-4.57-4.57,2.05-4.57,4.57-4.57m0-4.14c-4.81,0-8.71,3.9-8.71,8.71s3.9,8.71,8.71,8.71,8.71-3.9,8.71-8.71-3.9-8.71-8.71-8.71h0Z"/>
        </g>
      </g>
      <g>
        <path class="uuid-d645261b-8a85-405e-a694-f87b960b47b9" d="m33.86,676.8h126.88c-.52-69.85-57.03-126.37-126.88-126.88v126.88Z"/>
        <path class="uuid-d645261b-8a85-405e-a694-f87b960b47b9" d="m16.92,0C7.59,0,0,7.59,0,16.92v660h33.83V16.92C33.83,7.59,26.24,0,16.92,0Z"/>
        <circle class="uuid-d645261b-8a85-405e-a694-f87b960b47b9" cx="32.52" cy="493.6" r="24.57"/>
        <circle class="uuid-d645261b-8a85-405e-a694-f87b960b47b9" cx="32.52" cy="317.19" r="24.57"/>
      </g>
      <g>
        <g>
          <circle class="uuid-5f719bd7-c2d8-469d-9c0a-318efeab5a39" cx="251.31" cy="589.42" r="8.71"/>
          <path class="uuid-d645261b-8a85-405e-a694-f87b960b47b9" d="m251.31,584.86c2.52,0,4.57,2.05,4.57,4.57s-2.05,4.57-4.57,4.57-4.57-2.05-4.57-4.57,2.05-4.57,4.57-4.57m0-4.14c-4.81,0-8.71,3.9-8.71,8.71s3.9,8.71,8.71,8.71,8.71-3.9,8.71-8.71-3.9-8.71-8.71-8.71h0Z"/>
        </g>
        <g>
          <circle class="uuid-6b7622a7-1655-49ca-afb8-4dbd65505243" cx="286.13" cy="589.42" r="8.71"/>
          <path class="uuid-d645261b-8a85-405e-a694-f87b960b47b9" d="m286.13,584.86c2.52,0,4.57,2.05,4.57,4.57s-2.05,4.57-4.57,4.57-4.57-2.05-4.57-4.57,2.05-4.57,4.57-4.57m0-4.14c-4.81,0-8.71,3.9-8.71,8.71s3.9,8.71,8.71,8.71,8.71-3.9,8.71-8.71-3.9-8.71-8.71-8.71h0Z"/>
        </g>
        <g>
          <circle class="uuid-955221b3-4993-41ca-922d-25c94ea6c738" cx="320.96" cy="589.42" r="8.71"/>
          <path class="uuid-d645261b-8a85-405e-a694-f87b960b47b9" d="m320.96,584.86c2.52,0,4.57,2.05,4.57,4.57s-2.05,4.57-4.57,4.57-4.57-2.05-4.57-4.57,2.05-4.57,4.57-4.57m0-4.14c-4.81,0-8.71,3.9-8.71,8.71s3.9,8.71,8.71,8.71,8.71-3.9,8.71-8.71-3.9-8.71-8.71-8.71h0Z"/>
        </g>
      </g>
      <g>
        <circle class="uuid-6b7622a7-1655-49ca-afb8-4dbd65505243" cx="53.12" cy="627.78" r="8.71"/>
        <circle class="uuid-955221b3-4993-41ca-922d-25c94ea6c738" cx="53.12" cy="666.14" r="8.71"/>
        <g class="uuid-b80ed200-d110-4bf7-a372-66cc57bb410d">
          <circle class="uuid-5f719bd7-c2d8-469d-9c0a-318efeab5a39" cx="53.12" cy="589.42" r="8.71"/>
        </g>
      </g>
      <g>
        <g>
          <circle class="uuid-5f719bd7-c2d8-469d-9c0a-318efeab5a39" cx="125.16" cy="589.42" r="63.34"/>
          <path class="uuid-d645261b-8a85-405e-a694-f87b960b47b9" d="m125.16,530.22c32.64,0,59.2,26.56,59.2,59.2s-26.56,59.2-59.2,59.2-59.2-26.56-59.2-59.2,26.56-59.2,59.2-59.2m0-4.14c-34.98,0-63.34,28.36-63.34,63.34s28.36,63.34,63.34,63.34,63.34-28.36,63.34-63.34-28.36-63.34-63.34-63.34h0Z"/>
        </g>
        <g>
          <circle class="uuid-aa7fb9d0-a01c-44df-af0b-29e958a9cf14" cx="125.16" cy="589.42" r="14.31"/>
          <path class="uuid-d645261b-8a85-405e-a694-f87b960b47b9" d="m125.16,579.25c5.61,0,10.17,4.56,10.17,10.17s-4.56,10.17-10.17,10.17-10.17-4.56-10.17-10.17,4.56-10.17,10.17-10.17m0-4.14c-7.9,0-14.31,6.41-14.31,14.31s6.41,14.31,14.31,14.31,14.31-6.41,14.31-14.31-6.41-14.31-14.31-14.31h0Z"/>
        </g>
      </g>
    </g>
  </g>
</svg>