<?xml version="1.0" encoding="UTF-8"?>
<svg id="Layer_2" data-name="Layer 2" xmlns="http://www.w3.org/2000/svg" width="435.05" height="891.08" viewBox="0 0 435.05 891.08">
  <defs>
    <style>
      .cls-1 {
        fill: #76afb5;
      }

      .cls-2 {
        fill: #444144;
      }
    </style>
  </defs>
  <g id="Landing_-_Hero" data-name="Landing - Hero">
    <g>
      <polygon class="cls-2" points="435.05 891.08 103.39 0 98.27 0 98.27 215.97 49.13 215.97 49.13 251.95 98.27 251.95 98.27 254.84 24.35 254.84 24.35 290.82 98.27 290.82 98.27 293.71 0 293.71 0 329.7 98.27 329.7 98.27 891.08 435.05 891.08"/>
      <polygon class="cls-1" points="5 298.68 103.27 298.68 103.27 285.85 29.35 285.85 29.35 259.81 103.27 259.81 103.27 246.98 54.13 246.98 54.13 220.94 103.27 220.94 103.27 14 427.87 886.11 103.27 886.11 103.27 324.72 5 324.72 5 298.68"/>
    </g>
  </g>
</svg>