<?xml version="1.0" encoding="UTF-8"?>
<svg id="Layer_2" data-name="Layer 2" xmlns="http://www.w3.org/2000/svg" width="398.23" height="817.72" viewBox="0 0 398.23 817.72">
  <defs>
    <style>
      .cls-1 {
        opacity: .5;
      }

      .cls-2 {
        fill: #6b9080;
      }

      .cls-3 {
        fill: #e27e72;
      }

      .cls-4 {
        fill: #444144;
      }

      .cls-5 {
        fill: #02728a;
      }

      .cls-6 {
        fill: #e5625e;
      }

      .cls-7 {
        fill: #3a5683;
      }
    </style>
  </defs>
  <g id="Landing_-_Hero" data-name="Landing - Hero">
    <g id="SVG_Elements" data-name="SVG Elements">
      <g>
        <g>
          <circle class="cls-2" cx="225.2" cy="712.03" r="46.84"/>
          <path class="cls-4" d="m225.2,670.19c23.07,0,41.84,18.77,41.84,41.84s-18.77,41.84-41.84,41.84-41.84-18.77-41.84-41.84,18.77-41.84,41.84-41.84m0-5c-25.87,0-46.84,20.97-46.84,46.84s20.97,46.84,46.84,46.84,46.84-20.97,46.84-46.84-20.97-46.84-46.84-46.84h0Z"/>
        </g>
        <g>
          <circle class="cls-3" cx="225.2" cy="712.03" r="10.52"/>
          <path class="cls-4" d="m225.2,706.51c3.04,0,5.52,2.47,5.52,5.52s-2.47,5.52-5.52,5.52-5.52-2.47-5.52-5.52,2.47-5.52,5.52-5.52m0-5c-5.81,0-10.52,4.71-10.52,10.52s4.71,10.52,10.52,10.52,10.52-4.71,10.52-10.52-4.71-10.52-10.52-10.52h0Z"/>
        </g>
      </g>
      <g>
        <path class="cls-4" d="m40.91,817.58h153.28c-.62-84.38-68.9-152.65-153.28-153.28v153.28Z"/>
        <path class="cls-4" d="m20.44,0C9.17,0,0,9.17,0,20.44v797.29h40.87V20.44C40.87,9.17,31.7,0,20.44,0Z"/>
        <circle class="cls-4" cx="39.28" cy="596.27" r="29.68"/>
        <circle class="cls-4" cx="39.28" cy="383.17" r="29.68"/>
      </g>
      <g>
        <g>
          <circle class="cls-2" cx="303.59" cy="712.03" r="10.52"/>
          <path class="cls-4" d="m303.59,706.51c3.04,0,5.52,2.47,5.52,5.52s-2.47,5.52-5.52,5.52-5.52-2.47-5.52-5.52,2.47-5.52,5.52-5.52m0-5c-5.81,0-10.52,4.71-10.52,10.52s4.71,10.52,10.52,10.52,10.52-4.71,10.52-10.52-4.71-10.52-10.52-10.52h0Z"/>
        </g>
        <g>
          <circle class="cls-7" cx="345.65" cy="712.03" r="10.52"/>
          <path class="cls-4" d="m345.65,706.51c3.04,0,5.52,2.47,5.52,5.52s-2.47,5.52-5.52,5.52-5.52-2.47-5.52-5.52,2.47-5.52,5.52-5.52m0-5c-5.81,0-10.52,4.71-10.52,10.52s4.71,10.52,10.52,10.52,10.52-4.71,10.52-10.52-4.71-10.52-10.52-10.52h0Z"/>
        </g>
        <g>
          <circle class="cls-6" cx="387.72" cy="712.03" r="10.52"/>
          <path class="cls-4" d="m387.72,706.51c3.04,0,5.52,2.47,5.52,5.52s-2.47,5.52-5.52,5.52-5.52-2.47-5.52-5.52,2.47-5.52,5.52-5.52m0-5c-5.81,0-10.52,4.71-10.52,10.52s4.71,10.52,10.52,10.52,10.52-4.71,10.52-10.52-4.71-10.52-10.52-10.52h0Z"/>
        </g>
      </g>
      <g>
        <circle class="cls-7" cx="64.17" cy="758.37" r="10.52"/>
        <circle class="cls-6" cx="64.17" cy="804.71" r="10.52"/>
        <g class="cls-1">
          <circle class="cls-2" cx="64.17" cy="712.03" r="10.52"/>
        </g>
      </g>
      <g>
        <g>
          <circle class="cls-2" cx="151.2" cy="712.03" r="76.52"/>
          <path class="cls-4" d="m151.2,640.51c39.43,0,71.52,32.08,71.52,71.52s-32.08,71.52-71.52,71.52-71.52-32.08-71.52-71.52,32.08-71.52,71.52-71.52m0-5c-42.26,0-76.52,34.26-76.52,76.52s34.26,76.52,76.52,76.52,76.52-34.26,76.52-76.52-34.26-76.52-76.52-76.52h0Z"/>
        </g>
        <g>
          <circle class="cls-5" cx="151.2" cy="712.03" r="17.29"/>
          <path class="cls-4" d="m151.2,699.74c6.78,0,12.29,5.51,12.29,12.29s-5.51,12.29-12.29,12.29-12.29-5.51-12.29-12.29,5.51-12.29,12.29-12.29m0-5c-9.55,0-17.29,7.74-17.29,17.29s7.74,17.29,17.29,17.29,17.29-7.74,17.29-17.29-7.74-17.29-17.29-17.29h0Z"/>
        </g>
      </g>
    </g>
  </g>
</svg>