<?xml version="1.0" encoding="UTF-8"?>
<svg id="uuid-bfa26889-9530-4954-a063-2f6b2b739c2f" data-name="Layer 2" xmlns="http://www.w3.org/2000/svg" width="329.66" height="676.92" viewBox="0 0 329.66 676.92">
  <defs>
    <style>
      .uuid-67c86ab8-558e-478b-86b6-34444a69e26a {
        opacity: .5;
      }

      .uuid-ff3db1de-ffd4-40a3-85f2-f3a95d708747 {
        fill: #6b9080;
      }

      .uuid-0ae98d1e-c05d-4d2a-b10b-0f2fc03de6db {
        fill: #e27e72;
      }

      .uuid-fe6c98d3-ef60-45f5-aaf4-b6535cae42f3 {
        fill: #444144;
      }

      .uuid-6e7060b0-f0ed-440a-907c-fa669432a3a6 {
        fill: #02728a;
      }

      .uuid-ddb2b88c-ff53-4cca-8f27-240c2c94b3df {
        fill: #e5625e;
      }

      .uuid-5368c694-79e7-4ae8-b7af-8e0548e0dd78 {
        fill: #3a5683;
      }
    </style>
  </defs>
  <g id="uuid-27c241b1-fedc-4199-8593-c20205bfa9e0" data-name="About">
    <g id="uuid-7b6056d4-e6e4-4fa8-93d4-e89b150fccd4" data-name="SVG Elements">
      <g>
        <g>
          <circle class="uuid-ff3db1de-ffd4-40a3-85f2-f3a95d708747" cx="186.42" cy="589.42" r="38.77"/>
          <path class="uuid-fe6c98d3-ef60-45f5-aaf4-b6535cae42f3" d="m186.42,554.79c19.1,0,34.63,15.54,34.63,34.63s-15.54,34.63-34.63,34.63-34.63-15.54-34.63-34.63,15.54-34.63,34.63-34.63m0-4.14c-21.41,0-38.77,17.36-38.77,38.77s17.36,38.77,38.77,38.77,38.77-17.36,38.77-38.77-17.36-38.77-38.77-38.77h0Z"/>
        </g>
        <g>
          <circle class="uuid-0ae98d1e-c05d-4d2a-b10b-0f2fc03de6db" cx="186.42" cy="589.42" r="8.71"/>
          <path class="uuid-fe6c98d3-ef60-45f5-aaf4-b6535cae42f3" d="m186.42,584.86c2.52,0,4.57,2.05,4.57,4.57s-2.05,4.57-4.57,4.57-4.57-2.05-4.57-4.57,2.05-4.57,4.57-4.57m0-4.14c-4.81,0-8.71,3.9-8.71,8.71s3.9,8.71,8.71,8.71,8.71-3.9,8.71-8.71-3.9-8.71-8.71-8.71h0Z"/>
        </g>
      </g>
      <g>
        <path class="uuid-fe6c98d3-ef60-45f5-aaf4-b6535cae42f3" d="m33.86,676.8h126.88c-.52-69.85-57.03-126.37-126.88-126.88v126.88Z"/>
        <path class="uuid-fe6c98d3-ef60-45f5-aaf4-b6535cae42f3" d="m16.92,0C7.59,0,0,7.59,0,16.92v660h33.83V16.92C33.83,7.59,26.24,0,16.92,0Z"/>
        <circle class="uuid-fe6c98d3-ef60-45f5-aaf4-b6535cae42f3" cx="32.52" cy="493.6" r="24.57"/>
        <circle class="uuid-fe6c98d3-ef60-45f5-aaf4-b6535cae42f3" cx="32.52" cy="317.19" r="24.57"/>
      </g>
      <g>
        <g>
          <circle class="uuid-ff3db1de-ffd4-40a3-85f2-f3a95d708747" cx="251.31" cy="589.42" r="8.71"/>
          <path class="uuid-fe6c98d3-ef60-45f5-aaf4-b6535cae42f3" d="m251.31,584.86c2.52,0,4.57,2.05,4.57,4.57s-2.05,4.57-4.57,4.57-4.57-2.05-4.57-4.57,2.05-4.57,4.57-4.57m0-4.14c-4.81,0-8.71,3.9-8.71,8.71s3.9,8.71,8.71,8.71,8.71-3.9,8.71-8.71-3.9-8.71-8.71-8.71h0Z"/>
        </g>
        <g>
          <circle class="uuid-5368c694-79e7-4ae8-b7af-8e0548e0dd78" cx="286.13" cy="589.42" r="8.71"/>
          <path class="uuid-fe6c98d3-ef60-45f5-aaf4-b6535cae42f3" d="m286.13,584.86c2.52,0,4.57,2.05,4.57,4.57s-2.05,4.57-4.57,4.57-4.57-2.05-4.57-4.57,2.05-4.57,4.57-4.57m0-4.14c-4.81,0-8.71,3.9-8.71,8.71s3.9,8.71,8.71,8.71,8.71-3.9,8.71-8.71-3.9-8.71-8.71-8.71h0Z"/>
        </g>
        <g>
          <circle class="uuid-ddb2b88c-ff53-4cca-8f27-240c2c94b3df" cx="320.96" cy="589.42" r="8.71"/>
          <path class="uuid-fe6c98d3-ef60-45f5-aaf4-b6535cae42f3" d="m320.96,584.86c2.52,0,4.57,2.05,4.57,4.57s-2.05,4.57-4.57,4.57-4.57-2.05-4.57-4.57,2.05-4.57,4.57-4.57m0-4.14c-4.81,0-8.71,3.9-8.71,8.71s3.9,8.71,8.71,8.71,8.71-3.9,8.71-8.71-3.9-8.71-8.71-8.71h0Z"/>
        </g>
      </g>
      <g>
        <circle class="uuid-5368c694-79e7-4ae8-b7af-8e0548e0dd78" cx="53.12" cy="627.78" r="8.71"/>
        <circle class="uuid-ddb2b88c-ff53-4cca-8f27-240c2c94b3df" cx="53.12" cy="666.14" r="8.71"/>
        <g class="uuid-67c86ab8-558e-478b-86b6-34444a69e26a">
          <circle class="uuid-ff3db1de-ffd4-40a3-85f2-f3a95d708747" cx="53.12" cy="589.42" r="8.71"/>
        </g>
      </g>
      <g>
        <g>
          <circle class="uuid-ff3db1de-ffd4-40a3-85f2-f3a95d708747" cx="125.16" cy="589.42" r="63.34"/>
          <path class="uuid-fe6c98d3-ef60-45f5-aaf4-b6535cae42f3" d="m125.16,530.22c32.64,0,59.2,26.56,59.2,59.2s-26.56,59.2-59.2,59.2-59.2-26.56-59.2-59.2,26.56-59.2,59.2-59.2m0-4.14c-34.98,0-63.34,28.36-63.34,63.34s28.36,63.34,63.34,63.34,63.34-28.36,63.34-63.34-28.36-63.34-63.34-63.34h0Z"/>
        </g>
        <g>
          <circle class="uuid-6e7060b0-f0ed-440a-907c-fa669432a3a6" cx="125.16" cy="589.42" r="14.31"/>
          <path class="uuid-fe6c98d3-ef60-45f5-aaf4-b6535cae42f3" d="m125.16,579.25c5.61,0,10.17,4.56,10.17,10.17s-4.56,10.17-10.17,10.17-10.17-4.56-10.17-10.17,4.56-10.17,10.17-10.17m0-4.14c-7.9,0-14.31,6.41-14.31,14.31s6.41,14.31,14.31,14.31,14.31-6.41,14.31-14.31-6.41-14.31-14.31-14.31h0Z"/>
        </g>
      </g>
    </g>
  </g>
</svg>