<?xml version="1.0" encoding="UTF-8"?>
<svg id="uuid-8f988d26-7a11-4aae-bfbb-0bc0b41b726c" data-name="Layer 2" xmlns="http://www.w3.org/2000/svg" width="135.7" height="135.7" viewBox="0 0 135.7 135.7">
  <defs>
    <style>
      .uuid-c88797c4-ac29-4f37-b6a5-f828d855d816 {
        fill: #6b9080;
      }

      .uuid-1e3499ce-efba-48c0-a0aa-3b280e57bf5a {
        fill: #444144;
      }

      .uuid-7bdecd1c-4800-4da7-9596-e4acd0bcdd98 {
        fill: #02728a;
      }

      .uuid-3e36677e-a8fd-4348-8a37-6c55c04edb26 {
        fill: #e5625e;
      }

      .uuid-c227b565-0609-4d6e-bfb2-ef8f8f641a70 {
        fill: #fbedda;
      }
    </style>
  </defs>
  <g id="uuid-7197b52e-1202-42a2-aeb6-3d74c00d92b2" data-name="About">
    <g>
      <path class="uuid-c227b565-0609-4d6e-bfb2-ef8f8f641a70" d="m69.47,4.61c-.54-.01-1.08-.04-1.62-.04C32.96,4.57,4.57,32.96,4.57,67.85s28.39,63.28,63.28,63.28c.54,0,1.08-.03,1.62-.04,34.14-.87,61.66-28.89,61.66-63.24S103.62,5.48,69.47,4.61Z"/>
      <polygon class="uuid-1e3499ce-efba-48c0-a0aa-3b280e57bf5a" points="28.65 77.65 67.85 116.85 107.05 77.65 28.65 77.65"/>
      <polygon class="uuid-7bdecd1c-4800-4da7-9596-e4acd0bcdd98" points="87.45 87.45 48.25 87.45 67.85 107.05 87.45 87.45"/>
      <polygon class="uuid-1e3499ce-efba-48c0-a0aa-3b280e57bf5a" points="28.65 58.05 67.85 97.25 107.05 58.05 28.65 58.05"/>
      <polygon class="uuid-3e36677e-a8fd-4348-8a37-6c55c04edb26" points="87.45 67.85 48.25 67.85 67.85 87.45 87.45 67.85"/>
      <polygon class="uuid-1e3499ce-efba-48c0-a0aa-3b280e57bf5a" points="28.65 38.45 67.85 77.65 107.05 38.45 28.65 38.45"/>
      <polygon class="uuid-c88797c4-ac29-4f37-b6a5-f828d855d816" points="87.45 48.25 48.25 48.25 67.85 67.85 87.45 48.25"/>
      <path class="uuid-1e3499ce-efba-48c0-a0aa-3b280e57bf5a" d="m67.85,135.7C30.44,135.7,0,105.26,0,67.85S30.44,0,67.85,0s67.85,30.44,67.85,67.85-30.44,67.85-67.85,67.85Zm0-130.7C33.19,5,5,33.19,5,67.85s28.19,62.85,62.85,62.85,62.85-28.19,62.85-62.85S102.5,5,67.85,5Z"/>
    </g>
  </g>
</svg>