<?xml version="1.0" encoding="UTF-8"?>
<svg id="Layer_2" data-name="Layer 2" xmlns="http://www.w3.org/2000/svg" width="435.05" height="891.08" viewBox="0 0 435.05 891.08">
  <defs>
    <style>
      .cls-1 {
        fill: #76afb5;
      }

      .cls-2 {
        fill: #444144;
      }
    </style>
  </defs>
  <g id="Landing_-_Hero" data-name="Landing - Hero">
    <g>
      <polygon class="cls-1" points="103.27 886.11 427.87 886.11 103.27 14 103.27 220.94 54.13 220.94 54.13 246.98 103.27 246.98 103.27 259.81 29.35 259.81 29.35 285.85 103.27 285.85 103.27 298.68 5 298.68 5 324.72 103.27 324.72 103.27 886.11"/>
      <path class="cls-2" d="m435.05,891.08L103.39,0h-5.12v215.97h-49.13v35.98h49.13v2.89H24.35v35.98h73.91v2.89H0v35.98h98.27v561.38h336.79ZM5,298.68h98.27v-12.83H29.35v-26.04h73.91v-12.83h-49.13v-26.04h49.13V14l324.6,872.11H103.27V324.72H5v-26.04Z"/>
    </g>
  </g>
</svg>