<?xml version="1.0" encoding="UTF-8"?>
<svg id="Layer_2" data-name="Layer 2" xmlns="http://www.w3.org/2000/svg" width="306.57" height="147.04" viewBox="0 0 306.57 147.04">
  <defs>
    <style>
      .cls-1 {
        fill: #93b4ab;
      }

      .cls-2 {
        fill: #779dc1;
      }

      .cls-3 {
        fill: #444144;
      }

      .cls-4 {
        fill: #c19c94;
      }

      .cls-5 {
        fill: #f7faf9;
      }

      .cls-6 {
        fill: #fbedda;
      }
    </style>
  </defs>
  <g id="Landing_-_Hero" data-name="Landing - Hero">
    <g id="Logo">
      <g>
        <path class="cls-6" d="m145.89,82.68s0,.08-.01.11c.03-.15.05-.3.1-.44-.03.11-.06.22-.08.33Z"/>
        <path class="cls-6" d="m119.39,82.68c-.05-.23-.12-.45-.2-.67.09.23.16.47.2.72,0-.02,0-.03,0-.05Z"/>
        <path class="cls-6" d="m84.38,129.92V60.19c0-13.21,10.34-24.05,23.36-24.85l46.84-.05c-9.49-6.53-20.97-10.36-33.34-10.36-32.53,0-58.99,26.46-58.99,58.99,0,18.59,8.65,35.18,22.12,46Z"/>
        <path class="cls-6" d="m154.36,82.68c-.05-.23-.12-.45-.2-.67.09.23.16.47.2.72,0-.02,0-.03,0-.05Z"/>
        <path class="cls-6" d="m110.92,82.68s0,.08-.01.11c.03-.15.05-.3.1-.44-.03.11-.06.22-.08.33Z"/>
        <polygon class="cls-6" points="154.45 77.53 154.45 77.53 154.45 77.53 154.45 77.53"/>
        <path class="cls-6" d="m157.55,37.48v92.88c13.79-10.81,22.68-27.6,22.68-46.44s-8.89-35.63-22.68-46.44Z"/>
        <path class="cls-6" d="m86.87,131.82c9.69,6.97,21.55,11.09,34.37,11.09s24.68-4.12,34.37-11.09h-68.73Z"/>
        <path class="cls-2" d="m107.73,38.44c-11.31.8-20.26,10.25-20.26,21.76v68.53h20.26v-58.15c-5.05-.75-8.94-5.12-8.94-10.38s3.89-9.63,8.94-10.38v-11.38Z"/>
        <path class="cls-5" d="m107.73,67.43v-14.47c-3.34.71-5.85,3.68-5.85,7.23s2.51,6.52,5.85,7.23Z"/>
        <path class="cls-4" d="m144.27,110.97s0,0,0,0c0,0,.02.01.02.02,0,0-.01,0-.02-.01Z"/>
        <path class="cls-4" d="m121.01,110.97s-.01,0-.02.01c0,0,.02-.01.02-.02,0,0,0,0,0,0Z"/>
        <path class="cls-4" d="m120.3,111.45s-.01,0-.02.01c0,0,.01-.01.02-.02,0,0,0,0,0,0Z"/>
        <path class="cls-4" d="m142.71,105.12v-20.02h-20.14v20.02c3.08-1.37,6.49-2.13,10.07-2.13s6.99.76,10.07,2.13Z"/>
        <path class="cls-1" d="m154.45,38.38h-43.62v39.15c1.22-.88,2.71-1.4,4.32-1.4,3.56,0,6.54,2.52,7.25,5.87h20.47c.71-3.35,3.69-5.87,7.25-5.87,1.61,0,3.1.52,4.32,1.4v-39.15Z"/>
        <path class="cls-1" d="m151.31,79.4c.45.13.86.32,1.24.57-.37-.25-.79-.45-1.24-.57Z"/>
        <path class="cls-5" d="m154.45,128.72v-45.17c0-.28-.03-.55-.08-.82-.05-.25-.12-.49-.2-.72-.02-.05-.03-.1-.05-.15-.05-.12-.11-.24-.17-.35,0,0,0-.02-.01-.03-.13-.24-.29-.48-.47-.69-.09-.11-.18-.21-.28-.31-.2-.2-.41-.37-.64-.53-.37-.25-.79-.45-1.24-.57-.22-.06-.44-.11-.67-.13-.17-.02-.34-.03-.51-.03-.13,0-.26,0-.39.02-.03,0-.07,0-.1.01-.11.01-.23.03-.34.05-.02,0-.03,0-.05,0-.12.03-.25.06-.37.09-.03,0-.06.02-.09.03-.1.03-.2.07-.29.11-.02,0-.05.02-.07.03-.11.05-.22.1-.33.16-.03.01-.05.03-.08.04-.09.05-.18.1-.26.16-.02.02-.05.03-.07.05-.1.07-.2.14-.29.22-.02.02-.04.03-.05.05-.08.07-.15.14-.23.21-.02.02-.04.04-.07.07-.09.09-.17.18-.25.27,0,.01-.02.02-.03.04-.07.08-.13.17-.2.26-.02.03-.04.05-.05.08-.07.1-.13.21-.19.32,0,0,0,0,0,0,0,0,0,.02-.01.03-.06.11-.12.23-.17.35-.07.16-.12.32-.17.48-.04.14-.07.29-.1.44-.04.25-.08.5-.08.76v28.52c-.24-.19-.48-.37-.73-.55t0,0s-.07-.05-.1-.07c0,0,0,0,0,0-.22-.16-.44-.31-.67-.46,0,0-.01,0-.02-.01,0,0-.02-.01-.02-.02-.51-.33-1.02-.64-1.56-.93-.37-.2-.74-.39-1.12-.57,0,0-.02,0-.02-.01-.17-.08-.34-.15-.51-.23-.05-.02-.11-.05-.16-.07-.17-.07-.34-.14-.5-.21,0,0,0,0,0,0-.34-.13-.68-.26-1.03-.37-.09-.03-.18-.06-.26-.09-.14-.05-.28-.09-.43-.13-.11-.03-.22-.06-.34-.1-.13-.04-.26-.07-.39-.11-.22-.06-.45-.11-.68-.16-.11-.02-.22-.05-.32-.07-.16-.03-.31-.06-.47-.09-.11-.02-.21-.04-.32-.06-.19-.03-.38-.06-.58-.09-.07,0-.14-.02-.21-.03-.26-.03-.52-.06-.78-.08-.08,0-.16-.01-.24-.02-.2-.02-.4-.03-.61-.04-.08,0-.16,0-.25-.01-.28-.01-.55-.02-.83-.02s-.55,0-.83.02c-.08,0-.16,0-.25.01-.2.01-.41.02-.61.04-.08,0-.16.01-.24.02-.26.02-.52.05-.78.08-.07,0-.14.02-.21.03-.19.03-.39.06-.58.09-.11.02-.22.04-.32.06-.16.03-.32.06-.47.09-.11.02-.22.04-.32.07-.23.05-.45.11-.68.16-.13.03-.26.07-.39.11-.11.03-.23.06-.34.1-.14.04-.29.09-.43.13-.09.03-.18.06-.26.09-.35.12-.69.24-1.03.37,0,0,0,0,0,0-.17.07-.34.14-.5.21-.05.02-.11.05-.16.07-.17.07-.34.15-.51.23,0,0-.02,0-.02.01-.38.18-.76.37-1.12.57-.53.29-1.05.6-1.56.93,0,0-.02.01-.02.02,0,0-.01,0-.02.01-.23.15-.45.3-.67.46,0,0-.01.01-.02.02-.03.02-.05.04-.08.06t0,0c-.25.18-.49.36-.73.55v-28.52c0-.28-.03-.55-.08-.82-.05-.25-.12-.49-.2-.72-.02-.05-.03-.1-.05-.15-.05-.12-.11-.24-.17-.35,0,0,0-.02-.01-.03-.13-.24-.29-.48-.47-.69-.09-.11-.18-.21-.28-.31-.2-.2-.41-.37-.64-.53-.37-.25-.79-.45-1.24-.57-.22-.06-.44-.11-.67-.13-.17-.02-.34-.03-.51-.03-.13,0-.26,0-.39.02-.03,0-.07,0-.1.01-.11.01-.23.03-.34.05-.02,0-.03,0-.05,0-.12.03-.25.06-.37.09-.03,0-.06.02-.09.03-.1.03-.2.07-.29.11-.02,0-.05.02-.07.03-.11.05-.22.1-.33.16-.03.01-.05.03-.08.04-.09.05-.18.1-.26.16-.02.02-.05.03-.07.05-.1.07-.2.14-.29.22-.02.02-.04.03-.05.05-.08.07-.15.14-.23.21-.02.02-.04.04-.07.07-.09.09-.17.18-.25.27-.01.01-.02.02-.03.04-.07.08-.13.17-.2.26-.02.03-.04.05-.05.08-.07.1-.13.21-.19.32,0,0,0,0,0,0,0,0,0,.02-.01.03-.06.11-.12.23-.17.35-.07.16-.12.32-.17.48-.04.14-.07.29-.1.44-.04.25-.08.5-.08.76v45.17h43.62Z"/>
      </g>
      <path class="cls-3" d="m294.39,0v71.74c0,3.36-2.73,6.09-6.09,6.09h-104.23c-3.08-31.96-30.07-57.04-62.83-57.04s-59.75,25.08-62.83,57.04h-30.09c-2.32-5.14-7.49-8.73-13.5-8.73-8.19,0-14.82,6.64-14.82,14.82s6.64,14.82,14.82,14.82c6.01,0,11.18-3.59,13.5-8.73h30.09c3.07,31.96,30.07,57.04,62.83,57.04s59.75-25.08,62.83-57.04h116.42c3.35,0,6.06-2.7,6.09-6.04V0h-12.18ZM14.82,94.6c-5.89,0-10.68-4.79-10.68-10.68s4.79-10.68,10.68-10.68,10.68,4.79,10.68,10.68-4.79,10.68-10.68,10.68Zm69.55,35.32c-13.47-10.82-22.12-27.41-22.12-46,0-32.53,26.46-58.99,58.99-58.99,12.36,0,23.85,3.83,33.34,10.36l-46.84.05c-13.01.8-23.36,11.64-23.36,24.85v69.73Zm35.82-18.4s0,0,0,0c.03-.02.05-.04.08-.06,0,0,.01,0,.02-.01,0,0,0,0,0,0,.22-.16.44-.31.67-.46,0,0,.01,0,.02-.01,0,0,.01,0,.02-.01,0,0,0,0,0,0,.51-.33,1.02-.64,1.56-.93.37-.2.74-.39,1.12-.57,0,0,.02,0,.02-.01.17-.08.34-.15.51-.23.05-.02.11-.05.16-.07.17-.07.34-.14.5-.21,0,0,0,0,0,0,.34-.13.68-.26,1.03-.37.09-.03.18-.06.26-.09.14-.05.28-.09.43-.13.11-.03.22-.06.34-.1.13-.04.26-.07.39-.11.22-.06.45-.11.68-.16.11-.02.22-.05.32-.07.16-.03.31-.06.47-.09.11-.02.21-.04.32-.06.19-.03.38-.06.58-.09.07,0,.14-.02.21-.03.26-.03.52-.06.78-.08.08,0,.16-.01.24-.02.2-.02.4-.03.61-.04.08,0,.16,0,.25-.01.28-.01.55-.02.83-.02s.55,0,.83.02c.08,0,.16,0,.25.01.2.01.41.02.61.04.08,0,.16.01.24.02.26.02.52.05.78.08.07,0,.14.02.21.03.19.03.39.06.58.09.11.02.22.04.32.06.16.03.32.06.47.09.11.02.22.04.32.07.23.05.45.11.68.16.13.03.26.07.39.11.11.03.23.06.34.1.14.04.29.09.43.13.09.03.18.06.26.09.35.12.69.24,1.03.37,0,0,0,0,0,0,.17.07.34.14.5.21.05.02.11.05.16.07.17.07.34.15.51.23,0,0,.02,0,.02.01.38.18.76.37,1.12.57.53.29,1.05.6,1.56.93,0,0,0,0,0,0,0,0,.01,0,.02.01,0,0,.01,0,.02.01.23.15.45.3.67.46,0,0,0,0,0,0,.03.02.07.05.1.07t0,0c.25.18.49.36.73.55v-28.52c0-.26.03-.51.08-.76,0-.04,0-.08.01-.11.02-.11.05-.22.08-.33.05-.16.1-.33.17-.48.05-.12.11-.24.17-.35,0,0,0-.02.01-.03,0,0,0,0,0,0,.06-.11.12-.21.19-.32.02-.03.04-.05.05-.08.06-.09.13-.18.2-.26,0-.01.02-.02.03-.04.08-.09.16-.18.25-.27.02-.02.04-.04.07-.07.07-.07.15-.14.23-.21.02-.02.04-.03.05-.05.09-.08.19-.15.29-.22.02-.02.05-.03.07-.05.08-.06.17-.11.26-.16.03-.01.05-.03.08-.04.11-.06.22-.11.33-.16.02,0,.05-.02.07-.03.1-.04.19-.08.29-.11.03,0,.06-.02.09-.03.12-.04.24-.07.37-.09.02,0,.03,0,.05,0,.11-.02.22-.04.34-.05.03,0,.07,0,.1-.01.13-.01.26-.02.39-.02.17,0,.34.01.51.03.23.03.45.07.67.13.45.13.86.32,1.24.57.23.16.44.33.64.53.1.1.19.2.28.31.18.21.33.44.47.69,0,0,0,.02.01.03.06.11.12.23.17.35.02.05.03.1.05.15.08.21.15.44.2.67,0,.02,0,.03,0,.05.05.27.08.54.08.82v45.17h-43.62v-45.17c0-.26.03-.51.08-.76,0-.04,0-.08.01-.11.02-.11.05-.22.08-.33.05-.16.1-.33.17-.48.05-.12.11-.24.17-.35,0,0,0-.02.01-.03,0,0,0,0,0,0,.06-.11.12-.21.19-.32.02-.03.04-.05.05-.08.06-.09.13-.18.2-.26,0-.01.02-.02.03-.04.08-.09.16-.18.25-.27.02-.02.04-.04.07-.07.07-.07.15-.14.23-.21.02-.02.04-.03.05-.05.09-.08.19-.15.29-.22.02-.02.05-.03.07-.05.08-.06.17-.11.26-.16.03-.01.05-.03.08-.04.11-.06.22-.11.33-.16.02,0,.05-.02.07-.03.1-.04.19-.08.29-.11.03,0,.06-.02.09-.03.12-.04.24-.07.37-.09.02,0,.03,0,.05,0,.11-.02.22-.04.34-.05.03,0,.07,0,.1-.01.13-.01.26-.02.39-.02.17,0,.34.01.51.03.23.03.45.07.67.13.45.13.86.32,1.24.57.23.16.44.33.64.53.1.1.19.2.28.31.18.21.33.44.47.69,0,0,0,.02.01.03.06.11.12.23.17.35.02.05.03.1.05.15.08.21.15.44.2.67,0,.02,0,.03,0,.05.05.27.08.54.08.82v28.52c.24-.19.48-.37.73-.55Zm2.37-6.4v-20.02h20.14v20.02c-3.08-1.37-6.49-2.13-10.07-2.13s-6.99.76-10.07,2.13Zm27.56-28.99c-3.56,0-6.54,2.52-7.25,5.87h-20.47c-.71-3.35-3.69-5.87-7.25-5.87-1.61,0-3.1.52-4.32,1.4v-39.15h43.62v39.15s0,0,0,0c0,0,0,0,0,0-1.22-.88-2.71-1.4-4.32-1.4Zm-51.34-15.94c0,5.26,3.89,9.63,8.94,10.38v58.15h-20.26V60.19c0-11.51,8.96-20.96,20.26-21.76v11.38c-5.05.75-8.94,5.12-8.94,10.38Zm8.94-7.23v14.47c-3.34-.71-5.85-3.68-5.85-7.23s2.51-6.52,5.85-7.23Zm13.51,89.95c-12.82,0-24.68-4.12-34.37-11.09h68.73c-9.69,6.97-21.55,11.09-34.37,11.09Zm36.31-12.55V37.48c13.79,10.81,22.68,27.6,22.68,46.44s-8.89,35.63-22.68,46.44Z"/>
    </g>
  </g>
</svg>