<?xml version="1.0" encoding="UTF-8"?>
<svg id="Layer_2" data-name="Layer 2" xmlns="http://www.w3.org/2000/svg" width="370.34" height="177.63" viewBox="0 0 370.34 177.63">
  <defs>
    <style>
      .cls-1 {
        fill: #93b4ab;
      }

      .cls-2 {
        fill: #779dc1;
      }

      .cls-3 {
        fill: #444144;
      }

      .cls-4 {
        fill: #c19c94;
      }

      .cls-5 {
        fill: #f7faf9;
      }

      .cls-6 {
        fill: #fbedda;
      }
    </style>
  </defs>
  <g id="Landing_-_Hero" data-name="Landing - Hero">
    <g>
      <g>
        <path class="cls-6" d="m176.24,99.88s0,.09-.01.14c.03-.18.07-.36.12-.53-.04.13-.07.26-.1.4Z"/>
        <path class="cls-6" d="m144.22,99.88c-.06-.28-.14-.54-.24-.8.11.28.19.57.25.87,0-.02,0-.04,0-.06Z"/>
        <path class="cls-6" d="m101.93,156.94v-84.23c0-15.96,12.5-29.05,28.22-30.02l56.59-.06c-11.47-7.88-25.34-12.51-40.27-12.51-39.29,0-71.26,31.97-71.26,71.26,0,22.45,10.45,42.5,26.72,55.57Z"/>
        <path class="cls-6" d="m186.47,99.88c-.06-.28-.14-.54-.24-.8.11.28.19.57.25.87,0-.02,0-.04,0-.06Z"/>
        <path class="cls-6" d="m133.99,99.88s0,.09-.01.14c.03-.18.07-.36.12-.53-.04.13-.07.26-.1.4Z"/>
        <polygon class="cls-6" points="186.58 93.66 186.58 93.66 186.58 93.66 186.58 93.66"/>
        <path class="cls-6" d="m190.32,45.28v112.2c16.66-13.05,27.4-33.34,27.4-56.1s-10.74-43.04-27.4-56.1Z"/>
        <path class="cls-6" d="m104.95,159.23c11.7,8.42,26.03,13.4,41.51,13.4s29.81-4.98,41.51-13.4h-83.03Z"/>
        <path class="cls-2" d="m130.14,46.43c-13.66.96-24.48,12.38-24.48,26.28v82.78h24.48v-70.25c-6.11-.91-10.8-6.18-10.8-12.53s4.7-11.63,10.8-12.53v-13.75Z"/>
        <path class="cls-5" d="m130.14,81.45v-17.47c-4.03.86-7.07,4.45-7.07,8.74s3.03,7.88,7.07,8.74Z"/>
        <path class="cls-4" d="m174.28,134.05s0,0,0,0c0,0,.02.01.03.02,0,0-.02-.01-.03-.02Z"/>
        <path class="cls-4" d="m146.18,134.05s-.02.01-.03.02c0,0,.02-.01.03-.02,0,0,0,0,0,0Z"/>
        <path class="cls-4" d="m145.32,134.64s-.02.01-.02.02c0,0,.02-.01.03-.02,0,0,0,0,0,0Z"/>
        <path class="cls-4" d="m172.4,126.99v-24.19h-24.33v24.19c3.72-1.65,7.84-2.58,12.17-2.58s8.45.92,12.17,2.58Z"/>
        <path class="cls-1" d="m186.58,46.36h-52.7v47.29c1.47-1.06,3.27-1.69,5.22-1.69,4.3,0,7.9,3.04,8.76,7.09h24.73c.86-4.05,4.46-7.09,8.76-7.09,1.95,0,3.75.63,5.22,1.69v-47.29Z"/>
        <path class="cls-1" d="m182.78,95.91c.54.15,1.04.38,1.5.69-.45-.31-.96-.54-1.5-.69Z"/>
        <path class="cls-5" d="m186.58,155.5v-54.57c0-.34-.04-.67-.1-.99-.06-.3-.14-.59-.25-.87-.02-.06-.04-.12-.06-.18-.06-.15-.13-.29-.2-.42,0-.01,0-.02-.02-.03-.16-.3-.35-.57-.56-.83-.11-.13-.22-.25-.34-.37-.24-.24-.49-.45-.77-.64-.45-.31-.96-.54-1.5-.69-.26-.07-.53-.13-.81-.16-.2-.02-.41-.04-.61-.04-.16,0-.32,0-.48.02-.04,0-.08,0-.12.01-.14.02-.27.04-.41.06-.02,0-.04,0-.06.01-.15.03-.3.07-.44.11-.04.01-.07.02-.11.04-.12.04-.24.08-.36.13-.03.01-.05.02-.08.03-.14.06-.27.12-.4.19-.03.02-.06.03-.09.05-.11.06-.21.12-.31.19-.03.02-.06.04-.09.06-.12.08-.24.17-.35.26-.02.02-.04.04-.07.06-.09.08-.19.16-.27.25-.03.03-.05.05-.08.08-.1.11-.2.21-.3.33-.01.01-.02.03-.03.04-.08.1-.16.21-.24.32-.02.03-.04.06-.07.1-.08.12-.16.25-.23.38,0,0,0,0,0,0,0,.01,0,.02-.02.03-.07.14-.14.28-.2.42-.08.19-.14.38-.2.58-.05.17-.08.35-.12.53-.05.3-.09.6-.09.92v34.45c-.29-.23-.58-.45-.88-.66t0,0s-.08-.06-.12-.08c0,0,0,0,0,0-.26-.19-.53-.37-.8-.55,0,0-.02,0-.02-.01,0,0-.02-.01-.03-.02-.61-.4-1.24-.77-1.88-1.12-.44-.24-.9-.47-1.36-.68-.01,0-.02,0-.03-.01-.2-.09-.41-.19-.61-.27-.07-.03-.13-.06-.2-.08-.2-.09-.4-.17-.61-.25,0,0,0,0,0,0-.41-.16-.82-.31-1.24-.45-.11-.04-.21-.07-.32-.11-.17-.05-.34-.11-.52-.16-.14-.04-.27-.08-.41-.12-.16-.04-.32-.09-.48-.13-.27-.07-.54-.14-.82-.2-.13-.03-.26-.05-.39-.08-.19-.04-.38-.08-.57-.11-.13-.02-.26-.05-.39-.07-.23-.04-.46-.07-.7-.11-.08-.01-.17-.03-.25-.04-.31-.04-.63-.07-.95-.1-.1,0-.2-.02-.29-.02-.24-.02-.49-.04-.73-.05-.1,0-.2-.01-.3-.01-.33-.01-.67-.02-1-.02s-.67,0-1,.02c-.1,0-.2,0-.3.01-.25.01-.49.03-.73.05-.1,0-.2.01-.29.02-.32.03-.63.06-.95.1-.08.01-.17.02-.25.04-.23.03-.47.07-.7.11-.13.02-.26.04-.39.07-.19.03-.38.07-.57.11-.13.03-.26.05-.39.08-.27.06-.55.13-.82.2-.16.04-.32.09-.48.13-.14.04-.27.08-.41.12-.17.05-.35.1-.52.16-.11.03-.21.07-.32.11-.42.14-.83.29-1.24.45,0,0,0,0,0,0-.2.08-.41.16-.61.25-.07.03-.13.06-.2.08-.21.09-.41.18-.61.27-.01,0-.02,0-.03.01-.46.21-.91.44-1.36.68-.64.35-1.27.72-1.88,1.12,0,0-.02.01-.03.02,0,0-.02,0-.02.01-.27.18-.54.36-.8.55,0,0-.02.01-.03.02-.03.02-.06.04-.1.07t0,0c-.3.21-.59.44-.88.66v-34.45c0-.34-.04-.67-.1-.99-.06-.3-.14-.59-.25-.87-.02-.06-.04-.12-.06-.18-.06-.15-.13-.29-.2-.42,0-.01,0-.02-.02-.03-.16-.3-.35-.57-.56-.83-.11-.13-.22-.25-.34-.37-.24-.24-.49-.45-.77-.64-.45-.31-.96-.54-1.5-.69-.26-.07-.53-.13-.81-.16-.2-.02-.41-.04-.61-.04-.16,0-.32,0-.48.02-.04,0-.08,0-.12.01-.14.02-.27.04-.41.06-.02,0-.04,0-.06.01-.15.03-.3.07-.44.11-.04.01-.07.02-.11.04-.12.04-.24.08-.36.13-.03.01-.05.02-.08.03-.14.06-.27.12-.4.19-.03.02-.06.03-.09.05-.11.06-.21.12-.31.19-.03.02-.06.04-.09.06-.12.08-.24.17-.35.26-.02.02-.04.04-.07.06-.09.08-.19.16-.27.25-.03.03-.05.05-.08.08-.1.11-.2.21-.3.33-.01.01-.02.03-.03.04-.08.1-.16.21-.24.32-.02.03-.04.06-.07.1-.08.12-.16.25-.23.38,0,0,0,0,0,0,0,.01,0,.02-.02.03-.07.14-.14.28-.2.42-.08.19-.14.38-.2.58-.05.17-.08.35-.12.53-.05.3-.09.6-.09.92v54.57h52.7Z"/>
      </g>
      <path class="cls-3" d="m355.63,0v86.66c0,4.06-3.29,7.36-7.36,7.36h-125.91c-3.71-38.61-36.33-68.9-75.9-68.9s-72.18,30.29-75.89,68.9h-36.35c-2.81-6.21-9.05-10.55-16.31-10.55-9.89,0-17.9,8.02-17.9,17.9s8.02,17.9,17.9,17.9c7.26,0,13.5-4.33,16.31-10.55h36.35c3.71,38.61,36.33,68.9,75.9,68.9s72.18-30.29,75.9-68.9h140.63c4.04,0,7.32-3.26,7.35-7.3V0h-14.72ZM17.9,114.28c-7.12,0-12.9-5.79-12.9-12.9s5.79-12.9,12.9-12.9,12.9,5.79,12.9,12.9-5.79,12.9-12.9,12.9Zm84.02,42.67c-16.28-13.07-26.72-33.12-26.72-55.57,0-39.29,31.97-71.26,71.26-71.26,14.94,0,28.81,4.63,40.27,12.51l-56.59.06c-15.72.97-28.22,14.06-28.22,30.02v84.23Zm43.28-22.22s0,0,0,0c.03-.02.06-.05.1-.07,0,0,.02-.01.02-.02,0,0,0,0,0,0,.26-.19.53-.37.8-.55,0,0,.02,0,.02-.01,0,0,.02-.01.03-.02,0,0,0,0,0,0,.61-.4,1.24-.77,1.88-1.12.44-.24.9-.47,1.36-.68.01,0,.02,0,.03-.01.2-.09.41-.19.61-.27.07-.03.13-.06.2-.08.2-.09.4-.17.61-.25,0,0,0,0,0,0,.41-.16.82-.31,1.24-.45.11-.04.21-.07.32-.11.17-.05.34-.11.52-.16.14-.04.27-.08.41-.12.16-.04.32-.09.48-.13.27-.07.54-.14.82-.2.13-.03.26-.05.39-.08.19-.04.38-.08.57-.11.13-.02.26-.05.39-.07.23-.04.46-.07.7-.11.08-.01.17-.03.25-.04.31-.04.63-.07.95-.1.1,0,.2-.02.29-.02.24-.02.49-.04.73-.05.1,0,.2-.01.3-.01.33-.01.67-.02,1-.02s.67,0,1,.02c.1,0,.2,0,.3.01.25.01.49.03.73.05.1,0,.2.01.29.02.32.03.63.06.95.1.08.01.17.02.25.04.23.03.47.07.7.11.13.02.26.04.39.07.19.03.38.07.57.11.13.03.26.05.39.08.27.06.55.13.82.2.16.04.32.09.48.13.14.04.27.08.41.12.17.05.35.1.52.16.11.03.21.07.32.11.42.14.83.29,1.24.45,0,0,0,0,0,0,.2.08.41.16.61.25.07.03.13.06.2.08.21.09.41.18.61.27.01,0,.02,0,.03.01.46.21.91.44,1.36.68.64.35,1.27.72,1.88,1.12,0,0,0,0,0,0,0,0,.02.01.03.02,0,0,.02,0,.02.01.27.18.54.36.8.55,0,0,0,0,0,0,.04.03.08.06.12.08t0,0c.3.21.59.44.88.66v-34.45c0-.31.04-.62.09-.92,0-.04,0-.09.01-.14.03-.14.06-.27.1-.4.06-.2.12-.39.2-.58.06-.15.13-.29.2-.42,0-.01,0-.02.02-.03,0,0,0,0,0,0,.07-.13.15-.26.23-.38.02-.03.04-.07.07-.1.08-.11.15-.21.24-.32.01-.01.02-.03.03-.04.09-.11.19-.22.3-.33.03-.03.05-.05.08-.08.09-.09.18-.17.27-.25.02-.02.04-.04.07-.06.11-.09.23-.18.35-.26.03-.02.06-.04.09-.06.1-.07.21-.13.31-.19.03-.02.06-.03.09-.05.13-.07.26-.13.4-.19.03-.01.05-.02.08-.03.12-.05.23-.09.36-.13.04-.01.07-.02.11-.04.15-.04.29-.08.44-.11.02,0,.04,0,.06-.01.13-.03.27-.05.41-.06.04,0,.08,0,.12-.01.16-.01.32-.02.48-.02.21,0,.41.02.61.04.28.03.55.09.81.16.54.15,1.04.38,1.5.69.28.19.54.4.77.64.12.12.23.24.34.37.21.26.4.54.56.83,0,.01,0,.02.02.03.07.14.14.28.2.42.02.06.04.12.06.18.1.26.18.53.24.8,0,.02,0,.04,0,.06.06.32.1.65.1.99v54.57h-52.7v-54.57c0-.31.04-.62.09-.92,0-.04,0-.09.01-.14.03-.14.06-.27.1-.4.06-.2.12-.39.2-.58.06-.15.13-.29.2-.42,0-.01,0-.02.02-.03,0,0,0,0,0,0,.07-.13.15-.26.23-.38.02-.03.04-.07.07-.1.08-.11.15-.21.24-.32.01-.01.02-.03.03-.04.09-.11.19-.22.3-.33.03-.03.05-.05.08-.08.09-.09.18-.17.27-.25.02-.02.04-.04.07-.06.11-.09.23-.18.35-.26.03-.02.06-.04.09-.06.1-.07.21-.13.31-.19.03-.02.06-.03.09-.05.13-.07.26-.13.4-.19.03-.01.05-.02.08-.03.12-.05.23-.09.36-.13.04-.01.07-.02.11-.04.15-.04.29-.08.44-.11.02,0,.04,0,.06-.01.13-.03.27-.05.41-.06.04,0,.08,0,.12-.01.16-.01.32-.02.48-.02.21,0,.41.02.61.04.28.03.55.09.81.16.54.15,1.04.38,1.5.69.28.19.54.4.77.64.12.12.23.24.34.37.21.26.4.54.56.83,0,.01,0,.02.02.03.07.14.14.28.2.42.02.06.04.12.06.18.1.26.18.53.24.8,0,.02,0,.04,0,.06.06.32.1.65.1.99v34.45c.29-.23.58-.45.88-.66Zm2.86-7.73v-24.19h24.33v24.19c-3.72-1.65-7.84-2.58-12.17-2.58s-8.45.92-12.17,2.58Zm33.29-35.02c-4.3,0-7.9,3.04-8.76,7.09h-24.73c-.86-4.05-4.46-7.09-8.76-7.09-1.95,0-3.75.63-5.22,1.69v-47.29h52.7v47.29s0,0,0,0c0,0,0,0,0,0-1.47-1.06-3.27-1.69-5.22-1.69Zm-62.02-19.26c0,6.35,4.7,11.63,10.8,12.53v70.25h-24.48v-82.78c0-13.9,10.82-25.32,24.48-26.28v13.75c-6.11.91-10.8,6.18-10.8,12.53Zm10.8-8.74v17.47c-4.03-.86-7.07-4.45-7.07-8.74s3.03-7.88,7.07-8.74Zm16.31,108.66c-15.48,0-29.81-4.98-41.51-13.4h83.03c-11.7,8.42-26.03,13.4-41.51,13.4Zm43.86-15.16V45.28c16.66,13.05,27.4,33.34,27.4,56.1s-10.74,43.04-27.4,56.1Z"/>
    </g>
  </g>
</svg>