<?xml version="1.0" encoding="UTF-8"?>
<?xml-stylesheet type="text/css" href="../styles.css" ?>
<svg class="--svg-object" id="logo_svg" data-name="Layer 2" xmlns="http://www.w3.org/2000/svg" viewBox="0 0 284.49 101.56">
  <defs>
    <style>
      .cls-1 {
        fill: #93b4ab;
      }

      .cls-2 {
        fill: #e27e72;
      }

      .cls-3 {
        fill: #6873ba;
      }

      .cls-4 {
        fill: #444144;
      }

      .cls-5 {
        fill: #f7faf9;
      }
    </style>
  </defs>
  <g id="Hero">
    <g>
      <g>
        <rect class="cls-5" width="108.17" height="101.56" rx="3.35" ry="3.35"/>
        <g>
          <polygon class="cls-1" points="83.12 6.71 83.12 76.51 63.26 76.51 63.26 50.78 44.91 50.78 44.91 76.51 25.05 76.51 25.05 6.71 6.71 6.71 6.71 94.86 101.47 94.86 101.47 6.71 83.12 6.71"/>
          <polygon class="cls-3" points="44.91 76.51 44.91 50.78 63.26 50.78 63.26 76.51 83.12 76.51 83.12 28.74 25.05 28.74 25.05 76.51 44.91 76.51"/>
        </g>
        <path class="cls-2" d="m54.09,11.42c-9.57,0-17.33,7.76-17.33,17.33h34.66c0-9.57-7.76-17.33-17.33-17.33Z"/>
        <path class="cls-2" d="m54.09,46.07c9.57,0,17.33-7.76,17.33-17.33h-34.66c0,9.57,7.76,17.33,17.33,17.33Z"/>
      </g>
      <g>
        <path class="cls-1" d="m132.22,85.99c-.48,0-.85-.14-1.13-.42-.28-.28-.45-.6-.5-.96l-4.57-26.77c-.03-.06-.04-.11-.04-.17v-.13c0-.22.09-.43.27-.61.18-.18.38-.27.61-.27h5.19c.78,0,1.21.31,1.3.92l2.72,16.38,3.02-9.68c.08-.22.22-.47.42-.73.19-.27.52-.4.96-.4h3.02c.47,0,.81.13,1,.4.2.27.32.51.38.73l3.02,9.63,2.72-16.34c.08-.61.52-.92,1.3-.92h5.19c.25,0,.46.09.63.27.17.18.25.38.25.61v.29l-4.57,26.77c-.06.36-.22.68-.5.96-.28.28-.66.42-1.13.42h-3.98c-.48,0-.84-.13-1.09-.38-.25-.25-.42-.49-.5-.71l-4.23-11.98-4.23,11.98c-.08.22-.25.46-.48.71-.24.25-.59.38-1.07.38h-3.98Z"/>
        <path class="cls-4" d="m166.66,86.41c-1.51,0-2.86-.29-4.04-.86-1.19-.57-2.13-1.35-2.83-2.32-.7-.98-1.05-2.08-1.05-3.31,0-1.98.81-3.55,2.43-4.71,1.62-1.16,3.77-1.95,6.45-2.37l5.24-.8v-.59c0-1.01-.21-1.77-.63-2.3-.42-.53-1.19-.8-2.3-.8-.78,0-1.42.15-1.91.46-.49.31-.87.73-1.15,1.26-.25.36-.6.54-1.05.54h-4.69c-.31,0-.54-.09-.71-.27-.17-.18-.24-.4-.21-.65,0-.5.19-1.08.57-1.74.38-.66.96-1.31,1.74-1.95.78-.64,1.79-1.17,3.02-1.59s2.71-.63,4.44-.63,3.37.21,4.65.63c1.28.42,2.32,1.01,3.12,1.76s1.39,1.64,1.78,2.66c.39,1.02.59,2.14.59,3.37v12.73c0,.31-.1.56-.31.75-.21.2-.45.29-.73.29h-4.86c-.31,0-.56-.1-.75-.29-.2-.19-.29-.45-.29-.75v-1.47c-.36.53-.85,1.02-1.47,1.47-.61.45-1.33.8-2.16,1.07-.82.27-1.78.4-2.87.4Zm1.97-4.78c.81,0,1.54-.17,2.2-.52.66-.35,1.17-.89,1.55-1.63.38-.74.57-1.67.57-2.79v-.59l-3.56.63c-1.31.22-2.27.57-2.87,1.03s-.9,1-.9,1.61c0,.48.14.88.42,1.21s.64.59,1.09.77c.45.18.95.27,1.51.27Z"/>
        <path class="cls-4" d="m185.18,85.99c-.31,0-.56-.1-.75-.29-.2-.19-.29-.45-.29-.75v-19.69c0-.28.1-.52.29-.73s.45-.31.75-.31h4.82c.31,0,.56.1.75.31s.29.45.29.73v1.68c.75-.87,1.65-1.54,2.7-2.01,1.05-.47,2.23-.71,3.54-.71h1.84c.28,0,.52.1.73.29.21.2.31.45.31.75v4.31c0,.28-.1.52-.31.73-.21.21-.45.31-.73.31h-4.06c-1.15,0-2.03.31-2.66.94-.63.63-.94,1.52-.94,2.66v10.72c0,.31-.11.56-.31.75-.21.2-.47.29-.78.29h-5.19Z"/>
        <path class="cls-4" d="m212.04,86.41c-1.82,0-3.36-.2-4.63-.61s-2.3-.9-3.1-1.49-1.39-1.19-1.78-1.82c-.39-.63-.6-1.17-.63-1.61-.03-.31.07-.57.29-.78s.46-.31.71-.31h4.78c.08,0,.15.01.21.04.06.03.14.08.25.17.36.2.73.44,1.09.73.36.29.78.55,1.26.77.47.22,1.05.34,1.72.34.78,0,1.44-.15,1.97-.46.53-.31.8-.77.8-1.38,0-.45-.13-.82-.38-1.11-.25-.29-.76-.58-1.53-.86-.77-.28-1.92-.56-3.46-.84-1.45-.33-2.72-.77-3.81-1.32-1.09-.54-1.93-1.26-2.51-2.14-.59-.88-.88-1.95-.88-3.2,0-1.12.36-2.19,1.09-3.23.73-1.03,1.79-1.88,3.18-2.53,1.4-.66,3.11-.98,5.15-.98,1.62,0,3.02.19,4.21.57,1.19.38,2.19.86,3.02,1.45.82.59,1.45,1.19,1.86,1.8.42.61.64,1.17.67,1.68.03.28-.06.52-.25.73s-.42.31-.67.31h-4.36c-.11,0-.22-.02-.33-.06-.11-.04-.21-.09-.29-.15-.33-.17-.67-.39-1-.67-.33-.28-.73-.53-1.17-.75-.45-.22-1.01-.33-1.68-.33-.75,0-1.34.17-1.76.5-.42.33-.63.77-.63,1.3,0,.36.12.7.36,1.01.24.31.73.59,1.47.84.74.25,1.89.53,3.46.84,1.93.31,3.46.8,4.61,1.49,1.14.68,1.96,1.48,2.43,2.39.47.91.71,1.86.71,2.87,0,1.34-.4,2.53-1.19,3.56-.8,1.03-1.98,1.84-3.54,2.41-1.56.57-3.46.86-5.7.86Z"/>
        <path class="cls-2" d="m226.5,61.07c-.31,0-.56-.1-.75-.29-.2-.19-.29-.45-.29-.75v-3.73c0-.31.1-.57.29-.77s.45-.31.75-.31h4.99c.31,0,.57.1.77.31.21.21.31.47.31.77v3.73c0,.31-.1.56-.31.75-.21.2-.47.29-.77.29h-4.99Z"/>
        <path class="cls-4" d="m226.54,85.99c-.31,0-.56-.1-.75-.29-.2-.19-.29-.45-.29-.75v-19.69c0-.31.1-.56.29-.75.2-.19.45-.29.75-.29h4.94c.28,0,.52.1.73.29.21.2.31.45.31.75v19.69c0,.31-.1.56-.31.75-.21.2-.46.29-.73.29h-4.94Z"/>
        <path class="cls-4" d="m237.69,85.99c-.31,0-.56-.1-.75-.29-.2-.19-.29-.45-.29-.75v-19.69c0-.31.1-.56.29-.75.2-.19.45-.29.75-.29h4.82c.31,0,.56.1.75.29.2.2.29.45.29.75v1.59c.73-.87,1.67-1.59,2.85-2.18s2.56-.88,4.15-.88,3.05.36,4.29,1.09c1.24.73,2.22,1.79,2.93,3.2.71,1.41,1.07,3.14,1.07,5.17v11.69c0,.31-.1.56-.31.75-.21.2-.45.29-.73.29h-5.28c-.28,0-.52-.1-.73-.29-.21-.19-.31-.45-.31-.75v-11.44c0-1.31-.31-2.32-.94-3.04-.63-.71-1.56-1.07-2.79-1.07-1.15,0-2.06.36-2.74,1.07-.68.71-1.03,1.72-1.03,3.04v11.44c0,.31-.11.56-.31.75-.21.2-.45.29-.73.29h-5.24Z"/>
        <path class="cls-4" d="m273.55,95.21c-2.15,0-3.93-.28-5.34-.84-1.41-.56-2.53-1.23-3.35-2.01-.82-.78-1.42-1.56-1.78-2.32-.36-.77-.56-1.38-.59-1.82-.03-.31.07-.56.29-.75.22-.2.49-.29.8-.29h5.32c.25,0,.47.06.65.19.18.13.33.34.44.65.14.31.33.63.57.96s.57.61,1.01.82c.43.21,1.03.31,1.78.31.84,0,1.54-.13,2.09-.4.56-.27.98-.7,1.26-1.3.28-.6.42-1.4.42-2.41v-2.81c-.64.7-1.47,1.26-2.47,1.7-1,.43-2.22.65-3.64.65s-2.68-.21-3.77-.63c-1.09-.42-2-1.05-2.72-1.88-.73-.84-1.29-1.86-1.7-3.06-.4-1.2-.65-2.58-.73-4.15-.03-.73-.03-1.45,0-2.18.08-1.51.32-2.86.71-4.06.39-1.2.96-2.23,1.7-3.1s1.66-1.53,2.74-1.99c1.09-.46,2.35-.69,3.77-.69,1.51,0,2.8.29,3.87.86,1.08.57,1.96,1.29,2.66,2.16v-1.55c0-.28.1-.52.29-.73s.45-.31.75-.31h4.82c.31,0,.57.1.77.31.21.21.31.45.31.73v20.15c0,2.12-.43,3.91-1.3,5.36-.87,1.45-2.11,2.56-3.73,3.31-1.62.75-3.59,1.13-5.91,1.13Zm-.29-15.12c.89,0,1.62-.2,2.18-.59.56-.39.97-.89,1.24-1.51.26-.61.41-1.27.44-1.97.03-.31.04-.74.04-1.3s-.01-.98-.04-1.26c-.03-.73-.17-1.4-.44-2.01-.27-.61-.68-1.11-1.24-1.49s-1.28-.57-2.18-.57-1.65.2-2.2.59c-.54.39-.94.92-1.17,1.59-.24.67-.38,1.41-.44,2.22-.03.61-.03,1.24,0,1.88.06.81.2,1.55.44,2.22.24.67.63,1.2,1.17,1.59.54.39,1.28.59,2.2.59Z"/>
      </g>
      <g>
        <path class="cls-3" d="m128.88,43.83c-.22,0-.43-.09-.61-.27-.18-.18-.27-.38-.27-.61,0-.14.01-.26.04-.38l9.84-26.89c.08-.31.26-.58.52-.82s.63-.36,1.11-.36h6.2c.47,0,.84.12,1.11.36s.44.51.52.82l9.8,26.89c.05.11.08.24.08.38,0,.22-.09.43-.27.61-.18.18-.4.27-.65.27h-5.15c-.42,0-.73-.1-.94-.31-.21-.21-.34-.4-.4-.57l-1.63-4.27h-11.18l-1.59,4.27c-.06.17-.18.36-.38.57s-.53.31-1,.31h-5.15Zm9.84-11.18h7.79l-3.94-11.06-3.85,11.06Z"/>
        <path class="cls-4" d="m167.59,44.25c-1.34,0-2.55-.22-3.62-.65-1.08-.43-2-1.07-2.77-1.93-.77-.85-1.36-1.89-1.78-3.1-.42-1.21-.66-2.6-.71-4.17-.03-.56-.04-1.05-.04-1.49s.01-.91.04-1.45c.06-1.51.29-2.86.71-4.06.42-1.2,1-2.23,1.76-3.1.75-.87,1.67-1.53,2.76-1.99,1.09-.46,2.3-.69,3.64-.69s2.6.23,3.6.69c1,.46,1.86,1.05,2.55,1.78v-8.96c0-.31.1-.56.29-.75.2-.19.45-.29.75-.29h5.11c.28,0,.52.1.73.29.21.2.31.45.31.75v27.65c0,.31-.11.56-.31.75-.21.2-.46.29-.73.29h-4.73c-.31,0-.56-.1-.75-.29-.2-.19-.29-.45-.29-.75v-1.34c-.67.81-1.54,1.48-2.6,2.01s-2.37.8-3.94.8Zm2.26-5.61c.95,0,1.7-.2,2.24-.61.54-.4.95-.93,1.21-1.57.26-.64.41-1.34.44-2.09.03-.56.04-1.09.04-1.59s-.01-1.02-.04-1.55c-.03-.7-.18-1.35-.46-1.95-.28-.6-.7-1.09-1.26-1.47s-1.28-.57-2.18-.57-1.65.2-2.2.59c-.54.39-.93.92-1.15,1.59-.22.67-.36,1.41-.42,2.22-.08.87-.08,1.73,0,2.6.05.81.2,1.55.42,2.22.22.67.61,1.2,1.15,1.59.54.39,1.28.59,2.2.59Z"/>
        <path class="cls-4" d="m191.79,44.25c-1.51,0-2.86-.29-4.04-.86-1.19-.57-2.13-1.35-2.83-2.32s-1.05-2.08-1.05-3.31c0-1.98.81-3.55,2.43-4.71,1.62-1.16,3.77-1.95,6.45-2.37l5.24-.8v-.59c0-1.01-.21-1.77-.63-2.3-.42-.53-1.19-.8-2.3-.8-.78,0-1.42.15-1.9.46-.49.31-.87.73-1.15,1.26-.25.36-.6.54-1.05.54h-4.69c-.31,0-.54-.09-.71-.27-.17-.18-.24-.4-.21-.65,0-.5.19-1.08.56-1.74.38-.66.96-1.31,1.74-1.95.78-.64,1.79-1.17,3.02-1.59s2.71-.63,4.44-.63,3.37.21,4.65.63c1.28.42,2.32,1.01,3.12,1.76.8.75,1.39,1.64,1.78,2.66.39,1.02.59,2.14.59,3.37v12.73c0,.31-.1.56-.31.75-.21.2-.45.29-.73.29h-4.86c-.31,0-.56-.1-.75-.29-.2-.19-.29-.45-.29-.75v-1.47c-.36.53-.85,1.02-1.47,1.47-.61.45-1.33.8-2.16,1.07-.82.27-1.78.4-2.87.4Zm1.97-4.78c.81,0,1.54-.17,2.2-.52.65-.35,1.17-.89,1.55-1.63.38-.74.57-1.67.57-2.79v-.59l-3.56.63c-1.31.22-2.27.57-2.87,1.03-.6.46-.9,1-.9,1.61,0,.48.14.88.42,1.21s.64.59,1.09.77c.45.18.95.27,1.51.27Z"/>
        <path class="cls-4" d="m210.31,43.83c-.31,0-.56-.1-.75-.29-.2-.19-.29-.45-.29-.75v-19.69c0-.31.1-.56.29-.75.2-.19.45-.29.75-.29h4.57c.31,0,.56.1.75.29.2.2.29.45.29.75v1.42c.56-.75,1.34-1.42,2.35-1.99,1.01-.57,2.19-.87,3.56-.9,3.21-.06,5.42,1.16,6.62,3.64.64-1.06,1.56-1.93,2.77-2.62,1.2-.68,2.51-1.03,3.94-1.03s2.76.33,3.92.98c1.16.66,2.09,1.66,2.79,3.02.7,1.35,1.05,3.11,1.05,5.26v11.9c0,.31-.11.56-.31.75-.21.2-.46.29-.73.29h-4.86c-.31,0-.57-.1-.78-.29-.21-.19-.31-.45-.31-.75v-11.6c0-.98-.14-1.75-.42-2.32-.28-.57-.66-.98-1.13-1.24s-1.02-.38-1.63-.38c-.5,0-1,.13-1.49.38s-.88.66-1.17,1.24c-.29.57-.44,1.35-.44,2.32v11.6c0,.31-.1.56-.29.75-.2.2-.45.29-.75.29h-4.86c-.31,0-.56-.1-.75-.29-.2-.19-.29-.45-.29-.75v-11.6c0-.98-.15-1.75-.46-2.32-.31-.57-.7-.98-1.17-1.24s-1.01-.38-1.59-.38c-.5,0-1,.13-1.49.38-.49.25-.88.66-1.17,1.24-.29.57-.44,1.33-.44,2.28v11.65c0,.31-.11.56-.31.75-.21.2-.47.29-.78.29h-4.94Z"/>
      </g>
    </g>
  </g>
</svg>