<?xml version="1.0" encoding="UTF-8"?>
<svg id="pagination" data-name="pagination" xmlns="http://www.w3.org/2000/svg" width="176.97" height="642.65" viewBox="0 0 176.97 642.65">
  <defs>
    <style>
      .uuid-6ef485f0-8c5e-49d1-a721-248fa2ff198f {
        fill: #fbedda;
      }

      .uuid-6ef485f0-8c5e-49d1-a721-248fa2ff198f, .uuid-e71c38e3-5001-4dde-bdd5-f9d5cfaf689a, .uuid-41ec5e7f-c367-4250-8dd1-918a12a7a903, .uuid-64162214-af80-4eb5-8ed8-7f422ca71419 {
        stroke: #444144;
        stroke-miterlimit: 10;
        stroke-width: 1.61px;
      }

      .uuid-e71c38e3-5001-4dde-bdd5-f9d5cfaf689a {
        fill: #f4ac45;
      }

      .uuid-41ec5e7f-c367-4250-8dd1-918a12a7a903 {
        fill: none;
      }

      .uuid-64162214-af80-4eb5-8ed8-7f422ca71419 {
        fill: #f7dcba;
      }
    </style>
  </defs>
  <g id="uuid-620ce030-211e-4b5e-8e7a-a1975a1d5043" data-name="Landing - Hero">
    <g>
      <path class="uuid-41ec5e7f-c367-4250-8dd1-918a12a7a903" d="m88.48,591.63c-116.9,0-116.9-157.53,0-157.53-116.9,0-116.9-157.53,0-157.53-116.9,0-116.9-157.53,0-157.53"/>
      <g>
        <g class="pagination-button pagination-1">
          <circle class="uuid-e71c38e3-5001-4dde-bdd5-f9d5cfaf689a" cx="88.48" cy="88.48" r="87.68"/>
          <circle class="uuid-e71c38e3-5001-4dde-bdd5-f9d5cfaf689a" cx="88.48" cy="88.48" r="77.78" transform="translate(-27.13 40.6) rotate(-22.5)"/>
          <g>
            <rect class="uuid-6ef485f0-8c5e-49d1-a721-248fa2ff198f" x="80.07" y="43.24" width="29.68" height="90.48" transform="translate(189.83 176.97) rotate(180)"/>
            <rect class="uuid-6ef485f0-8c5e-49d1-a721-248fa2ff198f" x="73.64" y="36.81" width="29.68" height="42.55" transform="translate(146.57 -30.4) rotate(90)"/>
          </g>
        </g>
        <g class="pagination-button pagination-2">
          <circle class="uuid-64162214-af80-4eb5-8ed8-7f422ca71419" cx="88.48" cy="434.1" r="50.21"/>
          <g>
            <rect class="uuid-41ec5e7f-c367-4250-8dd1-918a12a7a903" x="70.29" y="447.74" width="17.59" height="13.77"/>
            <rect class="uuid-41ec5e7f-c367-4250-8dd1-918a12a7a903" x="70.29" y="406.7" width="17.59" height="13.77"/>
            <rect class="uuid-41ec5e7f-c367-4250-8dd1-918a12a7a903" x="70.29" y="424.29" width="17.59" height="19.63"/>
            <path class="uuid-41ec5e7f-c367-4250-8dd1-918a12a7a903" d="m88.07,406.7c10.28,0,18.61,8.33,18.61,18.61h0c0,10.28-8.33,18.61-18.61,18.61v-37.22Z"/>
            <path class="uuid-41ec5e7f-c367-4250-8dd1-918a12a7a903" d="m88.07,443.92v17.59c10.28,0,18.61-8.33,18.61-18.61,0-3.18-.8-6.17-2.21-8.79-3.14,5.84-9.3,9.82-16.4,9.82Z"/>
          </g>
        </g>
        <g class="pagination-button pagination-3">
          <circle class="uuid-64162214-af80-4eb5-8ed8-7f422ca71419" cx="88.48" cy="591.63" r="50.21"/>
          <g>
            <rect class="uuid-41ec5e7f-c367-4250-8dd1-918a12a7a903" x="89.07" y="598.59" width="17.59" height="22.28" transform="translate(707.6 511.87) rotate(90)"/>
            <polygon class="uuid-41ec5e7f-c367-4250-8dd1-918a12a7a903" points="67.96 600.72 109 564.74 109 600.72 67.96 600.72"/>
          </g>
        </g>
        <g class="pagination-button pagination-4">
          <circle class="uuid-64162214-af80-4eb5-8ed8-7f422ca71419" cx="88.48" cy="276.57" r="50.21"/>
          <g>
            <rect class="uuid-41ec5e7f-c367-4250-8dd1-918a12a7a903" x="70.31" y="246.82" width="17.59" height="22.28" transform="translate(337.06 178.86) rotate(90)"/>
            <rect class="uuid-41ec5e7f-c367-4250-8dd1-918a12a7a903" x="79.69" y="274.66" width="17.59" height="41.04" transform="translate(383.66 206.7) rotate(90)"/>
            <path class="uuid-41ec5e7f-c367-4250-8dd1-918a12a7a903" d="m70.31,266.45h17.59v22.28h-8.7c-4.91,0-8.89-3.98-8.89-8.89v-13.39h0Z" transform="translate(356.69 198.49) rotate(90)"/>
            <path class="uuid-41ec5e7f-c367-4250-8dd1-918a12a7a903" d="m90.39,249.17c10.28,0,18.61,8.33,18.61,18.61h0c0,10.28-8.33,18.61-18.61,18.61v-37.22Z"/>
          </g>
        </g>
      </g>
    </g>
  </g>
</svg>