<?xml version="1.0" encoding="UTF-8"?>
<svg id="sticky_contact" data-name="sticky_contact" xmlns="http://www.w3.org/2000/svg" width="117.71" height="117.75" viewBox="0 0 117.71 117.75">
  <defs>
    <style>
      .uuid-0b17e1bd-bff3-41df-b723-3c0709da2721 {
        fill: #444144;
      }

      .uuid-5c3f2807-f68a-498e-ac8e-44a7654e5804 {
        fill: #f0f6f9;
      }

      .uuid-87f84759-5c55-4feb-9686-5db8438c955e {
        fill: #12754a;
      }
    </style>
  </defs>
  <g id="uuid-906bbcfc-8030-4eae-b374-a0600b75d51c" data-name="Landing - Skills">
    <g>
      <g id="sticky_contact_outer">
        <g>
          <g>
            <path class="uuid-0b17e1bd-bff3-41df-b723-3c0709da2721" d="m75.09,7.67c-.07-.03-.12-.07-.15-.14-.03-.07-.03-.14,0-.21l2.5-6.89c.03-.07.07-.12.14-.15.07-.03.14-.03.21,0l.98.36c.07.03.12.07.15.14.03.07.03.14,0,.21l-2.13,5.88,3.35,1.22c.08.03.13.08.16.14.03.07.03.14,0,.22l-.27.74c-.03.07-.07.12-.14.15-.07.03-.14.03-.22,0l-4.58-1.67Z"/>
            <path class="uuid-0b17e1bd-bff3-41df-b723-3c0709da2721" d="m86.63,6.54c-.26-.41-.66-.75-1.2-1.02-.49-.25-.96-.36-1.42-.34-.46.02-.88.16-1.27.42-.39.27-.72.64-1,1.13-.04.06-.08.14-.13.24-.05.1-.09.19-.12.26-.36.81-.43,1.53-.21,2.18.22.65.7,1.16,1.45,1.53.37.19.73.31,1.07.35.34.05.64.05.91,0,.27-.05.49-.13.67-.23.18-.1.3-.2.36-.31.04-.06.04-.12.02-.18-.02-.06-.07-.11-.14-.14l-.86-.43c-.07-.04-.13-.06-.18-.06-.04,0-.12.02-.22.07-.06.03-.14.06-.26.1-.12.03-.25.05-.41.04-.16,0-.33-.06-.51-.15-.23-.11-.39-.27-.5-.48-.1-.2-.15-.42-.13-.66.01-.24.08-.48.19-.72,0-.01.02-.04.04-.08l3.33,1.67c.07.04.15.04.22.02s.12-.07.16-.14l.11-.21c.26-.52.4-1.03.41-1.52s-.11-.94-.37-1.35Zm-1.2,1.77l-.02.03-2.22-1.11v-.03c.15-.26.3-.47.48-.62s.38-.24.61-.27c.22-.03.45.01.69.13.23.12.41.27.52.47.11.2.16.42.15.65-.01.24-.08.49-.21.75Z"/>
            <path class="uuid-0b17e1bd-bff3-41df-b723-3c0709da2721" d="m88.3,14.04c-.38-.24-.66-.51-.83-.81-.18-.3-.24-.62-.2-.96.04-.34.18-.71.43-1.1l1.37-2.15-.75-.48c-.06-.04-.1-.1-.12-.17-.02-.07,0-.14.04-.2l.35-.55c.04-.06.1-.1.17-.12s.14,0,.2.04l.75.48,1-1.57c.04-.06.09-.1.16-.12s.14,0,.21.04l.77.49c.06.04.1.1.12.17.02.07,0,.14-.04.2l-1,1.58,1.18.75c.06.04.1.1.12.17.02.07,0,.14-.04.2l-.35.55c-.04.06-.1.1-.17.12s-.14,0-.2-.04l-1.18-.75-1.31,2.06c-.16.26-.25.49-.25.69,0,.2.11.38.34.52l.65.42c.06.04.1.1.12.17.02.07,0,.14-.04.2l-.37.59c-.04.06-.1.1-.17.12s-.14,0-.2-.04l-.77-.49Z"/>
            <path class="uuid-0b17e1bd-bff3-41df-b723-3c0709da2721" d="m93.21,10.79c-.05-.04-.08-.09-.09-.15s.02-.12.07-.17l1.37-1.35c.07-.07.15-.12.24-.14.09-.02.18,0,.27.06l.83.61s.08.08.08.14c0,.06,0,.1-.04.15-.03.04-.07.08-.12.11l-1.68,1.07c-.07.04-.14.07-.22.09s-.16,0-.25-.07l-.46-.34Z"/>
            <path class="uuid-0b17e1bd-bff3-41df-b723-3c0709da2721" d="m93.4,18.03c-.34-.29-.6-.58-.77-.87-.17-.29-.29-.55-.34-.81-.05-.25-.06-.47-.04-.65.03-.18.07-.32.14-.4.05-.07.11-.1.18-.1.07,0,.14.02.19.06l.68.58s.04.04.05.06c.01.02.02.06.02.11.02.13.04.26.07.4.02.14.07.28.15.43.07.15.2.29.37.44.22.19.45.3.67.34.23.04.41-.02.55-.19.1-.12.15-.24.15-.37,0-.13-.07-.3-.19-.51-.12-.21-.32-.49-.59-.83-.26-.35-.44-.67-.55-.96-.11-.29-.15-.57-.11-.83.04-.26.16-.5.36-.73.19-.22.44-.38.74-.47.31-.09.65-.08,1.02,0s.76.31,1.16.64c.31.26.54.53.71.8.16.27.27.53.33.77.05.24.07.46.05.64s-.06.32-.13.41c-.05.07-.11.1-.18.11s-.13-.02-.18-.06l-.63-.54s-.05-.05-.06-.08c-.01-.03-.02-.06-.03-.1-.01-.11-.03-.23-.05-.35s-.06-.26-.13-.4c-.06-.14-.18-.28-.35-.43-.22-.18-.42-.28-.62-.28-.19,0-.35.07-.47.21-.08.1-.13.2-.13.32,0,.12.05.28.16.48.11.2.31.48.58.84.32.39.54.75.65,1.08.11.33.14.62.09.87-.05.25-.17.49-.35.7-.22.26-.49.42-.82.5-.33.08-.69.05-1.08-.08-.39-.13-.81-.38-1.24-.75Z"/>
            <path class="uuid-0b17e1bd-bff3-41df-b723-3c0709da2721" d="m99.44,24.06c-.35-.41-.58-.83-.69-1.28-.11-.44-.09-.87.05-1.3.14-.42.42-.82.82-1.19.08-.08.19-.18.33-.3.14-.12.26-.21.35-.29.43-.34.87-.55,1.31-.62s.87-.03,1.29.15c.42.18.8.47,1.16.88.31.36.53.72.64,1.06.12.34.17.66.16.96s-.07.56-.17.78c-.1.23-.21.4-.34.52-.06.06-.12.08-.2.07-.07-.01-.13-.05-.18-.1l-.64-.75c-.05-.06-.07-.11-.07-.17,0-.06.02-.12.05-.2.16-.28.22-.53.19-.75s-.13-.44-.32-.65c-.24-.28-.53-.43-.85-.45-.32-.01-.68.14-1.08.46-.23.17-.43.34-.6.51-.38.35-.59.68-.62,1-.03.32.07.62.32.9.19.22.39.36.6.42.21.06.47.03.77-.08.08-.02.15-.03.21-.02.05,0,.11.04.16.1l.64.75c.05.06.07.12.07.2,0,.07-.04.14-.1.18-.11.08-.25.15-.42.21-.17.06-.37.1-.59.1-.22,0-.46-.02-.71-.08-.25-.06-.5-.18-.76-.35-.26-.17-.52-.4-.77-.69Z"/>
            <path class="uuid-0b17e1bd-bff3-41df-b723-3c0709da2721" d="m102,27.02c-.04-.06-.05-.13-.04-.2s.05-.13.12-.17l6.2-4.11c.06-.04.13-.05.2-.04s.13.05.17.12l.55.83c.05.07.06.14.04.21-.02.07-.06.12-.12.17l-2.13,1.42c.31.04.61.13.9.29.29.16.55.42.79.77.25.38.39.77.41,1.17.02.4-.08.78-.29,1.14-.21.36-.53.69-.97.98l-2.63,1.75c-.06.04-.13.05-.2.04-.07-.01-.13-.05-.17-.12l-.56-.84c-.04-.06-.05-.13-.04-.2.01-.07.05-.13.12-.17l2.57-1.71c.36-.24.59-.52.67-.83.09-.31.02-.64-.2-.98-.22-.32-.49-.52-.83-.58-.34-.06-.69.03-1.05.27l-2.57,1.71c-.06.04-.13.06-.2.04s-.13-.05-.17-.12l-.55-.83Z"/>
            <path class="uuid-0b17e1bd-bff3-41df-b723-3c0709da2721" d="m112.34,33.16c-.04-.34-.17-.73-.38-1.15-.2-.39-.41-.69-.65-.92-.24-.22-.47-.39-.71-.49-.23-.1-.44-.15-.64-.16-.19,0-.35.02-.46.07-.07.03-.11.08-.13.14-.02.06-.01.12.02.2l.4.79c.05.1.13.16.25.17.2,0,.38.04.56.14s.32.27.44.51c.17.34.22.62.13.84-.08.22-.26.4-.55.54l-.21.11-.89-1.27c-.41-.58-.84-.98-1.31-1.22-.47-.24-.94-.24-1.41,0-.29.14-.51.36-.65.64-.15.28-.22.59-.22.94,0,.35.09.7.27,1.05.14.29.3.52.48.69.18.18.36.31.54.4s.36.15.53.17l-.39.2c-.07.03-.11.08-.14.15-.03.07-.02.14.02.21l.41.81c.03.07.09.11.16.14.07.02.14.02.21-.02l3.15-1.58c.26-.13.49-.3.68-.49.19-.2.33-.43.42-.69.09-.26.11-.56.07-.91Zm-2.96,1.32c-.32.16-.62.24-.88.23-.27,0-.5-.08-.69-.22-.2-.14-.35-.33-.47-.56-.08-.15-.13-.31-.15-.48s0-.32.06-.46c.06-.14.16-.25.31-.32.19-.1.41-.08.64.04s.48.37.74.74l.67.92-.21.11Z"/>
            <path class="uuid-0b17e1bd-bff3-41df-b723-3c0709da2721" d="m109.17,40.52c-.16-.42-.22-.8-.18-1.14s.17-.64.41-.89c.24-.25.57-.46,1.01-.62l2.38-.91-.32-.83c-.03-.07-.03-.14,0-.21.03-.07.08-.11.15-.14l.61-.23c.07-.03.14-.02.21,0s.12.08.14.15l.32.83,1.74-.66c.07-.03.14-.03.21,0,.07.03.11.08.14.16l.33.85c.03.07.02.14,0,.21-.03.07-.08.11-.15.14l-1.74.67.5,1.31c.03.07.03.14,0,.21-.03.07-.08.11-.15.14l-.61.23c-.07.03-.14.02-.21,0-.07-.03-.12-.08-.14-.15l-.5-1.31-2.28.87c-.29.11-.49.25-.61.41-.12.16-.14.37-.04.62l.28.72c.03.07.02.14,0,.21-.03.07-.08.11-.15.14l-.65.25c-.07.03-.14.02-.21,0-.07-.03-.11-.08-.14-.15l-.33-.85Z"/>
            <g>
              <path class="uuid-0b17e1bd-bff3-41df-b723-3c0709da2721" d="m109.89,42.67c-.02-.08-.02-.15.02-.21.04-.06.09-.1.16-.12l1-.3c.08-.02.15-.02.21.01.06.03.11.09.13.17l.3,1c.02.08.02.15-.02.22-.04.07-.09.11-.17.13l-1,.3c-.07.02-.14.02-.21-.02-.07-.04-.11-.09-.13-.17l-.3-1Z"/>
              <path class="uuid-0b17e1bd-bff3-41df-b723-3c0709da2721" d="m111.99,42.11c-.02-.07-.02-.14.01-.2.03-.06.09-.11.17-.13l4.92-1.49c.07-.02.14-.01.21.02.06.04.11.09.13.16l.26.87c.02.08.02.15-.02.21s-.09.1-.16.13l-4.92,1.49c-.08.02-.15.02-.21-.01-.06-.03-.1-.09-.13-.17l-.26-.87Z"/>
            </g>
          </g>
          <g>
            <path class="uuid-0b17e1bd-bff3-41df-b723-3c0709da2721" d="m42.63,109.67c.07.03.12.07.15.14s.03.14,0,.21l-2.5,6.88c-.03.07-.07.12-.14.15-.07.03-.14.03-.21,0l-.98-.36c-.07-.03-.12-.07-.15-.14-.03-.07-.03-.14,0-.21l2.14-5.88-3.35-1.22c-.08-.03-.13-.08-.16-.14-.03-.07-.03-.14,0-.22l.27-.74c.03-.07.07-.12.14-.15.07-.03.14-.03.22,0l4.58,1.67Z"/>
            <path class="uuid-0b17e1bd-bff3-41df-b723-3c0709da2721" d="m36.45,107.93c-.22-.65-.7-1.16-1.44-1.53-.38-.19-.73-.31-1.07-.36-.34-.05-.64-.05-.91,0s-.49.13-.67.23c-.18.1-.3.21-.36.31-.04.06-.04.12-.02.18.02.06.07.11.13.14l.86.43c.07.04.13.06.18.06.05,0,.12-.02.22-.07.06-.03.14-.06.26-.09s.25-.05.41-.04c.16,0,.33.06.51.15.23.11.39.27.5.48.1.2.15.42.13.66-.02.24-.08.48-.19.72,0,.01-.02.04-.04.08l-3.33-1.67c-.07-.04-.15-.04-.22-.02-.07.02-.12.07-.16.14l-.11.21c-.26.52-.4,1.03-.41,1.52-.01.49.11.94.36,1.35.26.41.66.75,1.2,1.02.49.25.96.36,1.42.34.46-.02.89-.16,1.27-.42.39-.27.72-.64,1-1.13.04-.06.08-.14.13-.24.05-.1.09-.19.12-.26.36-.81.43-1.53.21-2.18Zm-1.94,2.22c-.13.26-.29.47-.47.62-.18.15-.38.24-.61.27s-.45-.01-.69-.13c-.23-.12-.41-.28-.52-.47-.11-.2-.16-.42-.15-.65,0-.24.08-.49.21-.75l.02-.03,2.22,1.11v.03Z"/>
            <path class="uuid-0b17e1bd-bff3-41df-b723-3c0709da2721" d="m29.42,103.31c.38.24.66.51.83.81s.24.62.2.96c-.04.34-.18.71-.43,1.1l-1.37,2.15.75.48c.06.04.1.1.12.17.02.07,0,.14-.04.2l-.35.55c-.04.06-.1.1-.17.12-.07.02-.14,0-.2-.04l-.75-.48-1,1.57c-.04.06-.09.1-.16.12-.07.02-.14,0-.21-.04l-.77-.49c-.06-.04-.1-.1-.12-.17-.02-.07,0-.14.04-.2l1-1.57-1.18-.75c-.06-.04-.1-.1-.12-.17-.02-.07,0-.14.04-.2l.35-.55c.04-.06.1-.1.17-.12.07-.02.14,0,.2.04l1.18.75,1.31-2.06c.16-.26.25-.49.25-.69,0-.2-.11-.38-.34-.52l-.65-.42c-.06-.04-.1-.1-.12-.17-.02-.07,0-.14.04-.2l.37-.59c.04-.06.1-.1.17-.12.07-.02.14,0,.2.04l.77.49Z"/>
            <path class="uuid-0b17e1bd-bff3-41df-b723-3c0709da2721" d="m24.5,106.55c.05.04.08.09.09.15,0,.06-.02.12-.07.17l-1.37,1.35c-.07.07-.15.12-.24.14-.09.02-.18,0-.27-.06l-.83-.61s-.08-.08-.08-.14c0-.06,0-.1.04-.15.03-.04.07-.08.12-.11l1.68-1.07c.07-.04.14-.07.22-.09.08-.02.16,0,.25.07l.46.34Z"/>
            <path class="uuid-0b17e1bd-bff3-41df-b723-3c0709da2721" d="m24.31,99.32c.34.29.6.58.77.87.17.29.29.55.34.81s.06.47.04.65c-.03.18-.07.32-.13.4-.05.07-.11.1-.18.1s-.14-.02-.19-.06l-.68-.58s-.04-.04-.05-.06c-.01-.02-.02-.06-.03-.11-.02-.13-.04-.26-.07-.4-.02-.14-.07-.28-.15-.43-.07-.15-.19-.29-.37-.44-.22-.19-.45-.3-.67-.34s-.41.02-.55.19c-.1.12-.15.24-.15.37,0,.13.07.3.19.51.13.21.32.49.59.83.26.35.44.67.55.96s.15.57.11.83c-.04.26-.16.5-.36.73-.19.22-.44.38-.74.47s-.65.08-1.02,0-.76-.31-1.16-.65c-.31-.26-.54-.53-.71-.8-.16-.27-.27-.53-.33-.77-.05-.24-.07-.46-.05-.64.02-.19.06-.32.13-.41.05-.07.11-.1.18-.11.07,0,.13.02.18.06l.63.54s.05.05.06.08c.01.03.02.06.03.1.01.11.03.23.05.35s.06.26.13.4c.06.14.18.28.35.43.22.18.42.28.62.28.19,0,.35-.07.47-.21.08-.1.13-.2.13-.32,0-.12-.05-.28-.16-.48-.11-.2-.31-.48-.58-.84-.32-.39-.54-.75-.65-1.08-.11-.33-.14-.62-.08-.87.05-.25.17-.49.35-.7.22-.26.49-.42.82-.5.33-.08.69-.05,1.08.08.39.13.81.38,1.24.75Z"/>
            <path class="uuid-0b17e1bd-bff3-41df-b723-3c0709da2721" d="m18.27,93.29c.35.41.58.83.69,1.28.11.44.1.87-.05,1.3s-.42.82-.82,1.2c-.08.08-.19.18-.33.3-.14.12-.26.22-.35.29-.43.34-.87.55-1.31.62-.44.08-.87.03-1.29-.15s-.8-.47-1.15-.88c-.31-.36-.53-.72-.64-1.06-.12-.34-.17-.66-.16-.96.01-.3.07-.56.16-.78.1-.23.21-.4.34-.52.06-.06.12-.08.2-.07.07.01.13.05.18.1l.64.75c.05.06.07.11.07.17s-.02.12-.05.2c-.15.28-.22.53-.19.75.03.22.13.44.32.65.24.28.53.43.85.45.32.01.68-.14,1.08-.46.23-.17.42-.34.6-.51.38-.35.59-.68.62-1,.03-.32-.07-.62-.32-.91-.19-.22-.39-.36-.6-.42-.21-.06-.47-.03-.77.08-.08.02-.15.03-.21.02-.05,0-.11-.04-.16-.1l-.64-.75c-.05-.06-.07-.12-.07-.2,0-.07.03-.14.1-.18.11-.08.25-.15.42-.21.17-.06.37-.1.59-.11s.46.02.71.08.5.18.76.35.52.4.77.69Z"/>
            <path class="uuid-0b17e1bd-bff3-41df-b723-3c0709da2721" d="m15.72,90.34c.04.06.05.13.04.2s-.05.13-.12.17l-6.19,4.12c-.06.04-.13.06-.2.04-.07-.01-.13-.05-.17-.12l-.55-.83c-.04-.07-.06-.14-.04-.21.02-.07.06-.13.12-.17l2.13-1.42c-.31-.04-.61-.13-.9-.29-.29-.16-.55-.42-.79-.77-.25-.38-.39-.77-.41-1.17-.02-.4.08-.78.29-1.14s.53-.69.97-.98l2.63-1.75c.06-.04.13-.06.2-.04.07.01.13.05.17.12l.56.84c.04.06.05.13.04.2-.01.07-.05.13-.12.17l-2.57,1.71c-.36.24-.59.52-.67.83-.09.31-.02.64.21.98.22.32.49.52.83.58.34.06.69-.03,1.05-.27l2.57-1.71c.06-.04.13-.06.2-.04.07.01.13.05.17.12l.55.83Z"/>
            <path class="uuid-0b17e1bd-bff3-41df-b723-3c0709da2721" d="m11.5,83.27c-.14-.29-.3-.52-.48-.69-.18-.17-.36-.31-.54-.4s-.36-.15-.53-.17l.39-.2c.07-.03.11-.08.14-.15.03-.07.02-.14-.02-.21l-.41-.81c-.03-.07-.09-.11-.16-.13s-.14-.02-.21.02l-3.15,1.59c-.26.13-.49.3-.68.49-.19.2-.33.43-.42.69-.09.26-.11.56-.07.91.04.34.17.73.38,1.15.2.39.41.69.65.92s.47.39.7.49c.23.1.44.15.64.16s.35-.02.46-.07c.07-.03.11-.08.13-.14.02-.06.01-.12-.02-.2l-.4-.79c-.05-.1-.13-.16-.25-.17-.2,0-.38-.04-.56-.14-.17-.1-.32-.27-.44-.51-.17-.34-.22-.62-.13-.84s.26-.4.55-.54l.21-.11.89,1.27c.41.57.84.98,1.31,1.22s.94.24,1.4,0c.29-.15.51-.36.65-.64s.22-.59.22-.95c0-.35-.09-.7-.27-1.05Zm-1.03,1.08c-.06.14-.16.25-.31.32-.19.1-.41.08-.64-.04s-.48-.37-.74-.74l-.67-.92.21-.11c.32-.16.62-.24.88-.24.27,0,.5.08.69.22.2.14.35.33.47.56.08.15.13.31.15.48.02.17,0,.32-.06.46Z"/>
            <path class="uuid-0b17e1bd-bff3-41df-b723-3c0709da2721" d="m8.54,76.82c.16.42.22.8.18,1.14s-.17.64-.41.89c-.24.25-.57.46-1,.63l-2.38.91.32.83c.03.07.02.14,0,.21-.03.07-.08.12-.15.14l-.61.23c-.07.03-.14.03-.21,0s-.12-.08-.14-.15l-.32-.83-1.74.67c-.07.03-.14.03-.21,0-.07-.03-.11-.08-.14-.16l-.33-.85c-.03-.07-.02-.14,0-.21s.08-.12.15-.14l1.74-.67-.5-1.31c-.03-.07-.03-.14,0-.21.03-.07.08-.12.15-.14l.61-.23c.07-.03.14-.03.21,0s.11.08.14.15l.5,1.31,2.28-.87c.29-.11.49-.25.61-.41s.13-.37.04-.62l-.28-.72c-.03-.07-.03-.14,0-.21s.08-.12.15-.14l.65-.25c.07-.03.14-.03.21,0,.07.03.11.08.14.15l.33.85Z"/>
            <g>
              <path class="uuid-0b17e1bd-bff3-41df-b723-3c0709da2721" d="m5.72,75.24c.02.07.02.14-.01.2-.03.06-.09.11-.17.13l-4.92,1.49c-.07.02-.14.01-.21-.02-.07-.03-.11-.09-.13-.16l-.26-.87c-.02-.08-.02-.15.02-.21s.09-.1.16-.12l4.92-1.49c.08-.02.15-.02.21.01s.1.09.13.17l.26.87Z"/>
              <path class="uuid-0b17e1bd-bff3-41df-b723-3c0709da2721" d="m7.82,74.67c.02.08.02.15-.02.21s-.09.1-.16.12l-1,.3c-.08.02-.15.02-.21-.01-.06-.03-.11-.09-.13-.17l-.3-1c-.02-.08-.02-.15.02-.22s.09-.11.17-.13l1-.3c.07-.02.14-.01.21.02.07.04.11.09.13.17l.3,1Z"/>
            </g>
          </g>
          <g>
            <path class="uuid-0b17e1bd-bff3-41df-b723-3c0709da2721" d="m109.63,75.18c.03-.07.07-.12.14-.15s.14-.03.21,0l6.88,2.51c.07.03.12.07.15.14s.03.14,0,.21l-.36.98c-.03.07-.07.12-.14.15-.07.03-.14.03-.21,0l-5.88-2.15-1.22,3.34c-.03.08-.08.13-.14.16-.07.03-.14.03-.22,0l-.74-.27c-.07-.03-.12-.07-.15-.14-.03-.07-.03-.14,0-.22l1.67-4.58Z"/>
            <path class="uuid-0b17e1bd-bff3-41df-b723-3c0709da2721" d="m111.7,82.81c-.26-.39-.64-.72-1.13-1-.06-.04-.14-.08-.24-.13-.1-.05-.19-.09-.26-.12-.81-.36-1.53-.44-2.18-.22-.65.22-1.16.7-1.53,1.44-.19.38-.31.73-.36,1.07-.05.34-.05.64,0,.91.05.27.12.49.23.67.1.18.2.3.31.36.06.04.12.04.18.02.06-.02.11-.07.14-.14l.43-.86c.04-.07.06-.13.06-.18,0-.05-.02-.12-.07-.22-.03-.06-.06-.14-.09-.26s-.05-.25-.04-.41c0-.16.06-.33.15-.51.12-.23.27-.39.48-.5.2-.1.42-.15.66-.13s.48.08.72.19c.01,0,.04.02.08.04l-1.68,3.33c-.04.07-.04.15-.02.22s.07.12.14.16l.21.11c.52.26,1.03.4,1.52.41s.94-.11,1.35-.36c.41-.26.75-.65,1.02-1.2.25-.49.36-.96.34-1.42-.02-.46-.16-.89-.42-1.28Zm-.84,2.24c-.12.23-.28.41-.47.52-.2.11-.42.16-.65.15-.24-.01-.49-.08-.75-.21l-.03-.02,1.12-2.22h.03c.26.15.47.3.62.48.15.18.24.38.27.61s-.01.45-.13.69Z"/>
            <path class="uuid-0b17e1bd-bff3-41df-b723-3c0709da2721" d="m103.26,88.36c.24-.38.51-.66.81-.83s.62-.24.96-.2c.34.04.71.19,1.1.44l2.15,1.37.48-.75c.04-.06.1-.1.17-.12.07-.02.14,0,.2.04l.55.35c.06.04.1.1.12.17.02.07,0,.14-.04.2l-.48.75,1.57,1c.06.04.1.1.12.17.02.07,0,.14-.04.21l-.49.77c-.04.06-.1.1-.17.12-.07.02-.14,0-.2-.04l-1.57-1-.75,1.18c-.04.06-.1.1-.17.12-.07.02-.14,0-.2-.04l-.55-.35c-.06-.04-.1-.1-.12-.17s0-.14.04-.2l.75-1.18-2.06-1.31c-.26-.17-.49-.25-.69-.25-.2,0-.38.11-.52.34l-.42.65c-.04.06-.1.1-.17.12-.07.02-.14,0-.2-.04l-.59-.37c-.06-.04-.1-.1-.12-.17-.02-.07,0-.14.04-.2l.49-.77Z"/>
            <path class="uuid-0b17e1bd-bff3-41df-b723-3c0709da2721" d="m106.48,93.3c.04-.05.09-.08.15-.09s.12.02.17.07l1.35,1.37c.07.07.12.15.14.24.02.09,0,.18-.06.27l-.61.83s-.08.08-.14.08c-.06,0-.1,0-.15-.04-.04-.03-.08-.07-.11-.12l-1.06-1.68c-.04-.07-.07-.14-.09-.22-.01-.08,0-.16.07-.25l.34-.46Z"/>
            <path class="uuid-0b17e1bd-bff3-41df-b723-3c0709da2721" d="m99.27,93.45c.29-.34.58-.6.87-.77.29-.17.56-.29.81-.34s.47-.06.65-.04.32.07.4.14c.07.05.1.11.1.18,0,.07-.02.14-.06.19l-.58.67s-.04.04-.06.05c-.02.01-.06.02-.11.02-.13.02-.26.04-.4.07s-.28.07-.43.15c-.15.07-.29.19-.44.37-.19.22-.3.45-.34.67-.04.23.02.41.19.55.12.1.24.15.37.15.13,0,.3-.07.51-.19.21-.13.49-.32.83-.59.35-.26.67-.44.96-.55.29-.11.57-.15.83-.11s.5.16.73.36c.22.19.38.44.46.74s.08.65-.01,1.03c-.09.38-.31.76-.65,1.15-.26.31-.53.54-.8.71-.27.16-.53.27-.77.32s-.46.07-.64.05c-.18-.02-.32-.06-.41-.13-.07-.05-.1-.11-.11-.18s.02-.13.06-.18l.54-.63s.05-.05.08-.06c.03-.01.06-.02.1-.03.11-.01.23-.03.35-.05s.26-.06.4-.13c.14-.06.28-.18.43-.35.18-.22.28-.42.28-.62s-.07-.35-.21-.47c-.1-.08-.2-.13-.32-.13-.12,0-.28.05-.48.16s-.48.31-.84.58c-.39.32-.75.54-1.08.65-.33.11-.62.14-.87.08-.25-.05-.49-.17-.7-.35-.26-.22-.42-.49-.5-.82-.08-.33-.05-.69.09-1.08.13-.39.38-.81.75-1.24Z"/>
            <path class="uuid-0b17e1bd-bff3-41df-b723-3c0709da2721" d="m93.24,99.49c.41-.35.84-.58,1.28-.69s.87-.09,1.3.05c.42.14.82.42,1.19.82.08.08.18.19.3.33s.21.26.29.35c.34.43.55.87.62,1.31.08.44.03.87-.15,1.29-.18.42-.47.8-.88,1.15-.36.31-.72.53-1.06.64-.34.12-.66.17-.96.16-.3-.01-.56-.07-.78-.17-.23-.1-.4-.21-.52-.34-.06-.06-.08-.12-.07-.2.01-.07.04-.13.1-.18l.75-.64c.06-.05.11-.07.17-.07s.12.02.2.05c.28.15.53.22.75.19.22-.03.44-.13.65-.32.29-.24.43-.53.45-.85s-.14-.68-.46-1.08c-.17-.23-.34-.43-.51-.6-.35-.38-.68-.59-1-.62-.32-.03-.62.07-.91.32-.22.19-.36.39-.42.6s-.03.47.08.77c.02.08.03.15.02.21,0,.05-.04.11-.1.16l-.75.64c-.06.05-.12.07-.2.07-.08,0-.14-.03-.18-.1-.08-.11-.15-.25-.21-.42-.06-.17-.1-.37-.1-.59,0-.22.02-.46.08-.71s.18-.5.35-.76c.17-.26.4-.52.69-.77Z"/>
            <path class="uuid-0b17e1bd-bff3-41df-b723-3c0709da2721" d="m90.25,102.06c.06-.04.13-.05.2-.04.07.01.13.05.17.12l4.11,6.19c.04.06.05.13.04.2-.01.07-.05.13-.12.17l-.83.55c-.07.05-.14.06-.21.04s-.12-.06-.17-.12l-1.42-2.13c-.04.31-.13.61-.29.9-.16.29-.42.55-.77.78-.38.25-.77.39-1.17.4-.4.02-.78-.08-1.14-.29-.36-.21-.69-.53-.98-.97l-1.75-2.63c-.04-.06-.05-.13-.04-.2.01-.07.05-.13.12-.17l.84-.56c.06-.04.13-.06.2-.04.07.01.13.05.17.12l1.71,2.57c.24.36.52.59.83.67.31.09.64.02.98-.2.33-.22.52-.49.58-.83.06-.34-.03-.69-.27-1.05l-1.71-2.57c-.04-.06-.06-.13-.04-.2s.05-.13.12-.17l.83-.55Z"/>
            <g>
              <path class="uuid-0b17e1bd-bff3-41df-b723-3c0709da2721" d="m83.18,106.27c.35-.17.7-.26,1.05-.27.35,0,.67.07.95.22.28.15.49.37.64.65.24.47.23.94,0,1.4-.24.47-.65.9-1.22,1.31l-1.27.89.11.21c.14.28.32.46.54.55.22.08.5.04.84-.13.24-.12.41-.27.51-.44.1-.17.15-.36.14-.55,0-.11.06-.2.17-.25l.79-.4c.07-.04.14-.04.2-.02.06.02.1.07.14.13.05.11.07.26.07.46,0,.19-.06.41-.16.64-.1.23-.26.47-.49.7-.22.24-.53.45-.92.65-.42.21-.8.34-1.15.38-.34.04-.65.02-.91-.07-.26-.09-.49-.23-.69-.42s-.36-.42-.49-.68l-1.58-3.15c-.03-.07-.04-.14-.02-.21s.07-.12.14-.16l.81-.41c.07-.04.14-.04.21-.02.07.02.12.07.15.14l.2.39c.02-.17.08-.35.17-.53.09-.18.23-.37.4-.54s.41-.34.7-.48Z"/>
              <path class="uuid-0b17e1bd-bff3-41df-b723-3c0709da2721" d="m83.32,107.39c-.23.12-.42.27-.56.47s-.21.43-.22.69.07.56.23.88l.11.21.92-.66c.37-.26.61-.5.74-.73.13-.23.14-.44.04-.64-.07-.15-.18-.25-.32-.31s-.3-.08-.46-.06c-.17.02-.33.07-.48.15Z"/>
            </g>
            <path class="uuid-0b17e1bd-bff3-41df-b723-3c0709da2721" d="m76.74,109.21c.42-.16.8-.22,1.14-.18.34.04.64.17.89.41.25.24.46.57.62,1.01l.91,2.38.83-.32c.07-.03.14-.02.21,0,.07.03.12.08.14.15l.23.61c.03.07.03.14,0,.21-.03.07-.08.11-.15.14l-.83.32.67,1.74c.03.07.03.14,0,.2-.03.07-.08.11-.16.14l-.85.32c-.07.03-.14.02-.21,0-.07-.03-.11-.08-.14-.15l-.66-1.74-1.31.5c-.07.03-.14.02-.21,0s-.12-.08-.14-.15l-.23-.61c-.03-.07-.02-.14,0-.21s.08-.11.15-.14l1.31-.5-.87-2.28c-.11-.29-.25-.49-.41-.61s-.37-.13-.62-.04l-.72.28c-.07.03-.14.02-.21,0-.07-.03-.12-.08-.14-.15l-.25-.65c-.03-.07-.03-.14,0-.21.03-.07.08-.11.15-.14l.85-.32Z"/>
            <g>
              <path class="uuid-0b17e1bd-bff3-41df-b723-3c0709da2721" d="m74.59,109.93c.08-.02.15-.02.21.02s.1.09.12.16l.3,1c.02.08.02.15-.01.21-.03.06-.09.11-.17.13l-1,.3c-.08.02-.15.02-.22-.02-.06-.04-.11-.09-.13-.17l-.3-1c-.02-.07-.01-.14.02-.21.04-.07.09-.11.17-.13l1-.3Z"/>
              <path class="uuid-0b17e1bd-bff3-41df-b723-3c0709da2721" d="m75.16,112.04c.07-.02.14-.02.2.01s.11.09.13.17l1.49,4.93c.02.07.01.14-.02.21-.03.07-.09.11-.16.13l-.87.26c-.08.02-.15.02-.21-.02-.06-.04-.1-.09-.13-.16l-1.49-4.93c-.02-.08-.02-.15.01-.21s.09-.1.17-.13l.87-.26Z"/>
            </g>
          </g>
          <g>
            <path class="uuid-0b17e1bd-bff3-41df-b723-3c0709da2721" d="m7.68,42.57c-.03.07-.07.12-.14.15s-.14.03-.21,0l-6.88-2.51c-.07-.03-.12-.07-.15-.14-.03-.07-.03-.14,0-.21l.36-.98c.03-.07.07-.12.14-.15.07-.03.14-.03.21,0l5.88,2.15,1.22-3.34c.03-.08.08-.13.14-.16.07-.03.14-.03.22,0l.74.27c.07.03.12.07.15.14.03.07.03.14,0,.22l-1.67,4.58Z"/>
            <path class="uuid-0b17e1bd-bff3-41df-b723-3c0709da2721" d="m11.31,32.98c-.05-.27-.12-.49-.23-.67s-.2-.3-.31-.36c-.06-.04-.12-.04-.18-.02-.06.02-.11.07-.14.14l-.43.86c-.04.07-.06.13-.06.18,0,.05.02.12.07.22.03.06.06.14.09.26.03.12.05.25.04.41,0,.16-.06.33-.15.51-.12.23-.27.39-.48.5-.2.1-.42.15-.66.13s-.48-.08-.72-.19c-.01,0-.04-.02-.08-.04l1.68-3.33c.04-.07.04-.15.02-.22s-.07-.12-.14-.16l-.21-.11c-.52-.26-1.03-.4-1.52-.41-.49-.01-.94.11-1.35.36-.41.26-.75.65-1.02,1.2-.25.49-.36.96-.34,1.42.02.46.16.89.42,1.27.26.39.64.72,1.13,1,.06.04.14.08.24.13s.19.09.26.12c.81.36,1.53.44,2.18.22.65-.22,1.16-.7,1.53-1.44.19-.37.31-.73.36-1.07.05-.34.05-.64,0-.91Zm-4.07,1.5l-.03-.02c-.26-.13-.47-.29-.62-.47-.15-.18-.24-.38-.27-.61s.01-.45.13-.69c.12-.23.28-.41.47-.52.2-.11.42-.16.65-.15.24.01.49.08.75.21l.03.02-1.12,2.22Z"/>
            <path class="uuid-0b17e1bd-bff3-41df-b723-3c0709da2721" d="m14.05,29.39c-.24.38-.51.66-.81.83-.3.17-.62.24-.96.2-.34-.04-.71-.19-1.1-.44l-2.15-1.37-.48.75c-.04.06-.1.1-.17.12-.07.02-.14,0-.2-.04l-.55-.35c-.06-.04-.1-.1-.12-.17-.02-.07,0-.14.04-.2l.48-.75-1.57-1c-.06-.04-.1-.09-.12-.16-.02-.07,0-.14.04-.21l.49-.77c.04-.06.1-.1.17-.12s.14,0,.2.04l1.57,1,.75-1.18c.04-.06.1-.1.17-.12s.14,0,.2.04l.55.35c.06.04.1.1.12.17s0,.14-.04.2l-.75,1.18,2.06,1.31c.26.17.49.25.69.25.2,0,.38-.11.52-.34l.42-.65c.04-.06.1-.1.17-.12s.14,0,.2.04l.59.37c.06.04.1.1.12.17.02.07,0,.14-.04.2l-.49.77Z"/>
            <path class="uuid-0b17e1bd-bff3-41df-b723-3c0709da2721" d="m10.83,24.45c-.04.05-.09.08-.15.09-.06,0-.12-.02-.17-.07l-1.35-1.37c-.07-.07-.12-.15-.14-.24-.02-.09,0-.18.06-.27l.61-.83s.08-.08.14-.08c.06,0,.1,0,.15.04.04.03.08.07.11.12l1.06,1.68c.04.07.07.14.09.22s0,.16-.07.25l-.34.46Z"/>
            <path class="uuid-0b17e1bd-bff3-41df-b723-3c0709da2721" d="m18.04,24.3c-.29.34-.58.6-.87.77-.29.17-.56.29-.81.34s-.47.06-.65.04c-.18-.03-.32-.07-.4-.14-.07-.05-.1-.11-.1-.18,0-.07.02-.14.06-.19l.58-.67s.04-.04.06-.05.06-.02.11-.02c.13-.02.26-.04.4-.07.14-.02.28-.07.43-.15.15-.07.29-.19.44-.37.19-.22.3-.45.34-.67.04-.23-.02-.41-.19-.55-.12-.1-.24-.15-.38-.15-.13,0-.3.07-.51.19-.21.13-.49.32-.83.59-.35.26-.67.44-.96.55-.29.11-.57.15-.83.11-.26-.04-.5-.16-.73-.36-.22-.19-.38-.44-.46-.74-.09-.31-.08-.65.01-1.02.09-.38.31-.76.65-1.15.26-.31.53-.54.8-.71.27-.16.53-.27.77-.32.24-.05.46-.07.64-.05.18.02.32.06.41.13.07.05.1.11.11.18,0,.07-.02.13-.06.18l-.54.63s-.05.05-.08.06c-.03.01-.07.02-.1.03-.11.01-.23.03-.35.05s-.26.06-.4.13c-.14.06-.28.18-.43.35-.19.22-.28.42-.28.62s.07.35.21.47c.1.08.2.13.32.13.12,0,.28-.05.48-.16.2-.11.48-.31.84-.58.39-.32.75-.54,1.08-.65.33-.11.62-.14.87-.08s.49.17.7.35c.26.22.42.49.5.82.08.33.05.69-.09,1.08s-.38.81-.75,1.24Z"/>
            <path class="uuid-0b17e1bd-bff3-41df-b723-3c0709da2721" d="m24.07,18.27c-.41.35-.84.58-1.28.69-.44.11-.87.09-1.3-.05-.42-.14-.82-.42-1.19-.82-.08-.08-.18-.19-.3-.33-.12-.14-.21-.26-.29-.35-.34-.43-.55-.87-.62-1.31-.08-.44-.03-.87.15-1.29.18-.42.47-.8.88-1.15.36-.31.72-.53,1.06-.64.34-.12.66-.17.96-.16.3.01.56.07.78.17.23.1.4.21.52.34.06.06.08.12.07.2-.01.07-.04.13-.1.18l-.75.64c-.06.05-.11.07-.17.07-.06,0-.12-.02-.2-.05-.28-.15-.53-.22-.75-.19-.22.03-.44.13-.65.32-.29.24-.43.53-.45.85-.01.32.14.68.46,1.08.17.23.34.43.51.6.35.38.68.59,1,.62.32.03.62-.07.9-.32.22-.19.36-.39.42-.6.06-.21.03-.47-.08-.77-.02-.08-.03-.15-.02-.21,0-.05.04-.11.1-.16l.75-.64c.06-.05.12-.07.2-.07.07,0,.13.03.18.1.08.11.15.25.21.42.06.17.1.37.11.59,0,.22-.02.46-.08.71-.06.25-.18.5-.35.76-.17.26-.4.52-.69.77Z"/>
            <path class="uuid-0b17e1bd-bff3-41df-b723-3c0709da2721" d="m27.05,15.69c-.06.04-.13.05-.2.04-.07-.01-.13-.05-.17-.12l-4.11-6.19c-.04-.06-.05-.13-.04-.2s.05-.13.12-.17l.83-.55c.07-.05.14-.06.21-.04.07.02.12.06.17.12l1.42,2.13c.04-.31.13-.61.29-.9.16-.29.42-.55.77-.78.38-.25.77-.39,1.17-.4.4-.02.78.08,1.14.29.36.21.69.53.98.97l1.75,2.63c.04.06.05.13.04.2-.01.07-.05.13-.12.17l-.84.56c-.06.04-.13.06-.2.04-.07-.01-.13-.05-.17-.12l-1.71-2.57c-.24-.36-.52-.59-.83-.67-.31-.09-.64-.02-.98.2-.33.22-.52.49-.58.83-.06.34.03.69.27,1.05l1.71,2.57c.04.06.06.13.04.2-.01.07-.05.13-.12.17l-.83.55Z"/>
            <path class="uuid-0b17e1bd-bff3-41df-b723-3c0709da2721" d="m36.89,9.68l-1.58-3.15c-.13-.26-.29-.49-.49-.68-.2-.19-.43-.33-.69-.42-.26-.09-.56-.11-.91-.07-.34.04-.73.17-1.15.38-.39.19-.69.41-.92.65-.22.24-.39.47-.49.7-.1.23-.15.44-.16.64,0,.19.02.35.07.46.03.07.08.11.14.13.06.02.12.01.2-.02l.79-.4c.1-.05.16-.13.17-.25,0-.2.04-.38.14-.56.1-.17.27-.32.51-.44.34-.17.62-.22.84-.13s.4.27.54.55l.11.21-1.27.89c-.58.41-.98.84-1.22,1.31-.24.47-.24.94,0,1.4.14.29.36.51.64.65.28.15.59.22.95.22.35,0,.7-.09,1.05-.27.29-.14.52-.3.7-.48.18-.18.31-.36.4-.54.09-.18.15-.36.17-.53l.2.39c.03.07.08.11.15.14.07.03.14.02.21-.02l.81-.41c.07-.03.11-.09.14-.16s.02-.14-.02-.21Zm-2.34.22c-.14.2-.33.35-.56.47-.15.08-.31.13-.48.15-.17.02-.32,0-.46-.06s-.25-.16-.32-.31c-.1-.19-.08-.41.04-.64.13-.23.37-.48.74-.73l.92-.66.11.21c.16.32.24.61.23.88,0,.27-.08.5-.22.69Z"/>
            <path class="uuid-0b17e1bd-bff3-41df-b723-3c0709da2721" d="m40.56,8.54c-.42.16-.8.22-1.14.18-.34-.04-.64-.17-.89-.41-.25-.24-.46-.57-.62-1.01l-.91-2.38-.83.32c-.07.03-.14.02-.21,0-.07-.03-.12-.08-.14-.15l-.23-.61c-.03-.07-.03-.14,0-.21.03-.07.08-.11.15-.14l.83-.32-.67-1.74c-.03-.07-.03-.14,0-.2.03-.07.08-.11.16-.14l.85-.32c.07-.03.14-.02.21,0,.07.03.11.08.14.15l.66,1.74,1.31-.5c.07-.03.14-.02.21,0,.07.03.12.08.14.15l.23.61c.03.07.02.14,0,.21-.03.07-.08.11-.15.14l-1.31.5.87,2.28c.11.29.25.49.41.61.16.12.37.14.62.04l.72-.28c.07-.03.14-.02.21,0,.07.03.12.08.14.15l.25.65c.03.07.03.14,0,.21-.03.07-.08.11-.15.14l-.85.32Z"/>
            <g>
              <path class="uuid-0b17e1bd-bff3-41df-b723-3c0709da2721" d="m42.15,5.72c-.07.02-.14.02-.2-.01-.06-.03-.11-.09-.13-.17l-1.49-4.93c-.02-.07-.01-.14.02-.21.03-.07.09-.11.16-.13l.87-.26c.08-.02.15-.02.21.02.06.04.1.09.13.16l1.49,4.93c.02.08.02.15-.01.21-.03.06-.09.1-.17.13l-.87.26Z"/>
              <path class="uuid-0b17e1bd-bff3-41df-b723-3c0709da2721" d="m42.72,7.82c-.08.02-.15.02-.21-.02s-.1-.09-.12-.16l-.3-1c-.02-.08-.02-.15.01-.21.03-.06.09-.11.17-.13l1-.3c.08-.02.15-.02.22.02.06.04.11.09.13.17l.3,1c.02.07.01.14-.02.21-.04.07-.09.11-.17.13l-1,.3Z"/>
            </g>
          </g>
          <circle class="uuid-0b17e1bd-bff3-41df-b723-3c0709da2721" cx="115.84" cy="58.67" r="1.27"/>
          <circle class="uuid-0b17e1bd-bff3-41df-b723-3c0709da2721" cx="58.86" cy="1.69" r="1.27"/>
          <circle class="uuid-0b17e1bd-bff3-41df-b723-3c0709da2721" cx="1.87" cy="58.67" r="1.27"/>
          <circle class="uuid-0b17e1bd-bff3-41df-b723-3c0709da2721" cx="58.86" cy="115.66" r="1.27"/>
        </g>
        <path class="uuid-87f84759-5c55-4feb-9686-5db8438c955e" d="m58.86,10.77c-26.41,0-47.9,21.49-47.9,47.9s21.49,47.9,47.9,47.9,47.9-21.49,47.9-47.9S85.27,10.77,58.86,10.77Zm0,92.91c-24.82,0-45.01-20.19-45.01-45.01S34.04,13.67,58.86,13.67s45.01,20.19,45.01,45.01-20.19,45.01-45.01,45.01Z"/>
      </g>
      <g id="sticky_contact_inner">
        <circle class="uuid-87f84759-5c55-4feb-9686-5db8438c955e" cx="58.86" cy="58.67" r="25.39"/>
        <path class="uuid-5c3f2807-f68a-498e-ac8e-44a7654e5804" d="m73.48,60.29c-.25,0-.48-.1-.65-.27s-.27-.39-.27-.65v-11.48s-8.12,8.12-8.12,8.12c-.36.36-.94.36-1.29,0s-.36-.94,0-1.29l8.12-8.12h-11.48c-.25,0-.48-.1-.65-.27s-.27-.39-.27-.65c0-.51.41-.92.92-.92h13.69s0,0,0,0c.06,0,.11,0,.17.02.03,0,.05.01.07.02.03,0,.07.02.1.03.03.01.05.03.08.04.03.01.05.03.08.04.05.03.09.07.13.1,0,0,0,0,.01.01s0,0,.01.01c.04.04.07.08.1.13.02.02.03.05.04.08.01.03.03.05.04.08.01.03.02.06.03.1,0,.02.02.05.02.07.01.06.02.11.02.17,0,0,0,0,0,0v13.69c0,.51-.41.92-.92.92Zm-12.34-2.26c-.36-.36-.94-.36-1.29,0l-5.96,5.96c-.36.36-.36.94,0,1.29s.94.36,1.29,0l5.96-5.96c.36-.36.36-.94,0-1.29Zm-9.51,9.51c-.36-.36-.94-.36-1.29,0l-3.48,3.48c-.36.36-.36.94,0,1.29s.94.36,1.29,0l3.48-3.48c.36-.36.36-.94,0-1.29Z"/>
        <path class="uuid-0b17e1bd-bff3-41df-b723-3c0709da2721" d="m58.37,59.84l-1.21,1.21h0l-.73.73.96.96.75-.75,1.19-1.19-.96-.96Zm-.81,1.96l-.25.25-.33-.33.25-.25.33.33Zm.02-.02l-.33-.33.16-.16.33.33-.16.16Zm-.35-.35h0s-.02.02-.02.02h0s-.25.25-.25.25l-.21-.21.44-.44.21.21-.16.16Zm-.76.35l.26-.26.56.56-.26.26-.56-.56Zm.92.92l-.35-.35.26-.26h0s.45-.45.45-.45l.35.35-.72.72Zm.73-.73l-.35-.35h0s-.36-.36-.36-.36h0s0,0,0,0l-.21-.21,1.17-1.17.92.92-1.17,1.17Z"/>
      </g>
    </g>
  </g>
</svg>