<?xml version="1.0" encoding="UTF-8"?>
<svg id="hero_right_SVG" data-name="hero_right_SVG" xmlns="http://www.w3.org/2000/svg" width="762.19" height="795.07" viewBox="0 0 762.19 795.07" preserveAspectRatio="none">
  <defs>
    <style>
      .uuid-dc3b4b0f-31cb-48a3-8699-a721d495c8b2 {
        fill: #444144;
      }

      .uuid-f7c51993-6181-4bb2-b08a-dddd4e0ba89e {
        fill: #f4ac45;
      }

      .uuid-ce430906-3fce-4116-8629-24fb2e689ebb {
        fill: #138385;
      }
    </style>
  </defs>
  <g id="uuid-3124504f-bd4f-46cd-a68a-210ea1755338" data-name="Landing - Hero">
    <g>
      <g>
        <path class="uuid-f7c51993-6181-4bb2-b08a-dddd4e0ba89e" d="m358.49,792.57l-.39-.13c-83.93-28.63-140.32-107.48-140.32-196.21,0-16.29,1.91-32.53,5.67-48.3-44.37-31.24-72.25-79.79-76.76-133.65-41.81-16.68-77.52-45.08-103.34-82.22C16.63,293.62,2.5,248.46,2.5,201.47c0-40.9,10.91-81.04,31.56-116.09C54.1,51.36,82.75,22.92,116.91,3.13l.58-.34,642.2-.3v790.07h-401.2Z"/>
        <path class="uuid-dc3b4b0f-31cb-48a3-8699-a721d495c8b2" d="m757.19,5v785.07h-398.28c-80.63-27.5-138.63-103.9-138.63-193.84,0-17.02,2.09-33.56,6.01-49.37-43.44-30-73.03-78.62-77.23-134.33C64.73,379.54,5,297.48,5,201.47,5,117.66,50.51,44.49,118.17,5.3l639.02-.3m5-5h-5S118.16.3,118.16.3h-1.34s-1.16.67-1.16.67C81.13,20.98,52.16,49.72,31.91,84.11,11.03,119.54,0,160.12,0,201.47c0,47.5,14.28,93.16,41.3,132.02,25.8,37.11,61.38,65.6,103.03,82.53,2.47,26.94,10.64,52.44,24.3,75.83,13.04,22.33,30.97,42.02,52,57.13-3.56,15.44-5.36,31.32-5.36,47.24,0,44.65,13.84,87.28,40.03,123.28,12.61,17.32,27.72,32.58,44.94,45.34,17.41,12.91,36.61,22.99,57.04,29.96l.78.27h404.11V0h0Z"/>
      </g>
      <g>
        <path class="uuid-ce430906-3fce-4116-8629-24fb2e689ebb" d="m249.48,792.57l-.26-2.2c-.65-5.4-.98-10.86-.98-16.23,0-74.38,60.51-134.89,134.89-134.89,20.87,0,41.56,4.87,60.12,14.12.73-21.12,9.67-41.36,24.84-56.15-7.18-15.52-10.81-32.12-10.81-49.38,0-64.99,52.87-117.85,117.85-117.85,10.55,0,21.01,1.4,31.12,4.16,5.99-23.81,19.75-45.35,38.96-60.89,20.2-16.34,45.66-25.33,71.69-25.33,14.19,0,28.05,2.58,41.19,7.67l1.6.62v436.37H249.48Z"/>
        <path class="uuid-dc3b4b0f-31cb-48a3-8699-a721d495c8b2" d="m716.9,350.41c14.21,0,27.79,2.66,40.29,7.5v432.16H251.7c-.63-5.23-.96-10.54-.96-15.94,0-73.12,59.27-132.39,132.39-132.39,22.65,0,43.97,5.69,62.61,15.72,0-.44-.03-.87-.03-1.31,0-23.05,9.79-43.81,25.41-58.38-7.27-15.11-11.34-32.05-11.34-49.94,0-63.71,51.65-115.35,115.35-115.35,11.45,0,22.51,1.68,32.95,4.78,11.25-49.72,55.7-86.85,108.83-86.85m0-5c-26.6,0-52.62,9.19-73.26,25.89-18.98,15.35-32.75,36.43-39.17,59.79-9.57-2.4-19.41-3.61-29.34-3.61-32.15,0-62.37,12.52-85.1,35.25-22.73,22.73-35.25,52.96-35.25,85.1,0,17.03,3.47,33.44,10.32,48.83-13.98,14.22-22.55,33.03-24.12,52.83-18.02-8.36-37.85-12.74-57.84-12.74-36.7,0-71.2,14.29-97.15,40.24-25.95,25.95-40.24,60.45-40.24,97.15,0,5.48.33,11.04.99,16.53l.53,4.4h514.93v-440.58l-3.19-1.24c-13.43-5.2-27.59-7.84-42.09-7.84h0Z"/>
      </g>
    </g>
  </g>
</svg>