<?xml version="1.0" encoding="UTF-8"?>
<svg class="skill-inner-SVG" id="skill_animation_inner" data-name="Layer 2" xmlns="http://www.w3.org/2000/svg" width="310.15" height="381.02" viewBox="0 0 310.15 381.02" preserveAspectRatio="none">
  <defs>
    <style>
      .uuid-cadb0792-5092-424f-82e3-d3e7e7f80933 {
        font-family: Rubik-Medium, Rubik;
        font-size: 35.08px;
        font-variation-settings: 'wght' 500;
        font-weight: 500;
      }

      .uuid-cadb0792-5092-424f-82e3-d3e7e7f80933, .uuid-33be9447-26fb-46c8-84dc-d781b962be56 {
        fill: #444144;
      }

      .uuid-8a56ba1a-4158-4951-ac53-a64b04bc4211 {
        letter-spacing: 0em;
      }

      .uuid-798f7463-4515-40b0-a7ce-30f21e79ff7a {
        fill: #f4ac45;
      }

      .uuid-01b0e6cd-25d4-4780-8bea-b80444456c82 {
        fill: #fbedda;
      }

      .uuid-f59cadf6-cb81-4f05-875d-e3f2e94404d0 {
        letter-spacing: 0em;
      }
    </style>
  </defs>
  <g id="uuid-d0e40c0c-dfa9-4d7b-9511-7cd8cca1b6d5" data-name="Landing - Skills">
    <g>
      <g>
        <polygon class="uuid-01b0e6cd-25d4-4780-8bea-b80444456c82" points="3.23 96.64 3.23 377.79 231.04 377.79 306.92 284.38 306.92 3.23 79.11 3.23 3.23 96.64"/>
        <path class="uuid-33be9447-26fb-46c8-84dc-d781b962be56" d="m77.58,0L.36,95.04l-.36.45v285.53h232.57l77.21-95.04.36-.45V0H77.58Zm229.34,284.38l-75.88,93.41H3.23V96.64L79.11,3.23h227.81v281.15Z"/>
      </g>
      <path class="uuid-798f7463-4515-40b0-a7ce-30f21e79ff7a" d="m119.39,29.3V1.61h4.56v27.69h-4.56Zm73.8,91.54h4.52V45.86h-4.52v74.98Z"/>
      <g>
        <path class="uuid-798f7463-4515-40b0-a7ce-30f21e79ff7a" d="m51.29,144.57l-26.04,26.04v-52.08l26.04,26.04Zm11.32-26.04v52.08l26.04-26.04-26.04-26.04Z"/>
        <path class="uuid-33be9447-26fb-46c8-84dc-d781b962be56" d="m23.63,174.51l29.94-29.94-29.94-29.94v59.88Zm1.62-55.98l26.04,26.04-26.04,26.04v-52.08Zm35.74-3.9v59.88l29.94-29.94-29.94-29.94Zm1.62,3.9l26.04,26.04-26.04,26.04v-52.08Z"/>
      </g>
      <g>
        <path class="uuid-798f7463-4515-40b0-a7ce-30f21e79ff7a" d="m306.92,240.99v28.42h-61.76l45.09-45.09,16.67,16.67Zm-61.76-64.05l45.09,45.09,16.67-16.67v-28.42h-61.76Z"/>
        <path class="uuid-33be9447-26fb-46c8-84dc-d781b962be56" d="m306.92,207.64l-15.53,15.53,15.53,15.53v2.28l-16.67-16.67-45.09,45.09h61.76v1.62h-65.66l47.85-47.85-47.85-47.85h65.66v1.62h-61.76l45.09,45.09,16.67-16.67v2.28Z"/>
      </g>
      <text class="uuid-cadb0792-5092-424f-82e3-d3e7e7f80933" transform="translate(97.04 46.7)"><tspan x="0" y="0">anim</tspan><tspan class="uuid-f59cadf6-cb81-4f05-875d-e3f2e94404d0" x="82.81" y="0">a</tspan><tspan class="uuid-8a56ba1a-4158-4951-ac53-a64b04bc4211" x="102.67" y="0">tion</tspan></text>
      <path class="uuid-33be9447-26fb-46c8-84dc-d781b962be56" d="m92.4,217.19c-.6-.02-1.21.17-1.7.58-2.55,2.14-4.7,4.74-6.32,7.68-.67,1.21-.23,2.73.98,3.4.35.2.73.3,1.11.31.91.04,1.81-.43,2.29-1.29,1.32-2.39,3.06-4.5,5.16-6.27,1.06-.89,1.19-2.47.3-3.52-.47-.56-1.14-.86-1.82-.89h0Zm-8.58,15.54c-1.27-.05-2.39.87-2.57,2.16-.05.34-.09.69-.12,1.04h0s0,.01,0,.02h0s0,.01,0,.02h0c0,.09-.02.17-.02.26h0s0,.01,0,.02h0s0,.01,0,.02c0,0,0,0,0,0,0,0,0,.01,0,.02,0,0,0,0,0,0,0,0,0,.01,0,.02,0,0,0,0,0,0,0,0,0,.01,0,.02h0s0,.02,0,.02c0,0,0,0,0,0,0,0,0,.01,0,.02,0,0,0,0,0,0,0,0,0,.01,0,.02h0s0,.09,0,.13h0s0,.01,0,.02c0,0,0,0,0,0,0,0,0,.01,0,.02,0,0,0,0,0,0,0,0,0,.01,0,.02,0,0,0,0,0,0,0,0,0,.01,0,.02,0,0,0,0,0,0,0,0,0,0,0,.02,0,0,0,0,0,0,0,0,0,.01,0,.02,0,0,0,0,0,0,0,0,0,.01,0,.02,0,0,0,0,0,0,0,0,0,.01,0,.02,0,0,0,0,0,0,0,0,0,.01,0,.02,0,0,0,0,0,0,0,0,0,.01,0,.02,0,0,0,0,0,0,0,0,0,.01,0,.02,0,0,0,0,0,0,0,.02,0,.04,0,.06h0s0,.01,0,.02c0,0,0,0,0,0v.02s0,0,0,0c0,0,0,0,0,.01,0,0,0,0,0,0,0,0,0,0,0,.01,0,0,0,0,0,0,0,0,0,0,0,.01,0,0,0,0,0,0,0,0,0,0,0,.01,0,0,0,0,0,0,0,0,0,0,0,.01,0,0,0,0,0,0,0,0,0,0,0,.01,0,0,0,0,0,0,0,0,0,0,0,.01,0,0,0,0,0,0,0,0,0,0,0,.01,0,0,0,0,0,0,0,0,0,0,0,.01,0,0,0,0,0,0,0,0,0,0,0,.01,0,0,0,0,0,0,0,0,0,0,0,.02,0,0,0,0,0,0,0,0,0,.01,0,.02h0s0,.02,0,.02h0s0,.01,0,.02c0,0,0,0,0,0,0,0,0,.01,0,.01,0,0,0,0,0,0,0,0,0,0,0,.01h0s0,.02,0,.02c0,0,0,0,0,0,0,0,0,0,0,.01h0s0,.02,0,.02c0,0,0,0,0,0h0s0,.02,0,.02h0s0,.02,0,.02h0s0,.02,0,.02h0s0,.02,0,.02c0,0,0,0,0,.01h0s0,.02,0,.02h0s0,.02,0,.02h0s0,.02,0,.02h0s0,.02,0,.03h0v.02s0,0,0,0v.02s0,0,0,0c0,0,0,.01,0,.02h0s0,.02,0,.02h0s0,.02,0,.02h0s0,.02,0,.02c0,0,0,0,0,0v.02s0,0,0,0v.02s0,0,0,0c0,0,0,.01,0,.02h0s0,.02,0,.02h0s0,.02,0,.02c0,0,0,0,0,0,0,0,0,.01,0,.02h0s0,.02,0,.02h0s0,.01,0,.02h0s0,.02,0,.02h0s0,.01,0,.02h0s0,.02,0,.02c0,0,0,0,0,0,0,0,0,.01,0,.02h0s0,.02,0,.02h0s0,.01,0,.02c0,0,0,0,0,0,0,0,0,.01,0,.02,0,0,0,0,0,0,0,0,0,.01,0,.02,0,0,0,0,0,0,0,0,0,.01,0,.02h0s0,.01,0,.02c0,0,0,0,0,0,0,0,0,.01,0,.02h0s0,.01,0,.02h0s0,.02,0,.02c0,0,0,0,0,0,0,0,0,.01,0,.02,0,0,0,0,0,0,0,0,0,0,0,.02,0,0,0,0,0,0,0,0,0,.01,0,.02,0,0,0,0,0,0,0,0,0,0,0,.01,0,0,0,0,0,0,0,0,0,.01,0,.02,0,0,0,0,0,0,0,0,0,0,0,.01,0,0,0,0,0,0,0,0,0,.01,0,.02,0,0,0,0,0,0,0,0,0,0,0,.01,0,0,0,0,0,0,0,0,0,.01,0,.02,0,0,0,0,0,0,0,0,0,0,0,.01,0,0,0,0,0,0,0,0,0,.01,0,.02,0,0,0,0,0,0,0,0,0,0,0,.01,0,0,0,0,0,0,0,0,0,.01,0,.02,0,0,0,0,0,0,0,0,0,0,0,.01,0,0,0,0,0,0,0,0,0,.01,0,.02,0,0,0,0,0,0,0,0,0,.01,0,.02,0,0,0,0,0,0,0,0,0,.01,0,.02,0,0,0,0,0,0,0,0,0,0,0,.01,0,0,0,0,0,0,0,0,0,.01,0,.02,0,0,0,0,0,0,0,0,0,0,0,.01,0,0,0,0,0,0,0,0,0,0,0,.01,0,0,0,0,0,0,0,0,0,0,0,.01,0,0,0,0,0,0,0,0,0,0,0,.01,0,0,0,0,0,0,0,0,0,0,0,.01,0,0,0,0,0,0,0,0,0,0,0,.01,0,0,0,0,0,0,0,0,0,0,0,.02,0,0,0,0,0,0,0,0,0,0,0,.01,0,0,0,0,0,0,0,0,0,.01,0,.02,0,0,0,0,0,0,0,0,0,0,0,.01,0,0,0,0,0,0,0,0,0,.01,0,.02h0s0,.02,0,.02h0s0,.02,0,.02h0s0,.02,0,.02c0,0,0,0,0,0v.02s0,0,0,0c0,0,0,0,0,.01h0s0,.02,0,.02c0,0,0,0,0,0,0,0,0,0,0,0,0,0,0,0,0,0,0,0,0,.01,0,.02,0,0,0,0,0,0,0,0,0,0,0,0,0,0,0,0,0,0,0,0,0,0,0,.01,0,0,0,0,0,.01,0,0,0,0,0,0,0,0,0,0,0,0,0,0,0,0,0,.01,0,0,0,0,0,.01,0,0,0,0,0,.01,0,0,0,0,0,0,0,0,0,0,0,.01,0,0,0,.01,0,.02,0,0,0,0,0,0,0,0,0,0,0,.01,0,0,0,0,0,0,0,0,0,.01,0,.02,0,0,0,0,0,0,0,0,0,0,0,0,0,0,0,0,0,0,0,0,0,0,0,.01,0,0,0,0,0,.01,0,0,0,0,0,0,0,0,0,0,0,0,0,0,0,0,0,.01,0,0,0,0,0,.01,0,0,0,0,0,0,0,0,0,0,0,0,0,0,0,.01,0,.02,0,0,0,0,0,0,0,0,0,0,0,.01,0,0,0,0,0,0,0,0,0,0,0,.01,0,0,0,0,0,.01,0,0,0,0,0,.01,0,0,0,0,0,0,0,0,0,0,0,.01,0,0,0,0,0,.01,0,0,0,0,0,.01,0,0,0,0,0,0,0,0,0,0,0,.01,0,0,0,0,0,.01,0,0,0,0,0,.01,0,0,0,0,0,0h0s0,.01,0,.02c0,0,0,.01,0,.02,0,0,0,0,0,0,0,0,0,0,0,.01,0,0,0,0,0,0,0,0,0,.01,0,.02,0,0,0,0,0,0,0,0,0,0,0,.01,0,0,0,0,0,0,0,0,0,.02,0,.02,0,0,0,0,0,0,0,0,0,0,0,.01,0,0,0,0,0,0,0,0,0,.02,0,.02,0,0,0,0,0,0,0,0,0,0,0,.01,0,0,0,0,0,0,0,0,0,.02,0,.02,0,0,0,0,0,0,0,0,0,0,0,.01,0,0,0,0,0,0,0,0,0,.02,0,.02,0,0,0,0,0,0,0,0,0,0,0,.01,0,0,0,0,0,0,0,0,0,.02,0,.03,0,0,0,0,0,0h0s0,.02,0,.02c0,0,0,.02,0,.03h0s0,0,0,.01c0,0,0,0,0,0,0,.01,0,.03,0,.04,0,0,0,0,0,0,0,.01,0,.03,0,.04,0,0,0,0,0,0,0,.01,0,.03,0,.04,0,0,0,0,0,0,0,.01,0,.03,0,.04t0,0s0,.03,0,.04c0,0,0,0,0,0,0,.01,0,.03,0,.04h0s0,.03,0,.04h0c.07,1.24.22,2.47.45,3.66h0s0,.02,0,.03h0s0,0,0,.01c0,0,0,0,0,0,0,0,0,.02,0,.03h0s0,0,0,.01c0,0,0,0,0,0,0,.01,0,.03,0,.04,0,0,0,0,0,0v.04s0,0,0,0c0,.01,0,.02,0,.04,0,0,0,0,0,0,0,0,0,0,0,.01,0,0,0,0,0,.01,0,0,0,0,0,0,0,0,0,0,0,0h0s0,.01,0,.02c0,0,0,.01,0,.02,0,0,0,0,0,0,0,0,0,0,0,0,0,0,0,0,0,.01,0,0,0,0,0,.01,0,0,0,0,0,0h0s0,.02,0,.02c0,0,0,0,0,0,0,0,0,0,0,.01,0,0,0,0,0,0,0,0,0,0,0,.01,0,0,0,0,0,0h0s0,.02,0,.02c0,0,0,0,0,.01,0,0,0,0,0,0,0,0,0,0,0,.01,0,0,0,0,0,0,0,0,0,0,0,.01,0,0,0,0,0,0,0,0,0,.01,0,.02,0,0,0,0,0,0,0,0,0,0,0,.01,0,0,0,0,0,0,0,0,0,.01,0,.02,0,0,0,0,0,0,0,0,0,.01,0,.02,0,0,0,0,0,0,0,0,0,.01,0,.02,0,0,0,0,0,0,0,0,0,.01,0,.02h0s0,.01,0,.02h0s0,.02,0,.02c0,0,0,0,0,0,0,0,0,.01,0,.02,0,0,0,0,0,0,.03.15.07.3.1.45.27,1.11,1.24,1.87,2.33,1.92.22,0,.45-.01.68-.07,1.34-.32,2.17-1.67,1.85-3.01-.46-1.95-.66-3.96-.58-5.98.03-.71.09-1.42.18-2.12.18-1.37-.77-2.63-2.14-2.81-.08-.01-.16-.02-.24-.02h0Zm4.12,17.26c-.52-.02-1.05.12-1.51.44-1.14.78-1.42,2.34-.64,3.48.09.13.18.26.27.38h0s0,.01.01.02h0s0,0,.01.01c0,0,0,0,0,0,0,0,0,0,0,.01,0,0,0,0,0,0h0s0,.01,0,.02c0,0,0,0,0,.01,0,0,0,0,0,0,0,0,0,0,0,.01,0,0,0,0,0,0,0,0,0,0,0,.01,0,0,0,0,0,0,0,0,0,0,0,.01,0,0,0,0,0,0h0s0,.01,0,.02c0,0,0,0,0,.01,0,0,0,0,0,0,0,0,0,0,0,.01,0,0,0,0,0,0,0,0,0,0,0,.01,0,0,0,0,0,0,0,0,0,0,0,.01,0,0,0,0,0,0,0,0,0,0,0,.01,0,0,0,0,0,0,0,0,0,0,0,.01,0,0,0,0,0,0,0,0,0,0,0,.01,0,0,0,0,0,0,0,0,0,0,0,.01h0s.03.04.04.06c0,0,0,0,0,0,0,0,0,0,0,.01,0,0,0,0,0,0,0,0,0,0,0,0,0,0,0,0,0,0,0,0,0,0,0,0,0,0,0,0,0,0,0,0,0,0,0,0,0,0,0,0,0,0,0,0,0,0,0,0,0,0,0,0,0,0,0,0,0,0,0,0,0,0,0,0,0,0,0,0,0,0,0,0,0,0,0,0,0,0,0,0,0,0,0,0,0,0,0,0,0,0,0,0,0,0,0,0,0,0,0,0,0,0,0,0,0,0,0,0,0,0,0,0,0,0,0,0,0,0,0,0,0,0,0,0,0,0,0,0,0,0,0,0,0,0,0,0,0,0,0,0,0,0,0,0,0,0,0,0,0,0,0,0,0,0,0,0,0,0,0,0,0,0,0,0,0,0,0,0,0,0,0,0,0,.01,0,0,0,0,0,0,0,0,0,0,0,.01,0,0,0,0,0,0,0,0,0,0,0,.01,0,0,0,0,0,0,0,0,0,0,.01.01,0,0,0,0,0,0,0,0,0,0,.01.01,0,0,0,0,0,0,.02.03.05.06.07.1,0,0,0,0,0,0,0,0,0,.01.01.01,0,0,0,0,0,0,0,0,0,0,.01.01,0,0,0,0,0,0,0,0,0,0,.01.01,0,0,0,0,0,0,0,0,0,0,0,.01,0,0,0,0,0,0,0,0,0,0,0,.01,0,0,0,0,0,0,0,0,0,0,0,.01,0,0,0,0,0,0,0,0,0,0,.01.01,0,0,0,0,0,0,0,0,0,0,.01.01,0,0,0,0,0,0,0,0,0,0,.01.01h0s0,.01.01.02c0,0,0,0,0,0,0,0,0,0,.01.01,0,0,0,0,0,0,0,0,0,0,.01.01,0,0,0,0,0,0,0,0,0,0,.01.01,0,0,0,0,0,0,0,0,0,.01.01.02h0c1.41,1.8,3.04,3.41,4.85,4.8,0,0,0,0,0,0,0,0,.01,0,.02.01,0,0,0,0,0,0,0,0,0,0,.01.01,0,0,0,0,0,0,0,0,0,0,.01.01,0,0,0,0,0,0h.01s0,.01,0,.01c0,0,0,0,.01.01,0,0,0,0,0,0,0,0,0,0,.01.01,0,0,0,0,0,0,0,0,0,0,.01.01,0,0,0,0,0,0,0,0,0,0,.01.01,0,0,0,0,0,0,0,0,0,0,.01.01,0,0,0,0,0,0,0,0,.01,0,.01.01,0,0,0,0,0,0,.01,0,.02.02.03.02,0,0,0,0,0,0,.04.03.09.07.13.1,0,0,0,0,0,0,0,0,0,0,.01.01,0,0,0,0,0,0,0,0,0,0,.01,0,0,0,0,0,0,0,0,0,0,0,.01,0,0,0,0,0,0,0,0,0,0,0,.01,0,0,0,0,0,0,0,0,0,0,0,.01,0,0,0,0,0,0,0,0,0,0,0,.01,0,0,0,0,0,0,0,0,0,0,0,.01,0,0,0,0,0,0,0,0,0,0,0,0,0,0,0,0,0,0,0,0,0,0,0,0,0,0,0,0,0,0,0,0,0,0,0,0,0,0,0,0,0,0,0,0,0,0,0,0,0,0,0,0,0,0,0,0,0,0,0,0,0,0,0,0,0,0,0,0,0,0,0,0,0,0,0,0,0,0,0,0,0,0,0,0,0,0,0,0,0,0,0,0,0,0,0,0,0,0,0,0,0,0,0,0,0,0,0,0,0,0,0,0,0,0,0,0,0,0,0,.01,0,0,0,0,0,0,0,0,0,0,0,.01,0,0,0,0,0,0,0,0,0,0,0,.01,0,0,0,0,0,0,0,0,0,.01,0,.02.01,0,0,0,0,0,0,0,0,0,0,.01,0,0,0,0,0,0,0,0,0,0,0,.01,0,0,0,0,0,0,0,0,0,0,0,0,0,0,0,0,0,0,0,0,0,0,0,0,0s0,0,0,0,0,0,0,0c0,0,0,0,0,0,0,0,0,0,0,0,0,0,0,0,0,0,0,0,0,0,0,0,0,0,0,0,0,0,0,0,0,0,0,0,0,0,0,0,0,0,0,0,0,0,0,0,0,0,0,0,0,0,0,0,0,0,0,0,0,0,0,0,0,0,0,0,0,0,0,0,0,0,0,0,0,0,0,0,0,0,0,0,0,0,0,0,0,0,0,0,0,0,0,0,0,0,0,0,0,0,0,0,0,0,0,0,0,0,0,0,0,0,0,0,0,0,0,0,0,0,0,0,.01,0,0,0,0,0,0,0,0,0,0,0,.01,0,0,0,0,0,0,0,0,0,0,0,.01,0,0,0,0,0,0,0,0,0,0,0,.01,0,0,0,0,0,0,0,0,0,0,0,.01,0,0,0,0,0,0,0,0,0,0,0,.01,0h0s.07.05.11.08c0,0,0,0,0,0,0,0,0,0,.01,0,0,0,0,0,0,0,0,0,0,0,.01,0,0,0,0,0,0,0,0,0,0,0,.01,0,0,0,0,0,0,0,0,0,0,0,.01,0,0,0,0,0,0,0,0,0,0,0,.01,0,0,0,0,0,0,0,0,0,0,0,.01,0,0,0,0,0,0,0,.4.28.86.42,1.31.44.83.03,1.66-.35,2.16-1.08.78-1.14.49-2.69-.65-3.48-2.26-1.55-4.19-3.48-5.75-5.74-.47-.67-1.2-1.05-1.96-1.08h0Zm14.65,10.03c-1.17-.05-2.25.74-2.53,1.93-.32,1.34.52,2.69,1.86,3.01.04.01.09.02.13.03,0,0,0,0,0,0,0,0,0,0,.01,0,0,0,0,0,0,0h.01s0,0,0,0c0,0,0,0,.01,0,0,0,0,0,0,0h.01s0,0,0,0c0,0,0,0,.01,0,0,0,0,0,0,0,0,0,0,0,.01,0s0,0,0,0,0,0,.01,0c0,0,0,0,.01,0,0,0,0,0,0,0,0,0,0,0,.01,0,0,0,0,0,0,0,0,0,0,0,.01,0,0,0,0,0,0,0,0,0,0,0,.01,0,0,0,0,0,0,0,0,0,0,0,.01,0,0,0,0,0,0,0,0,0,.01,0,.01,0,0,0,0,0,0,0,0,0,.01,0,.02,0,0,0,0,0,0,0,.05.01.1.02.14.03,0,0,0,0,0,0,.01,0,.03,0,.04,0h0s.03,0,.04,0c0,0,0,0,0,0,1,.21,2.01.36,3.05.46,0,0,0,0,0,0,0,0,.01,0,.02,0,0,0,0,0,0,0,0,0,.01,0,.02,0,0,0,0,0,0,0,0,0,.01,0,.02,0,0,0,0,0,0,0,0,0,.01,0,.02,0,0,0,0,0,0,0,0,0,.01,0,.02,0,0,0,0,0,0,0,0,0,.01,0,.02,0h0s.01,0,.02,0h0s.01,0,.02,0h0c.06,0,.12,0,.17.01,0,0,0,0,0,0,0,0,.01,0,.02,0h0s.01,0,.02,0c0,0,0,0,0,0,0,0,.01,0,.02,0,0,0,0,0,0,0,0,0,.01,0,.02,0,0,0,0,0,0,0,0,0,.01,0,.02,0,0,0,0,0,0,0,0,0,.01,0,.02,0,0,0,0,0,0,0,0,0,.01,0,.02,0,0,0,0,0,0,0,0,0,.01,0,.02,0,0,0,0,0,0,0,0,0,.01,0,.02,0,0,0,0,0,0,0,0,0,.01,0,.02,0,0,0,0,0,0,0,0,0,.01,0,.02,0,0,0,0,0,0,0,0,0,.01,0,.02,0,0,0,0,0,0,0,0,0,.01,0,.02,0h0s.06,0,.09,0h0s.01,0,.02,0c0,0,0,0,0,0,0,0,.01,0,.02,0,0,0,0,0,0,0,0,0,.01,0,.02,0,0,0,0,0,0,0,0,0,0,0,.01,0,0,0,0,0,0,0,0,0,0,0,.01,0,0,0,0,0,0,0,0,0,0,0,.01,0,0,0,0,0,0,0,0,0,0,0,.01,0,0,0,0,0,0,0,0,0,0,0,.01,0,0,0,0,0,0,0,0,0,0,0,.01,0,0,0,0,0,0,0,0,0,0,0,.01,0,0,0,0,0,0,0,0,0,0,0,.01,0,0,0,0,0,0,0,0,0,0,0,.01,0,0,0,0,0,0,0,0,0,0,0,.01,0,0,0,0,0,0,0,0,0,.01,0,.01,0,0,0,0,0,0,0,0,0,0,0,.02,0,0,0,0,0,0,0,0,0,.01,0,.02,0h0s.01,0,.02,0h0s.01,0,.02,0c0,0,0,0,0,0,0,0,0,0,.01,0,0,0,0,0,0,0,0,0,0,0,.01,0,0,0,0,0,0,0,0,0,0,0,.01,0,0,0,0,0,0,0,0,0,0,0,.01,0,0,0,0,0,0,0,0,0,0,0,.01,0h0s0,0,.01,0c0,0,0,0,0,0,0,0,0,0,.01,0h0s0,0,.01,0c0,0,0,0,0,0h.01s0,0,0,0h.01s0,0,0,0h.01s0,0,0,0h.01s0,0,0,0c0,0,0,0,.01,0h0s0,0,.01,0h0s0,0,.01,0h0s0,0,.02,0h0s.01,0,.02,0h.02s0,0,0,0h.01s0,0,0,0c0,0,0,0,.01,0h0s0,0,.01,0h0s0,0,.01,0h0s.01,0,.02,0c0,0,0,0,0,0h.02s0,0,0,0h.02s0,0,0,0c0,0,0,0,.01,0h0s0,0,.01,0h0s0,0,.01,0c0,0,0,0,0,0,0,0,0,0,.01,0h0s.01,0,.02,0h0s.01,0,.02,0h0s.01,0,.01,0c0,0,0,0,0,0,0,0,0,0,.01,0,0,0,0,0,0,0,0,0,0,0,.01,0,0,0,0,0,0,0,0,0,0,0,.01,0,0,0,0,0,0,0,0,0,0,0,.01,0,0,0,0,0,0,0,0,0,.01,0,.02,0,0,0,0,0,0,0,0,0,.01,0,.02,0,0,0,0,0,0,0,0,0,0,0,.01,0,0,0,0,0,0,0,0,0,0,0,.01,0,0,0,0,0,0,0,0,0,0,0,.01,0,0,0,0,0,0,0,0,0,0,0,.01,0,0,0,0,0,0,0,0,0,.01,0,.02,0h0s.01,0,.02,0c0,0,0,0,0,0,0,0,0,0,.01,0,0,0,0,0,0,0,0,0,0,0,.01,0,0,0,0,0,0,0,0,0,0,0,.01,0,0,0,0,0,0,0,0,0,0,0,.01,0,0,0,0,0,0,0,0,0,0,0,.01,0,0,0,0,0,0,0,0,0,.01,0,.02,0,0,0,0,0,0,0,0,0,.01,0,.02,0,0,0,0,0,0,0,0,0,0,0,.01,0,0,0,0,0,0,0,0,0,0,0,.01,0,0,0,0,0,0,0,0,0,0,0,.01,0,0,0,0,0,0,0,0,0,0,0,.01,0,0,0,0,0,0,0,0,0,.01,0,.02,0,0,0,0,0,0,0,0,0,.01,0,.02,0,0,0,0,0,0,0,0,0,0,0,.01,0,0,0,0,0,0,0,0,0,0,0,.01,0,0,0,0,0,0,0,0,0,0,0,.01,0,0,0,0,0,0,0,0,0,0,0,.01,0,0,0,0,0,0,0,0,0,0,0,.01,0,0,0,0,0,0,0,0,0,.01,0,.02,0,0,0,0,0,0,0,0,0,.01,0,.02,0,0,0,0,0,0,0,0,0,0,0,.01,0,0,0,0,0,0,0,0,0,0,0,.01,0,0,0,0,0,0,0,0,0,0,0,.01,0,0,0,0,0,0,0,0,0,0,0,.01,0h0s0,0,.01,0c0,0,0,0,0,0,0,0,.01,0,.02,0,0,0,0,0,0,0,0,0,0,0,.01,0,0,0,0,0,0,0,0,0,0,0,.01,0,0,0,0,0,0,0,0,0,0,0,.01,0,0,0,0,0,0,0,0,0,0,0,.01,0,0,0,0,0,0,0,0,0,0,0,.01,0,0,0,0,0,0,0,0,0,.01,0,.02,0,0,0,0,0,0,0,0,0,.01,0,.02,0,0,0,0,0,0,0,0,0,0,0,.01,0,0,0,0,0,0,0,0,0,0,0,.01,0,0,0,0,0,0,0,0,0,0,0,.01,0,0,0,0,0,0,0,0,0,0,0,0,0,0,0,0,0,.01,0,0,0,0,0,0,0,0,0,0,0,.01,0,0,0,.01,0,.02,0,0,0,0,0,.01,0,0,0,0,0,0,0,0,0,0,0,.01,0,0,0,0,0,0,0,0,0,0,0,.01,0,0,0,0,0,.01,0,0,0,0,0,0,0,0,0,0,0,.01,0,0,0,0,0,.01,0,0,0,0,0,.01,0,0,0,0,0,.01,0,0,0,0,0,.01,0,0,0,.01,0,.02,0,0,0,0,0,.01,0,0,0,0,0,.01,0,0,0,0,0,0,0,0,0,0,0,.01,0,0,0,0,0,.01,0,0,0,0,0,.01,0,0,0,0,0,0,0,0,0,0,0,.01,0,0,0,0,0,.01,0,0,0,0,0,0,0,0,0,0,0,.01,0,0,0,0,0,0,0,0,0,0,0,.01,0,0,0,.01,0,.02,0,0,0,0,0,0,0h.01s0,0,0,0c0,0,0,0,.01,0,0,0,0,0,0,0,0,0,0,0,.01,0,0,0,0,0,0,0,0,0,0,0,.01,0,0,0,0,0,0,0h.01s0,0,0,0c0,0,.02,0,.03,0,0,0,0,0,0,0,0,0,0,0,.01,0,0,0,0,0,0,0,0,0,0,0,.01,0,0,0,0,0,0,0,0,0,0,0,.01,0,0,0,0,0,0,0,0,0,0,0,.01,0,0,0,0,0,0,0,0,0,0,0,.01,0,0,0,0,0,0,0,.02,0,.03,0,.05,0,0,0,0,0,0,0,0,0,0,0,.01,0,0,0,0,0,0,0,0,0,0,0,.01,0,0,0,0,0,0,0,0,0,0,0,.01,0,0,0,0,0,0,0,0,0,0,0,.01,0,0,0,0,0,0,0,0,0,0,0,.01,0,0,0,0,0,0,0,.02,0,.03,0,.05,0,0,0,0,0,0,0,0,0,0,0,.01,0,0,0,0,0,0,0,0,0,0,0,.01,0,0,0,0,0,0,0,0,0,0,0,.01,0,0,0,0,0,0,0,0,0,0,0,.01,0,0,0,0,0,0,0,.02,0,.04,0,.07,0,0,0,0,0,0,0,0,0,0,0,.01,0,0,0,0,0,0,0,0,0,0,0,.01,0,0,0,0,0,0,0h.01s0,0,0,0c0,0,.01,0,.02,0,0,0,0,0,0,0,.02,0,.05,0,.07,0,0,0,0,0,0,0,0,0,.01,0,.02,0,0,0,0,0,0,0h.02s0,0,0,0c0,0,.01,0,.02,0h0s.06,0,.09,0c0,0,0,0,0,0,0,0,.01,0,.02,0t0,0s.01,0,.02,0h0c.71-.04,1.42-.11,2.12-.21,1.37-.19,2.32-1.45,2.14-2.82-.17-1.22-1.19-2.11-2.38-2.16-.14,0-.29,0-.44.02-1.28.18-2.59.24-3.89.19-1.42-.06-2.84-.25-4.21-.57-.16-.04-.32-.06-.48-.06h0Zm24.54-8.2c-.75-.03-1.5.28-2.02.89-1.76,2.1-3.87,3.85-6.26,5.18-1.21.67-1.64,2.19-.97,3.4.44.79,1.25,1.25,2.09,1.28.44.02.89-.08,1.3-.31,2.28-1.27,4.36-2.85,6.18-4.7h0s0,0,.01-.01c0,0,0,0,0,0,0,0,0,0,.01-.01,0,0,0,0,0,0,0,0,0,0,.01-.01,0,0,0,0,0,0,0,0,0,0,.01-.01,0,0,0,0,0,0,.05-.05.09-.1.14-.15,0,0,0,0,0,0,0,0,0,0,.01-.01,0,0,0,0,0,0,0,0,0,0,.01-.01h0s0-.01.01-.01c0,0,0,0,0,0,0,0,0,0,0,0,0,0,0,0,0,0,0,0,0,0,0,0,0,0,0,0,0,0,0,0,0,0,0,0,0,0,0,0,0,0,0,0,0,0,0,0,0,0,0,0,0,0,0,0,0,0,0,0,0,0,0,0,0,0,0,0,0,0,0,0,0,0,0,0,0,0,0,0,0,0,0,0,0,0,0,0,0,0,0,0,0,0,0,0,0,0,0,0,0,0,0,0,0,0,0,0,0,0,0,0,0,0,0,0,0,0,0,0,0,0,0,0,0,0,0,0,0,0,0,0,0,0,0,0,0,0,0,0,0,0,0,0h0s0-.01,0-.01c0,0,0,0,0-.01,0,0,0,0,0,0,0,0,0,0,.01-.01h0s.07-.08.11-.11h0s0,0,.01-.01c0,0,0,0,0,0,0,0,0,0,.01-.01h0s0,0,.01-.01h0s0,0,.01-.01h0s0,0,.01-.01c0,0,0,0,0,0,0,0,0,0,.01-.01h0s.03-.03.04-.04h0c.28-.31.56-.62.82-.94.89-1.06.75-2.64-.31-3.52-.44-.37-.97-.56-1.51-.58h0Zm-17.96-70.05c-.57.04-1.12.26-1.57.69-.12.12-.24.23-.36.35,0,0,0,0,0,0,0,0-.01.01-.02.02,0,0,0,0,0,0,0,0-.01.01-.02.02,0,0,0,0,0,0,0,0,0,0-.01.01,0,0,0,0,0,0,0,0-.01.01-.02.02,0,0,0,0,0,0,0,0-.01.01-.02.02,0,0,0,0,0,0,0,0-.01.01-.02.02,0,0,0,0,0,0,0,0,0,0-.01.01,0,0,0,0,0,0,0,0,0,0,0,0s0,0-.01.01c0,0,0,0,0,0,0,0,0,0,0,0,0,0,0,0-.01.01,0,0,0,0,0,0,0,0,0,0-.01.01,0,0,0,0,0,0,0,0,0,0-.01.01,0,0,0,0,0,0,0,0,0,0,0,0,0,0,0,0-.01.01,0,0,0,0,0,0,0,0,0,0-.01.01,0,0,0,0,0,0,0,0,0,0-.01.01,0,0,0,0,0,0,0,0,0,0-.01.01,0,0,0,0,0,0,0,0,0,0-.01.01,0,0,0,0,0,0,0,0,0,0-.01.01,0,0,0,0,0,0,0,0,0,0-.01.01,0,0,0,0,0,0,0,0,0,.01-.02.02,0,0,0,0,0,0,0,0,0,0-.01.01,0,0,0,0,0,0,0,0,0,0-.01.01,0,0,0,0,0,0,0,0-.01.01-.02.02,0,0,0,0,0,0,0,0-.01.01-.02.02,0,0,0,0,0,0,0,0-.01.01-.02.02,0,0,0,0,0,0,0,0-.01.01-.02.02,0,0,0,0,0,0,0,0-.01.01-.02.02h0s-.01.01-.02.02h0s-.01.01-.02.02c0,0,0,0,0,0l-.02.02s0,0,0,0c0,0-.01.01-.02.02h0s-.02.03-.04.04h0s-.01.01-.02.02h0s-.01.01-.02.02h0c-2.39,2.46-4.46,5.23-6.16,8.22h0s0,.02-.01.02c0,0,0,0,0,0-.07.12-.13.24-.2.36,0,0,0,0,0,0,0,0,0,.02-.01.02h0s-.04.08-.07.12h0s0,.02-.01.02h0s-.03.06-.05.1c0,0,0,0,0,0-.03.05-.05.1-.08.14h0c-.07.13-.14.26-.21.39h0c-.14.26-.27.52-.4.78-.61,1.24-.11,2.74,1.13,3.35.41.2.84.28,1.27.26.86-.06,1.67-.56,2.08-1.39,1.82-3.68,4.25-6.99,7.22-9.83,1-.95,1.03-2.54.08-3.53-.53-.55-1.26-.81-1.97-.77h0Zm-11.4,23.06c-1.19.08-2.19,1-2.32,2.22-.13,1.18-.2,2.37-.23,3.57,0,0,0,0,0,0,0,.01,0,.02,0,.03,0,0,0,0,0,0,0,.03,0,.05,0,.08,0,0,0,0,0,0,0,.03,0,.05,0,.08,0,0,0,0,0,0,0,0,0,.02,0,.03,0,0,0,0,0,0,0,.02,0,.03,0,.05,0,0,0,0,0,0,0,0,0,.02,0,.03,0,0,0,0,0,0,0,.02,0,.03,0,.04,0,0,0,0,0,0,0,0,0,.02,0,.02,0,0,0,0,0,0,0,0,0,.02,0,.02,0,0,0,0,0,0,0,0,0,0,0,.01,0,0,0,0,0,0,0,0,0,.02,0,.02,0,0,0,0,0,0,0,0,0,.01,0,.02,0,0,0,0,0,0,0,0,0,0,0,.01,0,0,0,0,0,0,0,0,0,.01,0,.02,0,0,0,0,0,0,0,0,0,.01,0,.02,0,0,0,0,0,0,0,0,0,.02,0,.02,0,0,0,0,0,0,0,0,0,0,0,.01,0,0,0,0,0,0,0,0,0,.01,0,.02,0,0,0,0,0,0,0,0,0,.01,0,.02,0,0,0,0,0,0,0,0,0,0,0,.01,0,0,0,0,0,0,0,0,0,.01,0,.02,0,0,0,0,0,0,0,0,0,.01,0,.02h0s0,.02,0,.02c0,0,0,0,0,.01,0,0,0,0,0,.01,0,0,0,0,0,.01,0,0,0,.01,0,.02,0,0,0,0,0,.01,0,0,0,0,0,.01,0,0,0,.01,0,.02,0,0,0,0,0,.01,0,0,0,0,0,.01,0,0,0,.01,0,.02,0,0,0,0,0,.01,0,0,0,0,0,.01,0,0,0,.01,0,.02,0,0,0,0,0,.01,0,0,0,0,0,.01,0,0,0,.01,0,.02s0,0,0,.01c0,0,0,0,0,.01,0,0,0,.01,0,.02,0,0,0,0,0,.01,0,0,0,.01,0,.02,0,0,0,0,0,0,0,0,0,0,0,.01,0,0,0,.01,0,.01,0,0,0,0,0,.01,0,0,0,0,0,.01,0,0,0,.01,0,.02,0,0,0,0,0,.01,0,0,0,0,0,.01,0,0,0,0,0,.01,0,0,0,0,0,.01,0,0,0,0,0,.01,0,0,0,.01,0,.02,0,0,0,0,0,0,0,0,0,.01,0,.02,0,0,0,0,0,.01,0,0,0,.01,0,.02,0,0,0,0,0,0,0,0,0,.01,0,.02,0,0,0,0,0,0,0,0,0,.01,0,.02,0,0,0,0,0,0,0,0,0,0,0,.01,0,0,0,0,0,.01,0,0,0,.01,0,.02,0,0,0,0,0,0,0,0,0,.01,0,.02,0,0,0,0,0,0v.02s0,0,0,.01c0,0,0,.01,0,.02,0,0,0,0,0,0,0,0,0,.01,0,.02,0,0,0,0,0,0,0,0,0,.01,0,.02,0,0,0,0,0,0,0,0,0,.01,0,.02,0,0,0,0,0,0,0,0,0,.01,0,.02,0,0,0,0,0,0,0,0,0,.01,0,.02,0,0,0,0,0,0,0,0,0,.01,0,.02,0,0,0,0,0,0,0,0,0,.01,0,.02,0,0,0,0,0,0,0,0,0,.01,0,.02,0,0,0,0,0,0,0,0,0,.01,0,.02,0,0,0,0,0,0,0,0,0,.01,0,.02,0,0,0,0,0,0,0,0,0,.01,0,.02,0,0,0,0,0,0,0,0,0,.01,0,.02,0,0,0,0,0,0,0,0,0,.01,0,.02,0,0,0,0,0,0,0,0,0,.01,0,.02,0,0,0,0,0,0,0,0,0,.01,0,.02,0,0,0,0,0,0,0,0,0,.01,0,.02,0,0,0,0,0,0,0,0,0,.01,0,.02,0,0,0,0,0,0,0,0,0,.01,0,.02,0,0,0,0,0,0,0,0,0,.01,0,.02,0,0,0,0,0,0,0,0,0,.01,0,.02,0,0,0,0,0,0,0,0,0,.01,0,.02,0,0,0,0,0,0,0,0,0,.01,0,.02,0,0,0,0,0,0,0,0,0,.02,0,.02,0,0,0,0,0,0,0,0,0,.01,0,.02,0,0,0,0,0,0,0,0,0,.02,0,.02,0,0,0,0,0,0,0,0,0,.01,0,.02,0,0,0,0,0,0,0,0,0,.02,0,.02,0,0,0,0,0,0,0,0,0,.01,0,.02,0,0,0,0,0,0,0,0,0,.01,0,.02,0,0,0,0,0,0,0,0,0,.02,0,.02,0,0,0,0,0,0,0,0,0,.02,0,.02,0,0,0,0,0,0,0,0,0,.01,0,.02h0s0,.02,0,.03c0,0,0,0,0,0,0,0,0,.01,0,.02,0,0,0,0,0,0,0,0,0,.02,0,.02h0s0,.02,0,.02c0,0,0,0,0,0,0,0,0,.02,0,.02,0,0,0,0,0,0,0,0,0,.02,0,.02h0s0,.02,0,.03c0,0,0,0,0,0,0,0,0,.02,0,.02t0,0s0,.02,0,.02h0s0,.02,0,.03h0s0,.02,0,.03c0,0,0,0,0,0,0,0,0,.01,0,.02,0,0,0,0,0,0v.02s0,0,0,0c0,0,0,.02,0,.02,0,0,0,0,0,0,0,0,0,.02,0,.02,0,0,0,0,0,0,0,0,0,.02,0,.02h0s0,.02,0,.03h0s0,.02,0,.03c0,0,0,0,0,0,0,0,0,.02,0,.02h0s0,.02,0,.03c0,0,0,0,0,0,0,0,0,.02,0,.02h0s0,.02,0,.03h0s0,.02,0,.03h0s0,.02,0,.03h0s0,.02,0,.03h0s0,.02,0,.03h0s0,.02,0,.03h0s0,.02,0,.03h0s0,.02,0,.03h0s0,.02,0,.03h0s0,.02,0,.03h0s0,.02,0,.03h0s0,.02,0,.03h0s0,.02,0,.03h0s0,.02,0,.03h0s0,.02,0,.03h0v.03s0,0,0,0v.02s0,0,0,0c0,0,0,.02,0,.02h0s0,.02,0,.03h0s0,.02,0,.03h0s0,.02,0,.03h0s0,.02,0,.03h0s0,.02,0,.03h0s0,.02,0,.03c0,0,0,0,0,0,0,0,0,.02,0,.02h0s0,.02,0,.03h0s0,.02,0,.03h0s0,.02,0,.03c0,0,0,0,0,0,0,0,0,.02,0,.02h0s0,.02,0,.03h0s0,.02,0,.03c0,0,0,0,0,0,0,0,0,.02,0,.03h0s0,.02,0,.03h0s0,.02,0,.03h0s0,.02,0,.03h0s0,.02,0,.03h0s0,.02,0,.03h0s0,.02,0,.03c0,0,0,0,0,0,0,0,0,.02,0,.03h0s0,.02,0,.03h0s0,.02,0,.03h0s0,.02,0,.03c0,0,0,0,0,0,0,0,0,.02,0,.03,0,0,0,0,0,0,0,0,0,.02,0,.03h0s0,.02,0,.03h0s0,.04,0,.06h0s0,.02,0,.03h0s0,.02,0,.03c0,0,0,0,0,0,0,.03,0,.06,0,.08h0s0,.02,0,.03h0s0,.06,0,.08h0s0,.02,0,.03h0s0,.06,0,.08h0c.19,1.96.51,3.88.97,5.75.29,1.19,1.4,1.98,2.58,1.9.15,0,.29-.03.44-.07,1.34-.33,2.16-1.68,1.83-3.02-.49-2-.81-4.06-.94-6.14s-.08-4.04.13-6.03c.15-1.37-.84-2.61-2.22-2.75-.15-.02-.29-.02-.43,0h0Zm6.15,24.97c-.43.03-.85.16-1.23.42-1.14.77-1.45,2.32-.68,3.46.4.59.81,1.17,1.24,1.74,0,0,0,0,0,0,0,0,.01.01.02.02,0,0,0,0,0,0,0,0,.01.01.02.02h0s.02.02.03.04c0,0,0,0,0,0,0,0,0,.01.01.02,0,0,0,0,0,0,0,0,0,.01.01.02,0,0,0,0,0,0,0,0,0,.01.01.02,0,0,0,0,0,0,0,0,0,0,0,.01,0,0,0,0,0,.01,0,0,0,0,0,0,0,0,0,0,.01.01,0,0,0,0,0,0,0,0,0,0,0,.01,0,0,0,0,0,.01,0,0,0,0,0,0,0,0,0,0,0,.01,0,0,0,0,0,.01,0,0,0,0,0,0,0,0,0,0,.01.01,0,0,0,0,0,0,0,0,0,0,.01.01,0,0,0,0,0,0,0,0,0,.01.01.02,0,0,0,0,0,0h.01s0,.02,0,.02c0,0,0,0,0,.01,0,0,0,0,0,0,0,0,0,0,.01.01,0,0,0,0,0,0,0,0,0,.01.01.02,0,0,0,0,0,0,0,0,0,.01.01.02,0,0,0,0,0,0,0,0,0,.01.01.02,0,0,0,0,0,0,0,0,0,.01.01.02,0,0,0,0,0,0,0,0,0,.01.01.02,0,0,0,0,0,0,0,0,0,.01.01.02,0,0,0,0,0,0,0,0,0,.01.01.02,0,0,0,0,0,0,0,0,0,.01.01.02t0,0s0,.01.01.02h0s.01.01.02.02h0s.01.01.02.02c0,0,0,0,0,0,0,0,0,.01.01.02,0,0,0,0,0,0,0,0,0,.01.01.02,0,0,0,0,0,0,0,0,.01.01.02.02,0,0,0,0,0,0,.01.01.02.03.03.04h0s.01.02.02.02c0,0,0,0,0,0,0,0,.01.01.02.02,0,0,0,0,0,0,.03.04.06.07.08.11h0s.01.01.02.02h0c2.23,2.79,4.83,5.28,7.71,7.39.49.36,1.07.51,1.63.48.71-.05,1.4-.4,1.86-1.02.81-1.11.57-2.68-.54-3.49-3.32-2.43-6.17-5.39-8.46-8.79-.51-.76-1.38-1.15-2.24-1.1h0Zm20.78,15.18c-1.02.07-1.94.76-2.24,1.8-.38,1.33.38,2.71,1.71,3.1,3.61,1.04,7.42,1.59,11.34,1.57h0s.05,0,.08,0h0s.02,0,.03,0h0s.05,0,.08,0h0s.02,0,.03,0h0s.05,0,.08,0h0s.05,0,.08,0c0,0,0,0,0,0,0,0,.02,0,.03,0h0s.04,0,.05,0h0s.02,0,.03,0h0s.02,0,.03,0h0s.04,0,.05,0h0s.02,0,.03,0t0,0s.02,0,.03,0h0s.02,0,.03,0h0s.02,0,.03,0h0s.02,0,.03,0h0s.03,0,.05,0c0,0,0,0,0,0,0,0,.02,0,.03,0,0,0,0,0,0,0,0,0,.02,0,.03,0h0s.02,0,.03,0c0,0,0,0,0,0,0,0,.02,0,.03,0,0,0,0,0,0,0,0,0,.02,0,.02,0,0,0,0,0,0,0,.02,0,.03,0,.05,0h0s.02,0,.02,0c0,0,0,0,0,0,0,0,.02,0,.02,0h0s.02,0,.03,0c0,0,0,0,0,0,0,0,.02,0,.03,0h0s.02,0,.02,0c0,0,0,0,0,0,0,0,.02,0,.03,0h0s.02,0,.03,0h0s.02,0,.02,0c0,0,0,0,0,0h.02s0,0,0,0c0,0,.02,0,.02,0h0s.02,0,.03,0h0s.02,0,.03,0h0s.02,0,.03,0c0,0,0,0,0,0,0,0,.02,0,.03,0h0s.02,0,.02,0c0,0,0,0,0,0,0,0,.02,0,.02,0,0,0,0,0,0,0,0,0,.02,0,.02,0h0s.02,0,.02,0c0,0,0,0,0,0,0,0,.02,0,.02,0,0,0,0,0,0,0,0,0,.02,0,.02,0h0s.02,0,.02,0h0s.02,0,.02,0c0,0,0,0,0,0,0,0,.02,0,.02,0,0,0,0,0,0,0,0,0,.02,0,.02,0h0s.02,0,.02,0h0s.02,0,.02,0h0s.02,0,.02,0c0,0,0,0,0,0,0,0,.02,0,.02,0h0s.02,0,.02,0h0s.02,0,.02,0h0s.02,0,.03,0h0s.02,0,.02,0c0,0,0,0,0,0,0,0,.02,0,.02,0h0s.02,0,.02,0h0s.02,0,.02,0h0s.02,0,.02,0h0s.02,0,.02,0h0s.02,0,.02,0c0,0,0,0,0,0,0,0,.02,0,.02,0h0s.02,0,.02,0h0s.02,0,.02,0h0s.02,0,.02,0h0s.02,0,.02,0h0s.02,0,.02,0h0s.02,0,.02,0h0s.02,0,.02,0h0s.02,0,.02,0h0s.02,0,.02,0h0s.02,0,.03,0h.02s0,0,0,0h.01s.01,0,.02,0c0,0,0,0,0,0h.05s0,0,0,0c0,0,.01,0,.02,0h0s.01,0,.02,0c.01,0,.03,0,.04,0h0s0,0,0,0c1.37-.1,2.41-1.29,2.31-2.66-.09-1.38-1.28-2.42-2.66-2.33,0,0,0,0,0,0h-.17c-4.06.27-8.08-.17-11.95-1.29-.29-.08-.57-.11-.85-.09h0Zm36.47-9.08c-.57.04-1.13.27-1.58.7-2.96,2.86-6.36,5.16-10.1,6.83-1.26.56-1.83,2.04-1.27,3.3.44.98,1.43,1.54,2.44,1.48.29-.02.58-.09.86-.21,1.71-.76,3.35-1.63,4.91-2.61,0,0,0,0,0,0,.03-.02.06-.04.09-.06,0,0,0,0,0,0,0,0,.02,0,.02-.01,0,0,0,0,0,0,0,0,.01,0,.02-.01,0,0,0,0,0,0,.02-.01.04-.03.06-.04,0,0,0,0,0,0,0,0,.02,0,.02-.02,0,0,0,0,0,0,0,0,.01,0,.02-.01,0,0,0,0,0,0,0,0,.01,0,.02-.01,0,0,0,0,0,0,.01,0,.03-.02.04-.02h0s.02-.01.02-.02c0,0,0,0,0,0,0,0,.01,0,.02-.01,0,0,0,0,0,0,0,0,.02,0,.02-.01,0,0,0,0,0,0,.01,0,.02-.02.04-.02,0,0,0,0,0,0,0,0,.01,0,.02-.01,0,0,0,0,0,0,0,0,.01,0,.02-.01,0,0,0,0,0,0,0,0,.01,0,.02-.01,0,0,0,0,0,0,0,0,.01,0,.02-.01,0,0,0,0,0,0,.01,0,.02-.02.04-.02,0,0,0,0,0,0,0,0,.01,0,.02-.01,0,0,0,0,0,0,0,0,.01,0,.02-.01h0s.01-.01.02-.02c0,0,0,0,0,0,0,0,0,0,.01,0,0,0,0,0,0,0,0,0,.02-.01.02-.02,0,0,0,0,0,0,0,0,.01,0,.02-.01,0,0,0,0,0,0,0,0,.01,0,.02-.01,0,0,0,0,0,0,0,0,.01,0,.02-.01,0,0,0,0,0,0,.01,0,.02-.02.04-.02,0,0,0,0,0,0,0,0,.01,0,.02-.01,0,0,0,0,0,0,0,0,.01,0,.02-.01,0,0,0,0,0,0,0,0,.01,0,.02-.01,0,0,0,0,0,0,0,0,0,0,.01,0,0,0,0,0,.01,0,0,0,0,0,0,0,0,0,0,0,.01,0,0,0,0,0,.01,0,0,0,0,0,0,0,0,0,0,0,.02-.01,0,0,0,0,0,0,0,0,0,0,.01,0,0,0,0,0,0,0,0,0,0,0,.01,0,0,0,0,0,.01,0,0,0,0,0,.01,0,0,0,0,0,0,0,0,0,0,0,.02-.01,0,0,0,0,0,0,0,0,.01,0,.02-.01,0,0,0,0,0,0,0,0,0,0,.01,0,0,0,0,0,0,0,0,0,0,0,0,0,0,0,0,0,.01,0,0,0,0,0,.01,0,0,0,0,0,.01,0,0,0,0,0,.01,0,0,0,0,0,0,0,0,0,0,0,.01,0,0,0,0,0,0,0,0,0,0,0,.01,0,0,0,0,0,0,0,0,0,0,0,.01,0,0,0,0,0,.01,0h0s0-.01.01-.02c0,0,0,0,0,0,0,0,0,0,.01,0,0,0,0,0,.01,0h.01s0-.01.01-.01c0,0,0,0,.01,0,0,0,0,0,0,0,0,0,.01,0,.02-.01,0,0,0,0,0,0,0,0,.01,0,.02-.01,0,0,0,0,0,0,0,0,0,0,.01,0,0,0,0,0,0,0,0,0,0,0,.01,0,0,0,0,0,0,0s0,0,.01,0c0,0,0,0,0,0,0,0,.01,0,.02-.01,0,0,0,0,0,0,0,0,.01,0,.02-.01,0,0,0,0,0,0,0,0,.01,0,.02-.01,0,0,0,0,0,0,0,0,.01,0,.01-.01,0,0,0,0,0,0,0,0,0,0,.01,0,0,0,0,0,0,0,0,0,.01,0,.02-.01,0,0,0,0,0,0,0,0,.01,0,.02-.01,0,0,0,0,0,0,0,0,.01,0,.02-.01,0,0,0,0,0,0,0,0,.01,0,.02-.01,0,0,0,0,0,0,0,0,.01,0,.02-.01,0,0,0,0,0,0,0,0,.01,0,.02-.01,0,0,0,0,0,0,0,0,.01,0,.02-.01,0,0,0,0,0,0,0,0,.01,0,.02-.01,0,0,0,0,0,0,0,0,.01,0,.02-.01,0,0,0,0,0,0,0,0,.01,0,.02-.01,0,0,0,0,0,0,0,0,.01,0,.02-.01,0,0,0,0,0,0,0,0,.01,0,.02-.01,0,0,0,0,0,0,0,0,.01,0,.02-.01,0,0,0,0,0,0,0,0,.01,0,.02-.01,0,0,0,0,0,0,0,0,.01,0,.02-.01,0,0,0,0,0,0,0,0,.01,0,.02-.01,0,0,0,0,0,0,0,0,.01,0,.02-.01,0,0,0,0,0,0,0,0,.01,0,.02-.01,0,0,0,0,0,0,0,0,.01,0,.02-.01,0,0,0,0,0,0,0,0,.01,0,.02-.01h0s.01,0,.02-.01c0,0,0,0,0,0,0,0,.01,0,.02-.01,0,0,0,0,0,0,0,0,.01,0,.02-.01,0,0,0,0,0,0,0,0,.01,0,.02-.01h0s.01-.01.02-.02h0s.01-.01.02-.01c0,0,0,0,0,0,0,0,.01,0,.02-.01,0,0,0,0,0,0,0,0,.01,0,.02-.01,0,0,0,0,0,0,0,0,.01,0,.02-.01h0s.01-.01.02-.02h0s.01-.01.02-.02c0,0,0,0,0,0,0,0,.01,0,.02-.01,0,0,0,0,0,0,0,0,.01,0,.02-.01,0,0,0,0,0,0,0,0,.01,0,.02-.01h0s.04-.03.06-.05h0s.01-.01.02-.02h0s.01-.01.02-.02h0s.06-.04.09-.06h0s.01-.01.02-.02h0s.06-.04.09-.06h0s.01-.01.02-.02c0,0,0,0,0,0,1.4-1.04,2.73-2.17,3.98-3.38.99-.96,1.02-2.54.06-3.54-.53-.55-1.25-.8-1.96-.76h0Zm14.14-116.76c29.46,0,53.43,23.97,53.43,53.43s-23.97,53.43-53.43,53.43-53.43-23.97-53.43-53.43,23.97-53.43,53.43-53.43m0-5c-32.22,0-58.43,26.21-58.43,58.43s26.21,58.43,58.43,58.43,58.43-26.21,58.43-58.43-26.21-58.43-58.43-58.43h0Z"/>
    </g>
  </g>
</svg>