<?xml version="1.0" encoding="UTF-8"?>
<svg class="skill-inner-SVG" id="skill_development_inner" data-name="skill_development_inner" xmlns="http://www.w3.org/2000/svg" width="310.15" height="381.02" viewBox="0 0 310.15 381.02" preserveAspectRatio="none">
  <defs>
    <style>
      .uuid-80619923-f71d-4202-b713-462d4d0d494d {
        font-family: Rubik-Medium, Rubik;
        font-size: 35.08px;
        font-variation-settings: 'wght' 500;
        font-weight: 500;
      }

      .uuid-80619923-f71d-4202-b713-462d4d0d494d, .uuid-c0dd9a98-5021-42ff-91e1-c68cc59ef4b3 {
        fill: #444144;
      }

      .uuid-b672619f-f626-4e5a-9e6b-d1f869b4526b {
        letter-spacing: -.02em;
      }

      .uuid-c9b2ea1d-b80d-44a5-bbfd-b73ecbc848c8 {
        fill: #3d315b;
      }

      .uuid-e0c97de2-1228-4f57-ad46-68e4c092a512 {
        letter-spacing: 0em;
      }

      .uuid-234a97ae-0439-4ebe-9231-f748146e3ed5 {
        fill: #fbedda;
      }
    </style>
  </defs>
  <g id="uuid-087ea36b-7bcd-43af-a744-b960aeded506" data-name="Landing - Skills">
    <g>
      <g>
        <polygon class="uuid-234a97ae-0439-4ebe-9231-f748146e3ed5" points="3.23 96.64 3.23 377.79 231.04 377.79 306.92 284.38 306.92 3.23 79.11 3.23 3.23 96.64"/>
        <path class="uuid-c0dd9a98-5021-42ff-91e1-c68cc59ef4b3" d="m77.58,0L.36,95.04l-.36.45v285.53h232.57l77.21-95.04.36-.45V0H77.58Zm229.34,284.38l-75.88,93.41H3.23V96.64L79.11,3.23h227.81v281.15Z"/>
      </g>
      <g>
        <rect class="uuid-c9b2ea1d-b80d-44a5-bbfd-b73ecbc848c8" x="149.4" y="3.23" width="4.6" height="19.05"/>
        <rect class="uuid-c9b2ea1d-b80d-44a5-bbfd-b73ecbc848c8" x="212.33" y="45.51" width="4.56" height="68.63"/>
        <rect class="uuid-c9b2ea1d-b80d-44a5-bbfd-b73ecbc848c8" x="200.96" y="45.51" width="4.63" height="68.63"/>
        <rect class="uuid-c9b2ea1d-b80d-44a5-bbfd-b73ecbc848c8" x="223.59" y="45.51" width="4.56" height="68.63"/>
      </g>
      <text class="uuid-80619923-f71d-4202-b713-462d4d0d494d" transform="translate(66.27 46.35)"><tspan x="0" y="0">d</tspan><tspan class="uuid-b672619f-f626-4e5a-9e6b-d1f869b4526b" x="21.5" y="0">ev</tspan><tspan x="60.54" y="0">elopme</tspan><tspan class="uuid-e0c97de2-1228-4f57-ad46-68e4c092a512" x="184.25" y="0">n</tspan><tspan x="205.93" y="0">t</tspan></text>
      <g>
        <g>
          <polygon class="uuid-c9b2ea1d-b80d-44a5-bbfd-b73ecbc848c8" points="77.37 237.23 13.85 173.71 4.04 183.53 4.04 205.92 13.85 196.1 54.98 237.23 13.85 278.35 4.04 268.54 4.04 290.93 13.85 300.74 77.37 237.23"/>
          <path class="uuid-c0dd9a98-5021-42ff-91e1-c68cc59ef4b3" d="m13.85,171.43l-11.43,11.43v26.96l11.43-11.43,38.84,38.84-38.84,38.84-11.43-11.43v26.96l11.43,11.43,65.8-65.8L13.85,171.43Zm-9.82,97.11l9.82,9.82,41.13-41.13-41.13-41.13-9.82,9.82v-22.39l9.82-9.82,63.52,63.52-63.52,63.52-9.82-9.82v-22.39Z"/>
        </g>
        <g>
          <path class="uuid-c0dd9a98-5021-42ff-91e1-c68cc59ef4b3" d="m296.52,49.33l-35.55,35.55,17.2,17.2,18.34-18.35,10.4,10.4v2.28l-10.4-10.4-35.55,35.55,17.2,17.2,18.34-18.35,10.4,10.4v2.28l-10.4-10.4-35.55,35.55,35.55,35.55,10.4-10.4v2.28l-10.4,10.4-37.83-37.83,18.34-18.35-18.34-18.35,18.34-18.35-18.34-18.35,37.83-37.83,10.4,10.4v2.28l-10.4-10.4Z"/>
          <path class="uuid-c9b2ea1d-b80d-44a5-bbfd-b73ecbc848c8" d="m306.92,59.73v34.41l-10.4-10.4-18.34,18.35-17.2-17.2,35.55-35.55,10.4,10.4Zm-10.4,26.29l-35.55,35.55,17.2,17.2,18.34-18.35,10.4,10.4v-34.41l-10.4-10.4Zm0,36.69l-35.55,35.55,35.55,35.55,10.4-10.4v-50.3l-10.4-10.4Z"/>
        </g>
      </g>
      <g>
        <path class="uuid-c0dd9a98-5021-42ff-91e1-c68cc59ef4b3" d="m231.7,114.13H83.02c-1.34,0-2.43,1.07-2.43,2.39v104.43c0,1.32,1.09,2.39,2.43,2.39h57l-3.43,21.16h-22.43c-5.84,0-10.58,4.74-10.58,10.58s4.74,10.58,10.58,10.58h86.77c5.84,0,10.58-4.74,10.58-10.58s-4.74-10.58-10.58-10.58h-22.42l-3.43-21.16h56.61c1.34,0,2.43-1.07,2.43-2.39v-104.43c0-1.32-1.09-2.39-2.43-2.39Zm-30.76,135.37c3.08,0,5.58,2.5,5.58,5.58s-2.5,5.58-5.58,5.58h-86.77c-3.08,0-5.58-2.5-5.58-5.58s2.5-5.58,5.58-5.58h86.77Zm-27.57-5h-31.64l3.43-21.16h24.78l3.43,21.16Zm55.89-25.94H85.46v-99.64h143.81v99.64Z"/>
        <g>
          <path class="uuid-c0dd9a98-5021-42ff-91e1-c68cc59ef4b3" d="m173.83,188.19c-.83,0-1.61-.32-2.2-.91-1.21-1.21-1.21-3.18,0-4.39l13.87-13.87-13.87-13.87c-1.21-1.21-1.21-3.18,0-4.39.59-.59,1.37-.91,2.2-.91s1.61.32,2.2.91l16.06,16.07c1.21,1.21,1.21,3.18,0,4.39l-16.07,16.06c-.59.59-1.37.91-2.2.91Z"/>
          <path class="uuid-c0dd9a98-5021-42ff-91e1-c68cc59ef4b3" d="m140.89,188.18c-.83,0-1.61-.32-2.2-.91l-16.06-16.06c-.59-.59-.91-1.37-.91-2.2s.32-1.61.91-2.2l16.06-16.06c.59-.59,1.37-.91,2.2-.91s1.61.32,2.2.91c1.21,1.21,1.21,3.18,0,4.39l-13.87,13.87,13.87,13.87c.59.59.91,1.37.91,2.2s-.32,1.61-.91,2.2c-.58.58-1.36.91-2.2.91Z"/>
          <path class="uuid-c0dd9a98-5021-42ff-91e1-c68cc59ef4b3" d="m146.13,196.37c-.45,0-.89-.1-1.3-.29-.74-.34-1.32-.96-1.61-1.74-.29-.78-.26-1.62.09-2.38l22.47-49.06c.51-1.1,1.62-1.81,2.83-1.81.45,0,.89.1,1.3.29.75.34,1.32.96,1.61,1.74.29.78.26,1.62-.09,2.38l-22.47,49.06c-.5,1.1-1.61,1.81-2.83,1.81Z"/>
        </g>
      </g>
    </g>
  </g>
</svg>