<?xml version="1.0" encoding="UTF-8"?>
<svg class="skill-inner-SVG" id="skill_design_inner" data-name="skill_design_inner" xmlns="http://www.w3.org/2000/svg" width="310.15" height="381.02" viewBox="0 0 310.15 381.02" preserveAspectRatio="none">
  <defs>
    <style>
      .uuid-b742a914-c3ab-4bf5-a8c2-232645f7367a {
        font-family: Rubik-Medium, Rubik;
        font-size: 35.08px;
        font-variation-settings: 'wght' 500;
        font-weight: 500;
      }

      .uuid-b742a914-c3ab-4bf5-a8c2-232645f7367a, .uuid-68affd1f-14b1-428b-b03f-3b234dc0d71d {
        fill: #444144;
      }

      .uuid-b646367f-d3d4-4b25-a752-d83c03f6851a {
        fill: #138385;
      }

      .uuid-882caa97-4998-4d2a-acca-a2f235e15c24 {
        fill: #fbedda;
      }
    </style>
  </defs>
  <g id="uuid-d9b297a2-c4c5-4b49-835f-079a32363312" data-name="Landing - Skills">
    <g>
      <g>
        <polygon class="uuid-882caa97-4998-4d2a-acca-a2f235e15c24" points="78.34 1.61 308.53 1.61 308.53 284.96 231.8 379.4 1.61 379.4 1.61 96.06 78.34 1.61"/>
        <path class="uuid-68affd1f-14b1-428b-b03f-3b234dc0d71d" d="m232.57,381.02H0V95.49l.36-.45L77.58,0h232.57v285.53l-.36.45-77.21,95.04Zm-229.34-3.23h227.81l75.88-93.41V3.23H79.11L3.23,96.64v281.15Z"/>
      </g>
      <g>
        <rect class="uuid-b646367f-d3d4-4b25-a752-d83c03f6851a" x="112.98" y="2.89" width="4.67" height="19.39"/>
        <polygon class="uuid-b646367f-d3d4-4b25-a752-d83c03f6851a" points="196.85 125.82 196.85 45.51 192.08 45.51 192.08 130.59 196.85 125.82"/>
        <path class="uuid-b646367f-d3d4-4b25-a752-d83c03f6851a" d="m207.39,119.65l2.13,2.13V45.51h-4.77v73.28c.94-.14,1.92.14,2.64.86Z"/>
      </g>
      <text class="uuid-b742a914-c3ab-4bf5-a8c2-232645f7367a" transform="translate(98.5 46.35)"><tspan x="0" y="0">design</tspan></text>
      <g>
        <path class="uuid-b646367f-d3d4-4b25-a752-d83c03f6851a" d="m130.89,285.43c-50.09,0-91.1,40.68-91.53,90.74h183.08c-.43-50.11-41.33-90.74-91.55-90.74Z"/>
        <path class="uuid-68affd1f-14b1-428b-b03f-3b234dc0d71d" d="m130.89,283.82c-51.07,0-92.86,41.55-93.15,92.63v1.35h186.32v-.81c0-51.37-41.79-93.17-93.17-93.17Zm-91.53,92.36c.44-50.06,41.44-90.74,91.53-90.74s91.11,40.63,91.55,90.74H39.35Z"/>
      </g>
      <g>
        <path class="uuid-68affd1f-14b1-428b-b03f-3b234dc0d71d" d="m231.49,137.22l-20.84-20.84h0c-3-3-7.88-2.99-10.88,0l-22.8,22.8s0,0,0,0l-83.85,83.85s-.04.06-.07.09c-.12.14-.23.28-.32.45-.04.07-.07.14-.1.21-.03.07-.07.13-.09.21l-11.38,37.52c-.44,1.47-.05,3.06,1.04,4.15l-.9-.9L1.05,345.01l1.81,1.81,80.25-80.25-.9-.9c.79.79,1.85,1.22,2.94,1.22.4,0,.81-.06,1.21-.18l37.52-11.37s.09-.04.14-.06c.05-.02.1-.04.15-.07.23-.11.45-.24.63-.42.01-.01.03-.02.05-.03l83.85-83.85s0,0,0,0l22.8-22.8c1.45-1.45,2.25-3.39,2.25-5.44s-.8-3.99-2.25-5.44Zm-110.2,114.07l-35.47,10.75,10.75-35.47,15.4-3.98-5.19,15.57c-.28.83-.06,1.74.56,2.36.62.62,1.54.84,2.36.56l15.57-5.19-3.98,15.4Zm6.26-5.79l3.25-12.57c.21-.82-.04-1.69-.66-2.26-.43-.4-1-.62-1.57-.62-.24,0-.49.04-.73.12l-15.22,5.07,5.07-15.22c.27-.8.07-1.69-.5-2.3-.58-.62-1.45-.88-2.27-.66l-12.57,3.25,76.24-76.24,25.2,25.2-76.24,76.24Zm100.67-100.67l-21.17,21.17-25.2-25.2,21.17-21.17c1.2-1.2,3.15-1.2,4.36,0l20.84,20.84c1.2,1.2,1.2,3.15,0,4.35Z"/>
        <path class="uuid-68affd1f-14b1-428b-b03f-3b234dc0d71d" d="m166.96,164.58l-35.4,35.4c-.9.9-.9,2.36,0,3.27.45.45,1.04.68,1.63.68s1.18-.23,1.63-.68l35.4-35.4c.9-.9.9-2.36,0-3.27-.9-.9-2.36-.9-3.27,0Z"/>
      </g>
      <g>
        <path class="uuid-b646367f-d3d4-4b25-a752-d83c03f6851a" d="m2.08,137.81l.78-.02c22.34-.66,40.51-19.38,40.51-41.73,0-12.11-5.28-23.62-14.49-31.58l-.59-.51,2.63-3.23.63.54c10.16,8.76,15.99,21.44,15.99,34.79,0,12.02-4.63,23.39-13.04,32.02-8.39,8.61-19.61,13.54-31.59,13.88l-.83.02v-4.17Zm0-10.95l.78-.03c16.57-.66,29.55-14.18,29.55-30.77,0-8.81-3.81-17.22-10.44-23.08l-.58-.51,2.63-3.23.63.55c7.58,6.66,11.94,16.23,11.94,26.28,0,18.89-14.79,34.24-33.66,34.94l-.84.03v-4.17Zm0-10.98l.76-.05c10.44-.64,18.61-9.33,18.61-19.78,0-5.5-2.34-10.81-6.42-14.57l-.56-.51,2.63-3.23.63.57c5.01,4.56,7.89,11.03,7.89,17.74,0,12.73-9.96,23.24-22.69,23.94l-.85.05v-4.17Z"/>
        <path class="uuid-68affd1f-14b1-428b-b03f-3b234dc0d71d" d="m31.03,61.89c9.61,8.28,15.71,20.53,15.71,34.18,0,24.45-19.55,44.41-43.85,45.09v-2.55c22.88-.68,41.29-19.49,41.29-42.54,0-12.85-5.73-24.38-14.77-32.2l1.61-1.98m-6.91,8.51c7.14,6.27,11.66,15.45,11.66,25.67,0,18.41-14.64,33.45-32.88,34.13v-2.55c16.84-.67,30.33-14.58,30.33-31.57,0-9.42-4.15-17.89-10.72-23.69l1.61-1.98m-6.93,8.53c4.67,4.25,7.63,10.35,7.63,17.15,0,12.36-9.73,22.47-21.92,23.14v-2.55c10.79-.67,19.37-9.63,19.37-20.58,0-6-2.59-11.39-6.68-15.16l1.61-1.98m13.63-19.34l-1.05,1.29-1.61,1.98-.99,1.22,1.18,1.02c9.03,7.81,14.21,19.1,14.21,30.97,0,21.91-17.82,40.27-39.72,40.92l-1.57.05v5.78l1.66-.05c12.19-.34,23.6-5.36,32.14-14.12,8.56-8.78,13.27-20.35,13.27-32.59,0-13.59-5.93-26.49-16.27-35.4l-1.26-1.09h0Zm-6.9,8.49l-1.06,1.3-1.61,1.98-.98,1.2,1.16,1.03c6.46,5.71,10.17,13.9,10.17,22.48,0,16.16-12.64,29.32-28.78,29.96l-1.55.06v5.78l1.67-.06c9.26-.34,17.92-4.22,24.39-10.91,6.48-6.71,10.05-15.53,10.05-24.84,0-10.28-4.45-20.08-12.21-26.89l-1.26-1.11h0Zm-6.91,8.5l-1.08,1.33-1.61,1.98-.96,1.18,1.12,1.03c3.92,3.61,6.16,8.7,6.16,13.98,0,10.02-7.84,18.35-17.85,18.97l-1.52.09v5.78l1.7-.09c13.15-.72,23.45-11.59,23.45-24.75,0-6.94-2.97-13.63-8.15-18.34l-1.26-1.15h0Z"/>
      </g>
    </g>
  </g>
</svg>